<mxfile host="app.diagrams.net" agent="Mozilla/5.0 (Windows NT 10.0; Win64; x64) AppleWebKit/537.36 (KHTML, like Gecko) Chrome/140.0.0.0 Safari/537.36" version="28.2.3">
  <diagram id="WI9T0HZ2pTsCkuznbFz-" name="Page-1">
    <mxGraphModel dx="1876" dy="1877" grid="1" gridSize="10" guides="1" tooltips="1" connect="1" arrows="1" fold="1" page="1" pageScale="1" pageWidth="827" pageHeight="1169" math="0" shadow="0">
      <root>
        <mxCell id="0" />
        <mxCell id="1" parent="0" />
        <mxCell id="vbyWE2GeK1n_giPgyy7q-1" value="UNIFIQUE" style="shape=image;verticalLabelPosition=top;labelBackgroundColor=#ffffff;verticalAlign=bottom;aspect=fixed;imageAspect=0;image=data:image/svg+xml,PHN2ZyB4bWxuczpjYz0iaHR0cDovL2NyZWF0aXZlY29tbW9ucy5vcmcvbnMjIiB4bWxuczpkYz0iaHR0cDovL3B1cmwub3JnL2RjL2VsZW1lbnRzLzEuMS8iIHhtbG5zOmlua3NjYXBlPSJodHRwOi8vd3d3Lmlua3NjYXBlLm9yZy9uYW1lc3BhY2VzL2lua3NjYXBlIiB4bWxuczpyZGY9Imh0dHA6Ly93d3cudzMub3JnLzE5OTkvMDIvMjItcmRmLXN5bnRheC1ucyMiIHhtbG5zOnNvZGlwb2RpPSJodHRwOi8vc29kaXBvZGkuc291cmNlZm9yZ2UubmV0L0RURC9zb2RpcG9kaS0wLmR0ZCIgeG1sbnM6c3ZnPSJodHRwOi8vd3d3LnczLm9yZy8yMDAwL3N2ZyIgeG1sbnM9Imh0dHA6Ly93d3cudzMub3JnLzIwMDAvc3ZnIiB4bWxuczp4bGluaz0iaHR0cDovL3d3dy53My5vcmcvMTk5OS94bGluayIgdmVyc2lvbj0iMS4xIiBpZD0ic3ZnMTAxNjY1IiBpbmtzY2FwZTp2ZXJzaW9uPSIwLjkyLjMgKDI0MDU1NDYsIDIwMTgtMDMtMTEpIiBzb2RpcG9kaTpkb2NuYW1lPSJ2aXJ0dWFsX3dhbi5zdmciIHg9IjBweCIgeT0iMHB4IiB2aWV3Qm94PSIwIDAgMzUuODUgMzUuODYiIHN0eWxlPSJlbmFibGUtYmFja2dyb3VuZDpuZXcgMCAwIDM1Ljg1IDM1Ljg2OyIgeG1sOnNwYWNlPSJwcmVzZXJ2ZSI+JiN4YTs8c29kaXBvZGk6bmFtZWR2aWV3IGJvcmRlcmNvbG9yPSIjNjY2NjY2IiBib3JkZXJvcGFjaXR5PSIxIiBmaXQtbWFyZ2luLWJvdHRvbT0iMCIgZml0LW1hcmdpbi1sZWZ0PSIwIiBmaXQtbWFyZ2luLXJpZ2h0PSIwIiBmaXQtbWFyZ2luLXRvcD0iMCIgZ3JpZHRvbGVyYW5jZT0iMTAiIGd1aWRldG9sZXJhbmNlPSIxMCIgaWQ9Im5hbWVkdmlldzEwMTY2NyIgaW5rc2NhcGU6Y3VycmVudC1sYXllcj0ic3ZnMTAxNjY1IiBpbmtzY2FwZTpjeD0iNC44OTUzNjM0IiBpbmtzY2FwZTpjeT0iMTcuMTcwMDE4IiBpbmtzY2FwZTpwYWdlb3BhY2l0eT0iMCIgaW5rc2NhcGU6cGFnZXNoYWRvdz0iMiIgaW5rc2NhcGU6d2luZG93LWhlaWdodD0iMTAxNyIgaW5rc2NhcGU6d2luZG93LW1heGltaXplZD0iMSIgaW5rc2NhcGU6d2luZG93LXdpZHRoPSIxOTIwIiBpbmtzY2FwZTp3aW5kb3cteD0iLTgiIGlua3NjYXBlOndpbmRvdy15PSItOCIgaW5rc2NhcGU6em9vbT0iOC43MDQ4MTkxIiBvYmplY3R0b2xlcmFuY2U9IjEwIiBwYWdlY29sb3I9IiNmZmZmZmYiIHNob3dncmlkPSJmYWxzZSI+JiN4YTsJPC9zb2RpcG9kaTpuYW1lZHZpZXc+JiN4YTs8ZyBpZD0iZzEwMTY2MyIgdHJhbnNmb3JtPSJ0cmFuc2xhdGUoLTAuNzUsLTAuNzQ1KSI+JiN4YTsJPHRpdGxlIGlkPSJ0aXRsZTEwMTYwMiI+UGFnZS0xPC90aXRsZT4mI3hhOwk8ZyBpZD0iZ3JvdXA1OTM3LTEiIHRyYW5zZm9ybT0idHJhbnNsYXRlKDAuNzUsLTAuNzUpIj4mI3hhOwkJPHRpdGxlIGlkPSJ0aXRsZTEwMTYwNCI+VmlydHVhbCBXQU48L3RpdGxlPiYjeGE7CQk8ZyBpZD0ic2hhcGU1OTM4LTIiIHRyYW5zZm9ybT0idHJhbnNsYXRlKDAsLTEzLjQyNSkiPiYjeGE7CQkJPHRpdGxlIGlkPSJ0aXRsZTEwMTYwNiI+U2hlZXQuNTkzODwvdGl0bGU+JiN4YTsJCQk8cGF0aCBpZD0icGF0aDEwMTYwOCIgaW5rc2NhcGU6Y29ubmVjdG9yLWN1cnZhdHVyZT0iMCIgc3R5bGU9ImZpbGw6IzU5QjREOTsiIGQ9Ik0yOC44OCwyMy43Yy0wLjAxLDAtMC4wMiwwLTAuMDMsMCAgICAgYy0wLjI2LTQuODktNC4zNy04Ljc4LTkuNDMtOC43OGMtMy43LDAtNi44OSwyLjA4LTguNDUsNS4xMWMtMC42NC0wLjE1LTEuMzItMC4yMy0yLjAxLTAuMjNDNC4wMSwxOS44LDAsMjMuNzMsMCwyOC41NyAgICAgYzAsNC44NSw0LjAxLDguNzgsOC45Niw4Ljc4aDE5LjkyYzMuODUsMCw2Ljk3LTMuMDYsNi45Ny02LjgzQzM1Ljg1LDI2Ljc2LDMyLjczLDIzLjcsMjguODgsMjMuN3oiLz4mI3hhOwkJPC9nPiYjeGE7CQk8ZyBpZD0ic2hhcGU1OTM5LTQiIHRyYW5zZm9ybT0idHJhbnNsYXRlKDAsLTEzLjQyNSkiPiYjeGE7CQkJPHRpdGxlIGlkPSJ0aXRsZTEwMTYxMSI+U2hlZXQuNTkzOTwvdGl0bGU+JiN4YTsJCQk8cGF0aCBpZD0icGF0aDEwMTYxMyIgaW5rc2NhcGU6Y29ubmVjdG9yLWN1cnZhdHVyZT0iMCIgc3R5bGU9ImZpbGw6I0ZGRkZGRjtmaWxsLW9wYWNpdHk6MC4yOyIgZD0iTTI4Ljg4LDIzLjcgICAgIGMtMC4wMSwwLTAuMDIsMC0wLjAzLDBjLTAuMjYtNC44OS00LjM3LTguNzgtOS40My04Ljc4Yy0zLjcsMC02Ljg5LDIuMDgtOC40NSw1LjExYy0wLjY0LTAuMTUtMS4zMi0wLjIzLTIuMDEtMC4yMyAgICAgQzQuMDEsMTkuOCwwLDIzLjczLDAsMjguNTdjMCw0Ljg1LDQuMDEsOC43OCw4Ljk2LDguNzhoMTkuOTJjMy44NSwwLDYuOTctMy4wNiw2Ljk3LTYuODNDMzUuODUsMjYuNzYsMzIuNzMsMjMuNywyOC44OCwyMy43eiIvPiYjeGE7CQk8L2c+JiN4YTsJCTxnIGlkPSJncm91cDU5NDAtNiIgdHJhbnNmb3JtPSJ0cmFuc2xhdGUoNikiPiYjeGE7CQkJPHRpdGxlIGlkPSJ0aXRsZTEwMTYxNiI+U2hlZXQuNTk0MDwvdGl0bGU+JiN4YTsJCQk8ZyBpZD0iZ3JvdXA1OTQxLTciPiYjeGE7CQkJCTx0aXRsZSBpZD0idGl0bGUxMDE2MTgiPlNoZWV0LjU5NDE8L3RpdGxlPiYjeGE7CQkJCTxnIGlkPSJzaGFwZTU5NDItOCIgdHJhbnNmb3JtPSJ0cmFuc2xhdGUoMC41NjI1LC0wLjU2MjUpIj4mI3hhOwkJCQkJPHRpdGxlIGlkPSJ0aXRsZTEwMTYyMCI+U2hlZXQuNTk0MjwvdGl0bGU+JiN4YTsJCQkJCTxwYXRoIGlkPSJwYXRoMTAxNjIyIiBpbmtzY2FwZTpjb25uZWN0b3ItY3VydmF0dXJlPSIwIiBzdHlsZT0iZmlsbDojRkZGRkZGOyIgZD0iTTEyLjExLDM3LjM1QzUuNDMsMzcuMzUsMCwzMS45MiwwLDI1LjI0ICAgICAgIHM1LjQzLTEyLjEyLDEyLjExLTEyLjEyczEyLjEyLDUuNDQsMTIuMTIsMTIuMTJTMTguNzksMzcuMzUsMTIuMTEsMzcuMzV6Ii8+JiN4YTsJCQkJPC9nPiYjeGE7CQkJCTxnIGlkPSJzaGFwZTU5NDMtMTAiPiYjeGE7CQkJCQk8dGl0bGUgaWQ9InRpdGxlMTAxNjI1Ij5TaGVldC41OTQzPC90aXRsZT4mI3hhOwkJCQkJPHBhdGggaWQ9InBhdGgxMDE2MjciIGlua3NjYXBlOmNvbm5lY3Rvci1jdXJ2YXR1cmU9IjAiIHN0eWxlPSJmaWxsOiM4MDQ5OTg7IiBkPSJNMTIuNjgsMTMuMTJjNi4zNiwwLDExLjU1LDUuMTksMTEuNTUsMTEuNTUgICAgICAgYzAsNi4zNy01LjE5LDExLjU1LTExLjU1LDExLjU1Yy02LjM3LDAtMTEuNTUtNS4xOC0xMS41NS0xMS41NUMxLjEzLDE4LjMxLDYuMzEsMTMuMTIsMTIuNjgsMTMuMTJ6IE0xMi42OCwxMiAgICAgICBDNS42NywxMiwwLDE3LjY3LDAsMjQuNjdjMCw3LjAxLDUuNjcsMTIuNjgsMTIuNjgsMTIuNjhjNywwLDEyLjY3LTUuNjcsMTIuNjctMTIuNjhDMjUuMzUsMTcuNjcsMTkuNjgsMTIsMTIuNjgsMTJ6Ii8+JiN4YTsJCQkJPC9nPiYjeGE7CQkJPC9nPiYjeGE7CQkJPGcgaWQ9InNoYXBlNTk0NC0xMiIgdHJhbnNmb3JtPSJyb3RhdGUoLTcwLjAwMTIsLTUuNTYyMTk2NSwyMS40NjM2MzkpIj4mI3hhOwkJCQk8dGl0bGUgaWQ9InRpdGxlMTAxNjMxIj5TaGVldC41OTQ0PC90aXRsZT4mI3hhOwkJCQk8Y2lyY2xlIGlkPSJlbGxpcHNlMTAxNjMzIiBzdHlsZT0iZmlsbDojODA0OTk4OyIgY3g9IjIuMzkiIGN5PSIzNC45NiIgcj0iMi4zOSIvPiYjeGE7CQkJPC9nPiYjeGE7CQkJPGcgaWQ9InNoYXBlNTk0NS0xNCIgdHJhbnNmb3JtPSJyb3RhdGUoLTcwLjAwMTIsNC4zNTk2MzYsMTcuOTAyNjc0KSI+JiN4YTsJCQkJPHRpdGxlIGlkPSJ0aXRsZTEwMTYzNiI+U2hlZXQuNTk0NTwvdGl0bGU+JiN4YTsJCQkJPGNpcmNsZSBpZD0iZWxsaXBzZTEwMTYzOCIgc3R5bGU9ImZpbGw6IzgwNDk5ODsiIGN4PSIyLjM5IiBjeT0iMzQuOTYiIHI9IjIuMzkiLz4mI3hhOwkJCTwvZz4mI3hhOwkJCTxnIGlkPSJzaGFwZTU5NDYtMTYiIHRyYW5zZm9ybT0icm90YXRlKC03MC4wMDEyLDEuNTIwNzM0OCwyOC4zNTU1OTEpIj4mI3hhOwkJCQk8dGl0bGUgaWQ9InRpdGxlMTAxNjQxIj5TaGVldC41OTQ2PC90aXRsZT4mI3hhOwkJCQk8Y2lyY2xlIGlkPSJlbGxpcHNlMTAxNjQzIiBzdHlsZT0iZmlsbDojODA0OTk4OyIgY3g9IjIuMzkiIGN5PSIzNC45NiIgcj0iMi4zOSIvPiYjeGE7CQkJPC9nPiYjeGE7CQkJPGcgaWQ9InNoYXBlNTk0Ny0xOCIgdHJhbnNmb3JtPSJ0cmFuc2xhdGUoMC44MTk3NSwtMS43NjU1KSI+JiN4YTsJCQkJPHRpdGxlIGlkPSJ0aXRsZTEwMTY0NiI+U2hlZXQuNTk0NzwvdGl0bGU+JiN4YTsJCQkJPHBhdGggaWQ9InBhdGgxMDE2NDgiIGlua3NjYXBlOmNvbm5lY3Rvci1jdXJ2YXR1cmU9IjAiIHN0eWxlPSJmaWxsOiM4MDQ5OTg7IiBkPSJNNi40NSwxOS4wN2MtMS45NiwwLTMuODUsMC40LTUuNjQsMS4yMSAgICAgIEMwLjUsMjAuODQsMC4yMywyMS40MSwwLDIyLjAyYzEuOTUtMS4xNyw0LjE3LTEuNzksNi40NS0xLjc5YzYuOTYsMCwxMi42Miw1LjY3LDEyLjYyLDEyLjYzYzAsMS41Mi0wLjI3LDMuMDEtMC44MSw0LjQzICAgICAgbC0wLjAyLDAuMDZjMC41My0wLjMyLDEuMDQtMC42NywxLjUyLTEuMDZjMC4yOC0xLjEsMC40Ny0yLjI5LDAuNDctMy40M0MyMC4yMywyNS4yNSwxNC4wNSwxOS4wNyw2LjQ1LDE5LjA3eiIvPiYjeGE7CQkJPC9nPiYjeGE7CQkJPGcgaWQ9InNoYXBlNTk0OC0yMCIgdHJhbnNmb3JtPSJ0cmFuc2xhdGUoNi44NDE1LC0wLjAxNDI1KSI+JiN4YTsJCQkJPHRpdGxlIGlkPSJ0aXRsZTEwMTY1MSI+U2hlZXQuNTk0ODwvdGl0bGU+JiN4YTsJCQkJPHBhdGggaWQ9InBhdGgxMDE2NTMiIGlua3NjYXBlOmNvbm5lY3Rvci1jdXJ2YXR1cmU9IjAiIHN0eWxlPSJmaWxsOiM4MDQ5OTg7IiBkPSJNMTEuMjksMTMuMzhjLTAuNTktMC4yOC0xLjItMC41Mi0xLjg0LTAuNzIgICAgICBDMy43OSwxNC41NCwwLDE5Ljc2LDAsMjUuNzVjMCw0LjcyLDIuMzcsOS4wNSw2LjM0LDExLjZjMC42Ny0wLjAzLDEuMzItMC4xMSwxLjk2LTAuMjRsLTAuMDYtMC4wMyAgICAgIGMtNC4zNi0yLjE1LTcuMDctNi40OS03LjA3LTExLjMzQzEuMTcsMTkuNzUsNS40MiwxNC41NywxMS4yOSwxMy4zOHoiLz4mI3hhOwkJCTwvZz4mI3hhOwkJCTxnIGlkPSJzaGFwZTU5NDktMjIiIHRyYW5zZm9ybT0idHJhbnNsYXRlKDQuNTQ1LC0yLjE4NTUpIj4mI3hhOwkJCQk8dGl0bGUgaWQ9InRpdGxlMTAxNjU2Ij5TaGVldC41OTQ5PC90aXRsZT4mI3hhOwkJCQk8cGF0aCBpZD0icGF0aDEwMTY1OCIgaW5rc2NhcGU6Y29ubmVjdG9yLWN1cnZhdHVyZT0iMCIgc3R5bGU9ImZpbGw6IzgwNDk5ODsiIGQ9Ik0yMC4yNywzMC4xOGMwLjExLTAuNDEsMC4yLTAuODQsMC4yNy0xLjI4ICAgICAgYy0yLjE2LTEuMy00LjYyLTEuOTktNy4xNC0xLjk5Yy02LDAtMTEuMzgsMy44LTEzLjM5LDkuNjJMMCwzNi41NmwwLjAzLDAuMDNjMC4yNywwLjIzLDAuNTYsMC40NSwwLjg1LDAuNjcgICAgICBjMC4wNSwwLjAzLDAuMDksMC4wNiwwLjEzLDAuMDlsMC4wMi0wLjA3YzEuNzUtNS41Myw2LjcyLTkuMTQsMTIuMzctOS4xNEMxNS44NSwyOC4xNCwxOC4yLDI4Ljg1LDIwLjI3LDMwLjE4eiIvPiYjeGE7CQkJPC9nPiYjeGE7CQk8L2c+JiN4YTsJPC9nPiYjeGE7PC9nPiYjeGE7PC9zdmc+;labelPosition=center;align=center;rounded=1;" parent="1" vertex="1">
          <mxGeometry x="-780" y="-1140" width="36" height="36" as="geometry" />
        </mxCell>
        <mxCell id="vbyWE2GeK1n_giPgyy7q-2" value="VIVO" style="shape=image;verticalLabelPosition=top;labelBackgroundColor=#ffffff;verticalAlign=bottom;aspect=fixed;imageAspect=0;image=data:image/svg+xml,PHN2ZyB4bWxuczpjYz0iaHR0cDovL2NyZWF0aXZlY29tbW9ucy5vcmcvbnMjIiB4bWxuczpkYz0iaHR0cDovL3B1cmwub3JnL2RjL2VsZW1lbnRzLzEuMS8iIHhtbG5zOmlua3NjYXBlPSJodHRwOi8vd3d3Lmlua3NjYXBlLm9yZy9uYW1lc3BhY2VzL2lua3NjYXBlIiB4bWxuczpyZGY9Imh0dHA6Ly93d3cudzMub3JnLzE5OTkvMDIvMjItcmRmLXN5bnRheC1ucyMiIHhtbG5zOnNvZGlwb2RpPSJodHRwOi8vc29kaXBvZGkuc291cmNlZm9yZ2UubmV0L0RURC9zb2RpcG9kaS0wLmR0ZCIgeG1sbnM6c3ZnPSJodHRwOi8vd3d3LnczLm9yZy8yMDAwL3N2ZyIgeG1sbnM9Imh0dHA6Ly93d3cudzMub3JnLzIwMDAvc3ZnIiB4bWxuczp4bGluaz0iaHR0cDovL3d3dy53My5vcmcvMTk5OS94bGluayIgdmVyc2lvbj0iMS4xIiBpZD0ic3ZnMTAxNjY1IiBpbmtzY2FwZTp2ZXJzaW9uPSIwLjkyLjMgKDI0MDU1NDYsIDIwMTgtMDMtMTEpIiBzb2RpcG9kaTpkb2NuYW1lPSJ2aXJ0dWFsX3dhbi5zdmciIHg9IjBweCIgeT0iMHB4IiB2aWV3Qm94PSIwIDAgMzUuODUgMzUuODYiIHN0eWxlPSJlbmFibGUtYmFja2dyb3VuZDpuZXcgMCAwIDM1Ljg1IDM1Ljg2OyIgeG1sOnNwYWNlPSJwcmVzZXJ2ZSI+JiN4YTs8c29kaXBvZGk6bmFtZWR2aWV3IGJvcmRlcmNvbG9yPSIjNjY2NjY2IiBib3JkZXJvcGFjaXR5PSIxIiBmaXQtbWFyZ2luLWJvdHRvbT0iMCIgZml0LW1hcmdpbi1sZWZ0PSIwIiBmaXQtbWFyZ2luLXJpZ2h0PSIwIiBmaXQtbWFyZ2luLXRvcD0iMCIgZ3JpZHRvbGVyYW5jZT0iMTAiIGd1aWRldG9sZXJhbmNlPSIxMCIgaWQ9Im5hbWVkdmlldzEwMTY2NyIgaW5rc2NhcGU6Y3VycmVudC1sYXllcj0ic3ZnMTAxNjY1IiBpbmtzY2FwZTpjeD0iNC44OTUzNjM0IiBpbmtzY2FwZTpjeT0iMTcuMTcwMDE4IiBpbmtzY2FwZTpwYWdlb3BhY2l0eT0iMCIgaW5rc2NhcGU6cGFnZXNoYWRvdz0iMiIgaW5rc2NhcGU6d2luZG93LWhlaWdodD0iMTAxNyIgaW5rc2NhcGU6d2luZG93LW1heGltaXplZD0iMSIgaW5rc2NhcGU6d2luZG93LXdpZHRoPSIxOTIwIiBpbmtzY2FwZTp3aW5kb3cteD0iLTgiIGlua3NjYXBlOndpbmRvdy15PSItOCIgaW5rc2NhcGU6em9vbT0iOC43MDQ4MTkxIiBvYmplY3R0b2xlcmFuY2U9IjEwIiBwYWdlY29sb3I9IiNmZmZmZmYiIHNob3dncmlkPSJmYWxzZSI+JiN4YTsJPC9zb2RpcG9kaTpuYW1lZHZpZXc+JiN4YTs8ZyBpZD0iZzEwMTY2MyIgdHJhbnNmb3JtPSJ0cmFuc2xhdGUoLTAuNzUsLTAuNzQ1KSI+JiN4YTsJPHRpdGxlIGlkPSJ0aXRsZTEwMTYwMiI+UGFnZS0xPC90aXRsZT4mI3hhOwk8ZyBpZD0iZ3JvdXA1OTM3LTEiIHRyYW5zZm9ybT0idHJhbnNsYXRlKDAuNzUsLTAuNzUpIj4mI3hhOwkJPHRpdGxlIGlkPSJ0aXRsZTEwMTYwNCI+VmlydHVhbCBXQU48L3RpdGxlPiYjeGE7CQk8ZyBpZD0ic2hhcGU1OTM4LTIiIHRyYW5zZm9ybT0idHJhbnNsYXRlKDAsLTEzLjQyNSkiPiYjeGE7CQkJPHRpdGxlIGlkPSJ0aXRsZTEwMTYwNiI+U2hlZXQuNTkzODwvdGl0bGU+JiN4YTsJCQk8cGF0aCBpZD0icGF0aDEwMTYwOCIgaW5rc2NhcGU6Y29ubmVjdG9yLWN1cnZhdHVyZT0iMCIgc3R5bGU9ImZpbGw6IzU5QjREOTsiIGQ9Ik0yOC44OCwyMy43Yy0wLjAxLDAtMC4wMiwwLTAuMDMsMCAgICAgYy0wLjI2LTQuODktNC4zNy04Ljc4LTkuNDMtOC43OGMtMy43LDAtNi44OSwyLjA4LTguNDUsNS4xMWMtMC42NC0wLjE1LTEuMzItMC4yMy0yLjAxLTAuMjNDNC4wMSwxOS44LDAsMjMuNzMsMCwyOC41NyAgICAgYzAsNC44NSw0LjAxLDguNzgsOC45Niw4Ljc4aDE5LjkyYzMuODUsMCw2Ljk3LTMuMDYsNi45Ny02LjgzQzM1Ljg1LDI2Ljc2LDMyLjczLDIzLjcsMjguODgsMjMuN3oiLz4mI3hhOwkJPC9nPiYjeGE7CQk8ZyBpZD0ic2hhcGU1OTM5LTQiIHRyYW5zZm9ybT0idHJhbnNsYXRlKDAsLTEzLjQyNSkiPiYjeGE7CQkJPHRpdGxlIGlkPSJ0aXRsZTEwMTYxMSI+U2hlZXQuNTkzOTwvdGl0bGU+JiN4YTsJCQk8cGF0aCBpZD0icGF0aDEwMTYxMyIgaW5rc2NhcGU6Y29ubmVjdG9yLWN1cnZhdHVyZT0iMCIgc3R5bGU9ImZpbGw6I0ZGRkZGRjtmaWxsLW9wYWNpdHk6MC4yOyIgZD0iTTI4Ljg4LDIzLjcgICAgIGMtMC4wMSwwLTAuMDIsMC0wLjAzLDBjLTAuMjYtNC44OS00LjM3LTguNzgtOS40My04Ljc4Yy0zLjcsMC02Ljg5LDIuMDgtOC40NSw1LjExYy0wLjY0LTAuMTUtMS4zMi0wLjIzLTIuMDEtMC4yMyAgICAgQzQuMDEsMTkuOCwwLDIzLjczLDAsMjguNTdjMCw0Ljg1LDQuMDEsOC43OCw4Ljk2LDguNzhoMTkuOTJjMy44NSwwLDYuOTctMy4wNiw2Ljk3LTYuODNDMzUuODUsMjYuNzYsMzIuNzMsMjMuNywyOC44OCwyMy43eiIvPiYjeGE7CQk8L2c+JiN4YTsJCTxnIGlkPSJncm91cDU5NDAtNiIgdHJhbnNmb3JtPSJ0cmFuc2xhdGUoNikiPiYjeGE7CQkJPHRpdGxlIGlkPSJ0aXRsZTEwMTYxNiI+U2hlZXQuNTk0MDwvdGl0bGU+JiN4YTsJCQk8ZyBpZD0iZ3JvdXA1OTQxLTciPiYjeGE7CQkJCTx0aXRsZSBpZD0idGl0bGUxMDE2MTgiPlNoZWV0LjU5NDE8L3RpdGxlPiYjeGE7CQkJCTxnIGlkPSJzaGFwZTU5NDItOCIgdHJhbnNmb3JtPSJ0cmFuc2xhdGUoMC41NjI1LC0wLjU2MjUpIj4mI3hhOwkJCQkJPHRpdGxlIGlkPSJ0aXRsZTEwMTYyMCI+U2hlZXQuNTk0MjwvdGl0bGU+JiN4YTsJCQkJCTxwYXRoIGlkPSJwYXRoMTAxNjIyIiBpbmtzY2FwZTpjb25uZWN0b3ItY3VydmF0dXJlPSIwIiBzdHlsZT0iZmlsbDojRkZGRkZGOyIgZD0iTTEyLjExLDM3LjM1QzUuNDMsMzcuMzUsMCwzMS45MiwwLDI1LjI0ICAgICAgIHM1LjQzLTEyLjEyLDEyLjExLTEyLjEyczEyLjEyLDUuNDQsMTIuMTIsMTIuMTJTMTguNzksMzcuMzUsMTIuMTEsMzcuMzV6Ii8+JiN4YTsJCQkJPC9nPiYjeGE7CQkJCTxnIGlkPSJzaGFwZTU5NDMtMTAiPiYjeGE7CQkJCQk8dGl0bGUgaWQ9InRpdGxlMTAxNjI1Ij5TaGVldC41OTQzPC90aXRsZT4mI3hhOwkJCQkJPHBhdGggaWQ9InBhdGgxMDE2MjciIGlua3NjYXBlOmNvbm5lY3Rvci1jdXJ2YXR1cmU9IjAiIHN0eWxlPSJmaWxsOiM4MDQ5OTg7IiBkPSJNMTIuNjgsMTMuMTJjNi4zNiwwLDExLjU1LDUuMTksMTEuNTUsMTEuNTUgICAgICAgYzAsNi4zNy01LjE5LDExLjU1LTExLjU1LDExLjU1Yy02LjM3LDAtMTEuNTUtNS4xOC0xMS41NS0xMS41NUMxLjEzLDE4LjMxLDYuMzEsMTMuMTIsMTIuNjgsMTMuMTJ6IE0xMi42OCwxMiAgICAgICBDNS42NywxMiwwLDE3LjY3LDAsMjQuNjdjMCw3LjAxLDUuNjcsMTIuNjgsMTIuNjgsMTIuNjhjNywwLDEyLjY3LTUuNjcsMTIuNjctMTIuNjhDMjUuMzUsMTcuNjcsMTkuNjgsMTIsMTIuNjgsMTJ6Ii8+JiN4YTsJCQkJPC9nPiYjeGE7CQkJPC9nPiYjeGE7CQkJPGcgaWQ9InNoYXBlNTk0NC0xMiIgdHJhbnNmb3JtPSJyb3RhdGUoLTcwLjAwMTIsLTUuNTYyMTk2NSwyMS40NjM2MzkpIj4mI3hhOwkJCQk8dGl0bGUgaWQ9InRpdGxlMTAxNjMxIj5TaGVldC41OTQ0PC90aXRsZT4mI3hhOwkJCQk8Y2lyY2xlIGlkPSJlbGxpcHNlMTAxNjMzIiBzdHlsZT0iZmlsbDojODA0OTk4OyIgY3g9IjIuMzkiIGN5PSIzNC45NiIgcj0iMi4zOSIvPiYjeGE7CQkJPC9nPiYjeGE7CQkJPGcgaWQ9InNoYXBlNTk0NS0xNCIgdHJhbnNmb3JtPSJyb3RhdGUoLTcwLjAwMTIsNC4zNTk2MzYsMTcuOTAyNjc0KSI+JiN4YTsJCQkJPHRpdGxlIGlkPSJ0aXRsZTEwMTYzNiI+U2hlZXQuNTk0NTwvdGl0bGU+JiN4YTsJCQkJPGNpcmNsZSBpZD0iZWxsaXBzZTEwMTYzOCIgc3R5bGU9ImZpbGw6IzgwNDk5ODsiIGN4PSIyLjM5IiBjeT0iMzQuOTYiIHI9IjIuMzkiLz4mI3hhOwkJCTwvZz4mI3hhOwkJCTxnIGlkPSJzaGFwZTU5NDYtMTYiIHRyYW5zZm9ybT0icm90YXRlKC03MC4wMDEyLDEuNTIwNzM0OCwyOC4zNTU1OTEpIj4mI3hhOwkJCQk8dGl0bGUgaWQ9InRpdGxlMTAxNjQxIj5TaGVldC41OTQ2PC90aXRsZT4mI3hhOwkJCQk8Y2lyY2xlIGlkPSJlbGxpcHNlMTAxNjQzIiBzdHlsZT0iZmlsbDojODA0OTk4OyIgY3g9IjIuMzkiIGN5PSIzNC45NiIgcj0iMi4zOSIvPiYjeGE7CQkJPC9nPiYjeGE7CQkJPGcgaWQ9InNoYXBlNTk0Ny0xOCIgdHJhbnNmb3JtPSJ0cmFuc2xhdGUoMC44MTk3NSwtMS43NjU1KSI+JiN4YTsJCQkJPHRpdGxlIGlkPSJ0aXRsZTEwMTY0NiI+U2hlZXQuNTk0NzwvdGl0bGU+JiN4YTsJCQkJPHBhdGggaWQ9InBhdGgxMDE2NDgiIGlua3NjYXBlOmNvbm5lY3Rvci1jdXJ2YXR1cmU9IjAiIHN0eWxlPSJmaWxsOiM4MDQ5OTg7IiBkPSJNNi40NSwxOS4wN2MtMS45NiwwLTMuODUsMC40LTUuNjQsMS4yMSAgICAgIEMwLjUsMjAuODQsMC4yMywyMS40MSwwLDIyLjAyYzEuOTUtMS4xNyw0LjE3LTEuNzksNi40NS0xLjc5YzYuOTYsMCwxMi42Miw1LjY3LDEyLjYyLDEyLjYzYzAsMS41Mi0wLjI3LDMuMDEtMC44MSw0LjQzICAgICAgbC0wLjAyLDAuMDZjMC41My0wLjMyLDEuMDQtMC42NywxLjUyLTEuMDZjMC4yOC0xLjEsMC40Ny0yLjI5LDAuNDctMy40M0MyMC4yMywyNS4yNSwxNC4wNSwxOS4wNyw2LjQ1LDE5LjA3eiIvPiYjeGE7CQkJPC9nPiYjeGE7CQkJPGcgaWQ9InNoYXBlNTk0OC0yMCIgdHJhbnNmb3JtPSJ0cmFuc2xhdGUoNi44NDE1LC0wLjAxNDI1KSI+JiN4YTsJCQkJPHRpdGxlIGlkPSJ0aXRsZTEwMTY1MSI+U2hlZXQuNTk0ODwvdGl0bGU+JiN4YTsJCQkJPHBhdGggaWQ9InBhdGgxMDE2NTMiIGlua3NjYXBlOmNvbm5lY3Rvci1jdXJ2YXR1cmU9IjAiIHN0eWxlPSJmaWxsOiM4MDQ5OTg7IiBkPSJNMTEuMjksMTMuMzhjLTAuNTktMC4yOC0xLjItMC41Mi0xLjg0LTAuNzIgICAgICBDMy43OSwxNC41NCwwLDE5Ljc2LDAsMjUuNzVjMCw0LjcyLDIuMzcsOS4wNSw2LjM0LDExLjZjMC42Ny0wLjAzLDEuMzItMC4xMSwxLjk2LTAuMjRsLTAuMDYtMC4wMyAgICAgIGMtNC4zNi0yLjE1LTcuMDctNi40OS03LjA3LTExLjMzQzEuMTcsMTkuNzUsNS40MiwxNC41NywxMS4yOSwxMy4zOHoiLz4mI3hhOwkJCTwvZz4mI3hhOwkJCTxnIGlkPSJzaGFwZTU5NDktMjIiIHRyYW5zZm9ybT0idHJhbnNsYXRlKDQuNTQ1LC0yLjE4NTUpIj4mI3hhOwkJCQk8dGl0bGUgaWQ9InRpdGxlMTAxNjU2Ij5TaGVldC41OTQ5PC90aXRsZT4mI3hhOwkJCQk8cGF0aCBpZD0icGF0aDEwMTY1OCIgaW5rc2NhcGU6Y29ubmVjdG9yLWN1cnZhdHVyZT0iMCIgc3R5bGU9ImZpbGw6IzgwNDk5ODsiIGQ9Ik0yMC4yNywzMC4xOGMwLjExLTAuNDEsMC4yLTAuODQsMC4yNy0xLjI4ICAgICAgYy0yLjE2LTEuMy00LjYyLTEuOTktNy4xNC0xLjk5Yy02LDAtMTEuMzgsMy44LTEzLjM5LDkuNjJMMCwzNi41NmwwLjAzLDAuMDNjMC4yNywwLjIzLDAuNTYsMC40NSwwLjg1LDAuNjcgICAgICBjMC4wNSwwLjAzLDAuMDksMC4wNiwwLjEzLDAuMDlsMC4wMi0wLjA3YzEuNzUtNS41Myw2LjcyLTkuMTQsMTIuMzctOS4xNEMxNS44NSwyOC4xNCwxOC4yLDI4Ljg1LDIwLjI3LDMwLjE4eiIvPiYjeGE7CQkJPC9nPiYjeGE7CQk8L2c+JiN4YTsJPC9nPiYjeGE7PC9nPiYjeGE7PC9zdmc+;labelPosition=center;align=center;rounded=1;" parent="1" vertex="1">
          <mxGeometry x="-555" y="-1140" width="36" height="36" as="geometry" />
        </mxCell>
        <mxCell id="vbyWE2GeK1n_giPgyy7q-3" value="ALGAR" style="shape=image;verticalLabelPosition=top;labelBackgroundColor=#ffffff;verticalAlign=bottom;aspect=fixed;imageAspect=0;image=data:image/svg+xml,PHN2ZyB4bWxuczpjYz0iaHR0cDovL2NyZWF0aXZlY29tbW9ucy5vcmcvbnMjIiB4bWxuczpkYz0iaHR0cDovL3B1cmwub3JnL2RjL2VsZW1lbnRzLzEuMS8iIHhtbG5zOmlua3NjYXBlPSJodHRwOi8vd3d3Lmlua3NjYXBlLm9yZy9uYW1lc3BhY2VzL2lua3NjYXBlIiB4bWxuczpyZGY9Imh0dHA6Ly93d3cudzMub3JnLzE5OTkvMDIvMjItcmRmLXN5bnRheC1ucyMiIHhtbG5zOnNvZGlwb2RpPSJodHRwOi8vc29kaXBvZGkuc291cmNlZm9yZ2UubmV0L0RURC9zb2RpcG9kaS0wLmR0ZCIgeG1sbnM6c3ZnPSJodHRwOi8vd3d3LnczLm9yZy8yMDAwL3N2ZyIgeG1sbnM9Imh0dHA6Ly93d3cudzMub3JnLzIwMDAvc3ZnIiB4bWxuczp4bGluaz0iaHR0cDovL3d3dy53My5vcmcvMTk5OS94bGluayIgdmVyc2lvbj0iMS4xIiBpZD0ic3ZnMTAxNjY1IiBpbmtzY2FwZTp2ZXJzaW9uPSIwLjkyLjMgKDI0MDU1NDYsIDIwMTgtMDMtMTEpIiBzb2RpcG9kaTpkb2NuYW1lPSJ2aXJ0dWFsX3dhbi5zdmciIHg9IjBweCIgeT0iMHB4IiB2aWV3Qm94PSIwIDAgMzUuODUgMzUuODYiIHN0eWxlPSJlbmFibGUtYmFja2dyb3VuZDpuZXcgMCAwIDM1Ljg1IDM1Ljg2OyIgeG1sOnNwYWNlPSJwcmVzZXJ2ZSI+JiN4YTs8c29kaXBvZGk6bmFtZWR2aWV3IGJvcmRlcmNvbG9yPSIjNjY2NjY2IiBib3JkZXJvcGFjaXR5PSIxIiBmaXQtbWFyZ2luLWJvdHRvbT0iMCIgZml0LW1hcmdpbi1sZWZ0PSIwIiBmaXQtbWFyZ2luLXJpZ2h0PSIwIiBmaXQtbWFyZ2luLXRvcD0iMCIgZ3JpZHRvbGVyYW5jZT0iMTAiIGd1aWRldG9sZXJhbmNlPSIxMCIgaWQ9Im5hbWVkdmlldzEwMTY2NyIgaW5rc2NhcGU6Y3VycmVudC1sYXllcj0ic3ZnMTAxNjY1IiBpbmtzY2FwZTpjeD0iNC44OTUzNjM0IiBpbmtzY2FwZTpjeT0iMTcuMTcwMDE4IiBpbmtzY2FwZTpwYWdlb3BhY2l0eT0iMCIgaW5rc2NhcGU6cGFnZXNoYWRvdz0iMiIgaW5rc2NhcGU6d2luZG93LWhlaWdodD0iMTAxNyIgaW5rc2NhcGU6d2luZG93LW1heGltaXplZD0iMSIgaW5rc2NhcGU6d2luZG93LXdpZHRoPSIxOTIwIiBpbmtzY2FwZTp3aW5kb3cteD0iLTgiIGlua3NjYXBlOndpbmRvdy15PSItOCIgaW5rc2NhcGU6em9vbT0iOC43MDQ4MTkxIiBvYmplY3R0b2xlcmFuY2U9IjEwIiBwYWdlY29sb3I9IiNmZmZmZmYiIHNob3dncmlkPSJmYWxzZSI+JiN4YTsJPC9zb2RpcG9kaTpuYW1lZHZpZXc+JiN4YTs8ZyBpZD0iZzEwMTY2MyIgdHJhbnNmb3JtPSJ0cmFuc2xhdGUoLTAuNzUsLTAuNzQ1KSI+JiN4YTsJPHRpdGxlIGlkPSJ0aXRsZTEwMTYwMiI+UGFnZS0xPC90aXRsZT4mI3hhOwk8ZyBpZD0iZ3JvdXA1OTM3LTEiIHRyYW5zZm9ybT0idHJhbnNsYXRlKDAuNzUsLTAuNzUpIj4mI3hhOwkJPHRpdGxlIGlkPSJ0aXRsZTEwMTYwNCI+VmlydHVhbCBXQU48L3RpdGxlPiYjeGE7CQk8ZyBpZD0ic2hhcGU1OTM4LTIiIHRyYW5zZm9ybT0idHJhbnNsYXRlKDAsLTEzLjQyNSkiPiYjeGE7CQkJPHRpdGxlIGlkPSJ0aXRsZTEwMTYwNiI+U2hlZXQuNTkzODwvdGl0bGU+JiN4YTsJCQk8cGF0aCBpZD0icGF0aDEwMTYwOCIgaW5rc2NhcGU6Y29ubmVjdG9yLWN1cnZhdHVyZT0iMCIgc3R5bGU9ImZpbGw6IzU5QjREOTsiIGQ9Ik0yOC44OCwyMy43Yy0wLjAxLDAtMC4wMiwwLTAuMDMsMCAgICAgYy0wLjI2LTQuODktNC4zNy04Ljc4LTkuNDMtOC43OGMtMy43LDAtNi44OSwyLjA4LTguNDUsNS4xMWMtMC42NC0wLjE1LTEuMzItMC4yMy0yLjAxLTAuMjNDNC4wMSwxOS44LDAsMjMuNzMsMCwyOC41NyAgICAgYzAsNC44NSw0LjAxLDguNzgsOC45Niw4Ljc4aDE5LjkyYzMuODUsMCw2Ljk3LTMuMDYsNi45Ny02LjgzQzM1Ljg1LDI2Ljc2LDMyLjczLDIzLjcsMjguODgsMjMuN3oiLz4mI3hhOwkJPC9nPiYjeGE7CQk8ZyBpZD0ic2hhcGU1OTM5LTQiIHRyYW5zZm9ybT0idHJhbnNsYXRlKDAsLTEzLjQyNSkiPiYjeGE7CQkJPHRpdGxlIGlkPSJ0aXRsZTEwMTYxMSI+U2hlZXQuNTkzOTwvdGl0bGU+JiN4YTsJCQk8cGF0aCBpZD0icGF0aDEwMTYxMyIgaW5rc2NhcGU6Y29ubmVjdG9yLWN1cnZhdHVyZT0iMCIgc3R5bGU9ImZpbGw6I0ZGRkZGRjtmaWxsLW9wYWNpdHk6MC4yOyIgZD0iTTI4Ljg4LDIzLjcgICAgIGMtMC4wMSwwLTAuMDIsMC0wLjAzLDBjLTAuMjYtNC44OS00LjM3LTguNzgtOS40My04Ljc4Yy0zLjcsMC02Ljg5LDIuMDgtOC40NSw1LjExYy0wLjY0LTAuMTUtMS4zMi0wLjIzLTIuMDEtMC4yMyAgICAgQzQuMDEsMTkuOCwwLDIzLjczLDAsMjguNTdjMCw0Ljg1LDQuMDEsOC43OCw4Ljk2LDguNzhoMTkuOTJjMy44NSwwLDYuOTctMy4wNiw2Ljk3LTYuODNDMzUuODUsMjYuNzYsMzIuNzMsMjMuNywyOC44OCwyMy43eiIvPiYjeGE7CQk8L2c+JiN4YTsJCTxnIGlkPSJncm91cDU5NDAtNiIgdHJhbnNmb3JtPSJ0cmFuc2xhdGUoNikiPiYjeGE7CQkJPHRpdGxlIGlkPSJ0aXRsZTEwMTYxNiI+U2hlZXQuNTk0MDwvdGl0bGU+JiN4YTsJCQk8ZyBpZD0iZ3JvdXA1OTQxLTciPiYjeGE7CQkJCTx0aXRsZSBpZD0idGl0bGUxMDE2MTgiPlNoZWV0LjU5NDE8L3RpdGxlPiYjeGE7CQkJCTxnIGlkPSJzaGFwZTU5NDItOCIgdHJhbnNmb3JtPSJ0cmFuc2xhdGUoMC41NjI1LC0wLjU2MjUpIj4mI3hhOwkJCQkJPHRpdGxlIGlkPSJ0aXRsZTEwMTYyMCI+U2hlZXQuNTk0MjwvdGl0bGU+JiN4YTsJCQkJCTxwYXRoIGlkPSJwYXRoMTAxNjIyIiBpbmtzY2FwZTpjb25uZWN0b3ItY3VydmF0dXJlPSIwIiBzdHlsZT0iZmlsbDojRkZGRkZGOyIgZD0iTTEyLjExLDM3LjM1QzUuNDMsMzcuMzUsMCwzMS45MiwwLDI1LjI0ICAgICAgIHM1LjQzLTEyLjEyLDEyLjExLTEyLjEyczEyLjEyLDUuNDQsMTIuMTIsMTIuMTJTMTguNzksMzcuMzUsMTIuMTEsMzcuMzV6Ii8+JiN4YTsJCQkJPC9nPiYjeGE7CQkJCTxnIGlkPSJzaGFwZTU5NDMtMTAiPiYjeGE7CQkJCQk8dGl0bGUgaWQ9InRpdGxlMTAxNjI1Ij5TaGVldC41OTQzPC90aXRsZT4mI3hhOwkJCQkJPHBhdGggaWQ9InBhdGgxMDE2MjciIGlua3NjYXBlOmNvbm5lY3Rvci1jdXJ2YXR1cmU9IjAiIHN0eWxlPSJmaWxsOiM4MDQ5OTg7IiBkPSJNMTIuNjgsMTMuMTJjNi4zNiwwLDExLjU1LDUuMTksMTEuNTUsMTEuNTUgICAgICAgYzAsNi4zNy01LjE5LDExLjU1LTExLjU1LDExLjU1Yy02LjM3LDAtMTEuNTUtNS4xOC0xMS41NS0xMS41NUMxLjEzLDE4LjMxLDYuMzEsMTMuMTIsMTIuNjgsMTMuMTJ6IE0xMi42OCwxMiAgICAgICBDNS42NywxMiwwLDE3LjY3LDAsMjQuNjdjMCw3LjAxLDUuNjcsMTIuNjgsMTIuNjgsMTIuNjhjNywwLDEyLjY3LTUuNjcsMTIuNjctMTIuNjhDMjUuMzUsMTcuNjcsMTkuNjgsMTIsMTIuNjgsMTJ6Ii8+JiN4YTsJCQkJPC9nPiYjeGE7CQkJPC9nPiYjeGE7CQkJPGcgaWQ9InNoYXBlNTk0NC0xMiIgdHJhbnNmb3JtPSJyb3RhdGUoLTcwLjAwMTIsLTUuNTYyMTk2NSwyMS40NjM2MzkpIj4mI3hhOwkJCQk8dGl0bGUgaWQ9InRpdGxlMTAxNjMxIj5TaGVldC41OTQ0PC90aXRsZT4mI3hhOwkJCQk8Y2lyY2xlIGlkPSJlbGxpcHNlMTAxNjMzIiBzdHlsZT0iZmlsbDojODA0OTk4OyIgY3g9IjIuMzkiIGN5PSIzNC45NiIgcj0iMi4zOSIvPiYjeGE7CQkJPC9nPiYjeGE7CQkJPGcgaWQ9InNoYXBlNTk0NS0xNCIgdHJhbnNmb3JtPSJyb3RhdGUoLTcwLjAwMTIsNC4zNTk2MzYsMTcuOTAyNjc0KSI+JiN4YTsJCQkJPHRpdGxlIGlkPSJ0aXRsZTEwMTYzNiI+U2hlZXQuNTk0NTwvdGl0bGU+JiN4YTsJCQkJPGNpcmNsZSBpZD0iZWxsaXBzZTEwMTYzOCIgc3R5bGU9ImZpbGw6IzgwNDk5ODsiIGN4PSIyLjM5IiBjeT0iMzQuOTYiIHI9IjIuMzkiLz4mI3hhOwkJCTwvZz4mI3hhOwkJCTxnIGlkPSJzaGFwZTU5NDYtMTYiIHRyYW5zZm9ybT0icm90YXRlKC03MC4wMDEyLDEuNTIwNzM0OCwyOC4zNTU1OTEpIj4mI3hhOwkJCQk8dGl0bGUgaWQ9InRpdGxlMTAxNjQxIj5TaGVldC41OTQ2PC90aXRsZT4mI3hhOwkJCQk8Y2lyY2xlIGlkPSJlbGxpcHNlMTAxNjQzIiBzdHlsZT0iZmlsbDojODA0OTk4OyIgY3g9IjIuMzkiIGN5PSIzNC45NiIgcj0iMi4zOSIvPiYjeGE7CQkJPC9nPiYjeGE7CQkJPGcgaWQ9InNoYXBlNTk0Ny0xOCIgdHJhbnNmb3JtPSJ0cmFuc2xhdGUoMC44MTk3NSwtMS43NjU1KSI+JiN4YTsJCQkJPHRpdGxlIGlkPSJ0aXRsZTEwMTY0NiI+U2hlZXQuNTk0NzwvdGl0bGU+JiN4YTsJCQkJPHBhdGggaWQ9InBhdGgxMDE2NDgiIGlua3NjYXBlOmNvbm5lY3Rvci1jdXJ2YXR1cmU9IjAiIHN0eWxlPSJmaWxsOiM4MDQ5OTg7IiBkPSJNNi40NSwxOS4wN2MtMS45NiwwLTMuODUsMC40LTUuNjQsMS4yMSAgICAgIEMwLjUsMjAuODQsMC4yMywyMS40MSwwLDIyLjAyYzEuOTUtMS4xNyw0LjE3LTEuNzksNi40NS0xLjc5YzYuOTYsMCwxMi42Miw1LjY3LDEyLjYyLDEyLjYzYzAsMS41Mi0wLjI3LDMuMDEtMC44MSw0LjQzICAgICAgbC0wLjAyLDAuMDZjMC41My0wLjMyLDEuMDQtMC42NywxLjUyLTEuMDZjMC4yOC0xLjEsMC40Ny0yLjI5LDAuNDctMy40M0MyMC4yMywyNS4yNSwxNC4wNSwxOS4wNyw2LjQ1LDE5LjA3eiIvPiYjeGE7CQkJPC9nPiYjeGE7CQkJPGcgaWQ9InNoYXBlNTk0OC0yMCIgdHJhbnNmb3JtPSJ0cmFuc2xhdGUoNi44NDE1LC0wLjAxNDI1KSI+JiN4YTsJCQkJPHRpdGxlIGlkPSJ0aXRsZTEwMTY1MSI+U2hlZXQuNTk0ODwvdGl0bGU+JiN4YTsJCQkJPHBhdGggaWQ9InBhdGgxMDE2NTMiIGlua3NjYXBlOmNvbm5lY3Rvci1jdXJ2YXR1cmU9IjAiIHN0eWxlPSJmaWxsOiM4MDQ5OTg7IiBkPSJNMTEuMjksMTMuMzhjLTAuNTktMC4yOC0xLjItMC41Mi0xLjg0LTAuNzIgICAgICBDMy43OSwxNC41NCwwLDE5Ljc2LDAsMjUuNzVjMCw0LjcyLDIuMzcsOS4wNSw2LjM0LDExLjZjMC42Ny0wLjAzLDEuMzItMC4xMSwxLjk2LTAuMjRsLTAuMDYtMC4wMyAgICAgIGMtNC4zNi0yLjE1LTcuMDctNi40OS03LjA3LTExLjMzQzEuMTcsMTkuNzUsNS40MiwxNC41NywxMS4yOSwxMy4zOHoiLz4mI3hhOwkJCTwvZz4mI3hhOwkJCTxnIGlkPSJzaGFwZTU5NDktMjIiIHRyYW5zZm9ybT0idHJhbnNsYXRlKDQuNTQ1LC0yLjE4NTUpIj4mI3hhOwkJCQk8dGl0bGUgaWQ9InRpdGxlMTAxNjU2Ij5TaGVldC41OTQ5PC90aXRsZT4mI3hhOwkJCQk8cGF0aCBpZD0icGF0aDEwMTY1OCIgaW5rc2NhcGU6Y29ubmVjdG9yLWN1cnZhdHVyZT0iMCIgc3R5bGU9ImZpbGw6IzgwNDk5ODsiIGQ9Ik0yMC4yNywzMC4xOGMwLjExLTAuNDEsMC4yLTAuODQsMC4yNy0xLjI4ICAgICAgYy0yLjE2LTEuMy00LjYyLTEuOTktNy4xNC0xLjk5Yy02LDAtMTEuMzgsMy44LTEzLjM5LDkuNjJMMCwzNi41NmwwLjAzLDAuMDNjMC4yNywwLjIzLDAuNTYsMC40NSwwLjg1LDAuNjcgICAgICBjMC4wNSwwLjAzLDAuMDksMC4wNiwwLjEzLDAuMDlsMC4wMi0wLjA3YzEuNzUtNS41Myw2LjcyLTkuMTQsMTIuMzctOS4xNEMxNS44NSwyOC4xNCwxOC4yLDI4Ljg1LDIwLjI3LDMwLjE4eiIvPiYjeGE7CQkJPC9nPiYjeGE7CQk8L2c+JiN4YTsJPC9nPiYjeGE7PC9nPiYjeGE7PC9zdmc+;labelPosition=center;align=center;rounded=1;" parent="1" vertex="1">
          <mxGeometry x="-330" y="-1140" width="36" height="36" as="geometry" />
        </mxCell>
        <mxCell id="vbyWE2GeK1n_giPgyy7q-30" style="edgeStyle=orthogonalEdgeStyle;shape=link;rounded=1;orthogonalLoop=1;jettySize=auto;html=1;" parent="1" source="vbyWE2GeK1n_giPgyy7q-4" target="vbyWE2GeK1n_giPgyy7q-22" edge="1">
          <mxGeometry relative="1" as="geometry">
            <mxPoint x="-640" y="-1010" as="sourcePoint" />
            <Array as="points">
              <mxPoint x="-640" y="-1010" />
              <mxPoint x="-537" y="-1010" />
            </Array>
          </mxGeometry>
        </mxCell>
        <mxCell id="vbyWE2GeK1n_giPgyy7q-31" value="192.168.25.1" style="edgeLabel;html=1;align=center;verticalAlign=middle;resizable=0;points=[];fillColor=none;gradientColor=none;rounded=1;" parent="vbyWE2GeK1n_giPgyy7q-30" vertex="1" connectable="0">
          <mxGeometry x="-0.1691" relative="1" as="geometry">
            <mxPoint x="-28" y="10" as="offset" />
          </mxGeometry>
        </mxCell>
        <mxCell id="vbyWE2GeK1n_giPgyy7q-43" style="edgeStyle=orthogonalEdgeStyle;shape=link;rounded=1;orthogonalLoop=1;jettySize=auto;html=1;" parent="1" source="vbyWE2GeK1n_giPgyy7q-4" target="vbyWE2GeK1n_giPgyy7q-15" edge="1">
          <mxGeometry relative="1" as="geometry" />
        </mxCell>
        <mxCell id="vbyWE2GeK1n_giPgyy7q-44" value="&lt;span style=&quot;color: rgb(57, 62, 70); font-family: Arial, sans-serif; font-size: 12px; text-align: start; white-space-collapse: preserve; background-color: rgb(255, 255, 255);&quot;&gt;1/0/47&lt;/span&gt;" style="edgeLabel;html=1;align=center;verticalAlign=middle;resizable=0;points=[];rounded=1;" parent="vbyWE2GeK1n_giPgyy7q-43" vertex="1" connectable="0">
          <mxGeometry x="-0.3855" y="1" relative="1" as="geometry">
            <mxPoint x="-10" y="1" as="offset" />
          </mxGeometry>
        </mxCell>
        <mxCell id="vbyWE2GeK1n_giPgyy7q-4" value="10.6.0.28:7070" style="shape=image;verticalLabelPosition=bottom;labelBackgroundColor=#ffffff;verticalAlign=top;aspect=fixed;imageAspect=0;image=data:image/svg+xml,PHN2ZyB4bWxuczpjYz0iaHR0cDovL2NyZWF0aXZlY29tbW9ucy5vcmcvbnMjIiB4bWxuczpkYz0iaHR0cDovL3B1cmwub3JnL2RjL2VsZW1lbnRzLzEuMS8iIHhtbG5zOmlua3NjYXBlPSJodHRwOi8vd3d3Lmlua3NjYXBlLm9yZy9uYW1lc3BhY2VzL2lua3NjYXBlIiB4bWxuczpyZGY9Imh0dHA6Ly93d3cudzMub3JnLzE5OTkvMDIvMjItcmRmLXN5bnRheC1ucyMiIHhtbG5zOnNvZGlwb2RpPSJodHRwOi8vc29kaXBvZGkuc291cmNlZm9yZ2UubmV0L0RURC9zb2RpcG9kaS0wLmR0ZCIgeG1sbnM6c3ZnPSJodHRwOi8vd3d3LnczLm9yZy8yMDAwL3N2ZyIgeG1sbnM9Imh0dHA6Ly93d3cudzMub3JnLzIwMDAvc3ZnIiB4bWxuczp4bGluaz0iaHR0cDovL3d3dy53My5vcmcvMTk5OS94bGluayIgdmVyc2lvbj0iMS4xIiBpZD0ic3ZnNTg0NTUiIGlua3NjYXBlOnZlcnNpb249IjAuOTIuMyAoMjQwNTU0NiwgMjAxOC0wMy0xMSkiIHNvZGlwb2RpOmRvY25hbWU9ImF6dXJlX2ZpcmV3YWxsLnN2ZyIgeD0iMHB4IiB5PSIwcHgiIHZpZXdCb3g9IjAgMCAzNy40MiAzNy40MyIgc3R5bGU9ImVuYWJsZS1iYWNrZ3JvdW5kOm5ldyAwIDAgMzcuNDIgMzcuNDM7IiB4bWw6c3BhY2U9InByZXNlcnZlIj4mI3hhOzxzb2RpcG9kaTpuYW1lZHZpZXcgYm9yZGVyY29sb3I9IiM2NjY2NjYiIGJvcmRlcm9wYWNpdHk9IjEiIGZpdC1tYXJnaW4tYm90dG9tPSIwIiBmaXQtbWFyZ2luLWxlZnQ9IjAiIGZpdC1tYXJnaW4tcmlnaHQ9IjAiIGZpdC1tYXJnaW4tdG9wPSIwIiBncmlkdG9sZXJhbmNlPSIxMCIgZ3VpZGV0b2xlcmFuY2U9IjEwIiBpZD0ibmFtZWR2aWV3NTg0NTciIGlua3NjYXBlOmN1cnJlbnQtbGF5ZXI9InN2ZzU4NDU1IiBpbmtzY2FwZTpjeD0iMzQuMTg2MzE2IiBpbmtzY2FwZTpjeT0iMTguNzQ1Mzk3IiBpbmtzY2FwZTpwYWdlb3BhY2l0eT0iMCIgaW5rc2NhcGU6cGFnZXNoYWRvdz0iMiIgaW5rc2NhcGU6d2luZG93LWhlaWdodD0iMTAxNyIgaW5rc2NhcGU6d2luZG93LW1heGltaXplZD0iMSIgaW5rc2NhcGU6d2luZG93LXdpZHRoPSIxOTIwIiBpbmtzY2FwZTp3aW5kb3cteD0iLTgiIGlua3NjYXBlOndpbmRvdy15PSItOCIgaW5rc2NhcGU6em9vbT0iMTEuODEyMzYyIiBvYmplY3R0b2xlcmFuY2U9IjEwIiBwYWdlY29sb3I9IiNmZmZmZmYiIHNob3dncmlkPSJmYWxzZSI+JiN4YTsJPC9zb2RpcG9kaTpuYW1lZHZpZXc+JiN4YTs8ZyBpZD0iZzU4NDUzIiB0cmFuc2Zvcm09InRyYW5zbGF0ZSgtMC43NSwtMC43NTA3KSI+JiN4YTsJPHRpdGxlIGlkPSJ0aXRsZTU4Mjg0Ij5QYWdlLTE8L3RpdGxlPiYjeGE7CTxnIGlkPSJncm91cDU5NTAtMSIgdHJhbnNmb3JtPSJ0cmFuc2xhdGUoMC43NSwtMC43NSkiPiYjeGE7CQk8dGl0bGUgaWQ9InRpdGxlNTgyODYiPkF6dXJlIEZpcmV3YWxsPC90aXRsZT4mI3hhOwkJPGcgaWQ9InNoYXBlNTk1MS0yIiB0cmFuc2Zvcm09InRyYW5zbGF0ZSg3LjU3NSwtMTQuMjQ5MykiPiYjeGE7CQkJPHRpdGxlIGlkPSJ0aXRsZTU4Mjg4Ij5TaGVldC41OTUxPC90aXRsZT4mI3hhOwkJCTxwYXRoIGlkPSJwYXRoNTgyOTAiIGlua3NjYXBlOmNvbm5lY3Rvci1jdXJ2YXR1cmU9IjAiIHN0eWxlPSJmaWxsOiM1OUI0RDk7IiBkPSJNNy4wOSwyMy4yOGMwLjY5LTQuMjcsNC4zNy03LjUzLDguODItNy41MyAgICAgYzQuOTQsMCw4Ljk1LDQuMDIsOC45NSw4Ljk4YzAsMC41OC0wLjA2LDEuMTQtMC4xNywxLjY5YzIuOSwwLjMyLDUuMTYsMi45OCw1LjE2LDYuMjJjMCwzLjQ1LTIuNTksNi4yOS01Ljc2LDYuMjkgICAgIGMtMC43MSwwLTE2LjQ2LDAtMTYuNDYsMEMzLjQzLDM4LjkyLDAsMzUuMzEsMCwzMC45N0MwLDI2LjkxLDMuMTIsMjMuNiw3LjA5LDIzLjI4eiIvPiYjeGE7CQk8L2c+JiN4YTsJCTxnIGlkPSJncm91cDU5NTItNCI+JiN4YTsJCQk8dGl0bGUgaWQ9InRpdGxlNTgyOTMiPlNoZWV0LjU5NTI8L3RpdGxlPiYjeGE7CQkJPGcgaWQ9Imdyb3VwNTk1My01IiB0cmFuc2Zvcm09InRyYW5zbGF0ZSg5Ljc1LC0xNS43NSkiPiYjeGE7CQkJCTx0aXRsZSBpZD0idGl0bGU1ODI5NSI+U2hlZXQuNTk1MzwvdGl0bGU+JiN4YTsJCQkJPGcgaWQ9InNoYXBlNTk1NC02IiB0cmFuc2Zvcm09InRyYW5zbGF0ZSgwLjc1LC0wLjc1KSI+JiN4YTsJCQkJCTx0aXRsZSBpZD0idGl0bGU1ODI5NyI+U2hlZXQuNTk1NDwvdGl0bGU+JiN4YTsJCQkJCTxwYXRoIGlkPSJwYXRoNTgyOTkiIGlua3NjYXBlOmNvbm5lY3Rvci1jdXJ2YXR1cmU9IjAiIHN0eWxlPSJmaWxsOiNERDU5MDA7IiBkPSJNMC43NSwzOC45M0MwLjM0LDM4LjkzLDAsMzguNTksMCwzOC4xOHYtMy43NiAgICAgICBjMC0wLjQxLDAuMzQtMC43NSwwLjc1LTAuNzVIOWMwLjQxLDAsMC43NSwwLjM0LDAuNzUsMC43NXYzLjc2YzAsMC40MS0wLjM0LDAuNzUtMC43NSwwLjc1TDAuNzUsMzguOTN6Ii8+JiN4YTsJCQkJPC9nPiYjeGE7CQkJCTxnIGlkPSJzaGFwZTU5NTUtOCI+JiN4YTsJCQkJCTx0aXRsZSBpZD0idGl0bGU1ODMwMiI+U2hlZXQuNTk1NTwvdGl0bGU+JiN4YTsJCQkJCTxwYXRoIGlkPSJwYXRoNTgzMDQiIGlua3NjYXBlOmNvbm5lY3Rvci1jdXJ2YXR1cmU9IjAiIHN0eWxlPSJmaWxsOiNBMEExQTI7IiBkPSJNOS43NSwzMy42N3YzLjc2SDEuNXYtMy43Nkg5Ljc1eiBNOS43NSwzMi4xNyAgICAgICBIMS41Yy0wLjgzLDAtMS41LDAuNjgtMS41LDEuNXYzLjc2YzAsMC44MiwwLjY3LDEuNSwxLjUsMS41aDguMjVjMC44MywwLDEuNS0wLjY4LDEuNS0xLjV2LTMuNzYgICAgICAgQzExLjI1LDMyLjg1LDEwLjU4LDMyLjE3LDkuNzUsMzIuMTd6Ii8+JiN4YTsJCQkJPC9nPiYjeGE7CQkJPC9nPiYjeGE7CQkJPGcgaWQ9Imdyb3VwNTk1Ni0xMCIgdHJhbnNmb3JtPSJ0cmFuc2xhdGUoMTkuNSwtMTUuNzUpIj4mI3hhOwkJCQk8dGl0bGUgaWQ9InRpdGxlNTgzMDgiPlNoZWV0LjU5NTY8L3RpdGxlPiYjeGE7CQkJCTxnIGlkPSJzaGFwZTU5NTctMTEiIHRyYW5zZm9ybT0idHJhbnNsYXRlKDAuNzUsLTAuNzUpIj4mI3hhOwkJCQkJPHRpdGxlIGlkPSJ0aXRsZTU4MzEwIj5TaGVldC41OTU3PC90aXRsZT4mI3hhOwkJCQkJPHBhdGggaWQ9InBhdGg1ODMxMiIgaW5rc2NhcGU6Y29ubmVjdG9yLWN1cnZhdHVyZT0iMCIgc3R5bGU9ImZpbGw6I0JBMTQxQTsiIGQ9Ik0wLjc1LDM4LjkzQzAuMzQsMzguOTMsMCwzOC41OSwwLDM4LjE4di0zLjc2ICAgICAgIGMwLTAuNDEsMC4zNC0wLjc1LDAuNzUtMC43NUg5YzAuNDEsMCwwLjc1LDAuMzQsMC43NSwwLjc1djMuNzZjMCwwLjQxLTAuMzQsMC43NS0wLjc1LDAuNzVMMC43NSwzOC45M3oiLz4mI3hhOwkJCQk8L2c+JiN4YTsJCQkJPGcgaWQ9InNoYXBlNTk1OC0xMyI+JiN4YTsJCQkJCTx0aXRsZSBpZD0idGl0bGU1ODMxNSI+U2hlZXQuNTk1ODwvdGl0bGU+JiN4YTsJCQkJCTxwYXRoIGlkPSJwYXRoNTgzMTciIGlua3NjYXBlOmNvbm5lY3Rvci1jdXJ2YXR1cmU9IjAiIHN0eWxlPSJmaWxsOiNBMEExQTI7IiBkPSJNOS43NSwzMy42N3YzLjc2SDEuNXYtMy43Nkg5Ljc1eiBNOS43NSwzMi4xNyAgICAgICBIMS41Yy0wLjgzLDAtMS41LDAuNjgtMS41LDEuNXYzLjc2YzAsMC44MiwwLjY3LDEuNSwxLjUsMS41aDguMjVjMC44MywwLDEuNS0wLjY4LDEuNS0xLjV2LTMuNzYgICAgICAgQzExLjI1LDMyLjg1LDEwLjU4LDMyLjE3LDkuNzUsMzIuMTd6Ii8+JiN4YTsJCQkJPC9nPiYjeGE7CQkJPC9nPiYjeGE7CQkJPGcgaWQ9Imdyb3VwNTk1OS0xNSIgdHJhbnNmb3JtPSJ0cmFuc2xhdGUoMCwtMTUuNzUpIj4mI3hhOwkJCQk8dGl0bGUgaWQ9InRpdGxlNTgzMjEiPlNoZWV0LjU5NTk8L3RpdGxlPiYjeGE7CQkJCTxnIGlkPSJzaGFwZTU5NjAtMTYiIHRyYW5zZm9ybT0idHJhbnNsYXRlKDAuNzUsLTAuNzUpIj4mI3hhOwkJCQkJPHRpdGxlIGlkPSJ0aXRsZTU4MzIzIj5TaGVldC41OTYwPC90aXRsZT4mI3hhOwkJCQkJPHBhdGggaWQ9InBhdGg1ODMyNSIgaW5rc2NhcGU6Y29ubmVjdG9yLWN1cnZhdHVyZT0iMCIgc3R5bGU9ImZpbGw6I0JBMTQxQTsiIGQ9Ik0wLjc1LDM4LjkzQzAuMzQsMzguOTMsMCwzOC41OSwwLDM4LjE4di0zLjc2ICAgICAgIGMwLTAuNDEsMC4zNC0wLjc1LDAuNzUtMC43NUg5YzAuNDEsMCwwLjc1LDAuMzQsMC43NSwwLjc1djMuNzZjMCwwLjQxLTAuMzQsMC43NS0wLjc1LDAuNzVMMC43NSwzOC45M3oiLz4mI3hhOwkJCQk8L2c+JiN4YTsJCQkJPGcgaWQ9InNoYXBlNTk2MS0xOCI+JiN4YTsJCQkJCTx0aXRsZSBpZD0idGl0bGU1ODMyOCI+U2hlZXQuNTk2MTwvdGl0bGU+JiN4YTsJCQkJCTxwYXRoIGlkPSJwYXRoNTgzMzAiIGlua3NjYXBlOmNvbm5lY3Rvci1jdXJ2YXR1cmU9IjAiIHN0eWxlPSJmaWxsOiNBMEExQTI7IiBkPSJNOS43NSwzMy42N3YzLjc2SDEuNXYtMy43Nkg5Ljc1eiBNOS43NSwzMi4xNyAgICAgICBIMS41Yy0wLjgzLDAtMS41LDAuNjgtMS41LDEuNXYzLjc2YzAsMC44MiwwLjY3LDEuNSwxLjUsMS41aDguMjVjMC44MywwLDEuNS0wLjY4LDEuNS0xLjV2LTMuNzYgICAgICAgQzExLjI1LDMyLjg1LDEwLjU4LDMyLjE3LDkuNzUsMzIuMTd6Ii8+JiN4YTsJCQkJPC9nPiYjeGE7CQkJPC9nPiYjeGE7CQkJPGcgaWQ9Imdyb3VwNTk2Mi0yMCIgdHJhbnNmb3JtPSJ0cmFuc2xhdGUoOS43NSwtMTAuNSkiPiYjeGE7CQkJCTx0aXRsZSBpZD0idGl0bGU1ODMzNCI+U2hlZXQuNTk2MjwvdGl0bGU+JiN4YTsJCQkJPGcgaWQ9InNoYXBlNTk2My0yMSIgdHJhbnNmb3JtPSJ0cmFuc2xhdGUoMC43NSwtMC43NSkiPiYjeGE7CQkJCQk8dGl0bGUgaWQ9InRpdGxlNTgzMzYiPlNoZWV0LjU5NjM8L3RpdGxlPiYjeGE7CQkJCQk8cGF0aCBpZD0icGF0aDU4MzM4IiBpbmtzY2FwZTpjb25uZWN0b3ItY3VydmF0dXJlPSIwIiBzdHlsZT0iZmlsbDojQkExNDFBOyIgZD0iTTAuNzUsMzguOTNDMC4zNCwzOC45MywwLDM4LjU5LDAsMzguMTh2LTMuNzYgICAgICAgYzAtMC40MSwwLjM0LTAuNzUsMC43NS0wLjc1SDljMC40MSwwLDAuNzUsMC4zNCwwLjc1LDAuNzV2My43NmMwLDAuNDEtMC4zNCwwLjc1LTAuNzUsMC43NUwwLjc1LDM4LjkzeiIvPiYjeGE7CQkJCTwvZz4mI3hhOwkJCQk8ZyBpZD0ic2hhcGU1OTY0LTIzIj4mI3hhOwkJCQkJPHRpdGxlIGlkPSJ0aXRsZTU4MzQxIj5TaGVldC41OTY0PC90aXRsZT4mI3hhOwkJCQkJPHBhdGggaWQ9InBhdGg1ODM0MyIgaW5rc2NhcGU6Y29ubmVjdG9yLWN1cnZhdHVyZT0iMCIgc3R5bGU9ImZpbGw6I0EwQTFBMjsiIGQ9Ik05Ljc1LDMzLjY3djMuNzZIMS41di0zLjc2SDkuNzV6IE05Ljc1LDMyLjE3ICAgICAgIEgxLjVjLTAuODMsMC0xLjUsMC42OC0xLjUsMS41djMuNzZjMCwwLjgyLDAuNjcsMS41LDEuNSwxLjVoOC4yNWMwLjgzLDAsMS41LTAuNjgsMS41LTEuNXYtMy43NiAgICAgICBDMTEuMjUsMzIuODUsMTAuNTgsMzIuMTcsOS43NSwzMi4xN3oiLz4mI3hhOwkJCQk8L2c+JiN4YTsJCQk8L2c+JiN4YTsJCQk8ZyBpZD0iZ3JvdXA1OTY1LTI1IiB0cmFuc2Zvcm09InRyYW5zbGF0ZSgwLC01LjI1KSI+JiN4YTsJCQkJPHRpdGxlIGlkPSJ0aXRsZTU4MzQ3Ij5TaGVldC41OTY1PC90aXRsZT4mI3hhOwkJCQk8ZyBpZD0ic2hhcGU1OTY2LTI2IiB0cmFuc2Zvcm09InRyYW5zbGF0ZSgwLjc1LC0wLjc1KSI+JiN4YTsJCQkJCTx0aXRsZSBpZD0idGl0bGU1ODM0OSI+U2hlZXQuNTk2NjwvdGl0bGU+JiN4YTsJCQkJCTxwYXRoIGlkPSJwYXRoNTgzNTEiIGlua3NjYXBlOmNvbm5lY3Rvci1jdXJ2YXR1cmU9IjAiIHN0eWxlPSJmaWxsOiNERDU5MDA7IiBkPSJNMC43NSwzOC45M0MwLjM0LDM4LjkzLDAsMzguNTksMCwzOC4xOHYtMy43NiAgICAgICBjMC0wLjQxLDAuMzQtMC43NSwwLjc1LTAuNzVIOWMwLjQxLDAsMC43NSwwLjM0LDAuNzUsMC43NXYzLjc2YzAsMC40MS0wLjM0LDAuNzUtMC43NSwwLjc1TDAuNzUsMzguOTN6Ii8+JiN4YTsJCQkJPC9nPiYjeGE7CQkJCTxnIGlkPSJzaGFwZTU5NjctMjgiPiYjeGE7CQkJCQk8dGl0bGUgaWQ9InRpdGxlNTgzNTQiPlNoZWV0LjU5Njc8L3RpdGxlPiYjeGE7CQkJCQk8cGF0aCBpZD0icGF0aDU4MzU2IiBpbmtzY2FwZTpjb25uZWN0b3ItY3VydmF0dXJlPSIwIiBzdHlsZT0iZmlsbDojQTBBMUEyOyIgZD0iTTkuNzUsMzMuNjd2My43NkgxLjV2LTMuNzZIOS43NXogTTkuNzUsMzIuMTcgICAgICAgSDEuNWMtMC44MywwLTEuNSwwLjY4LTEuNSwxLjV2My43NmMwLDAuODIsMC42NywxLjUsMS41LDEuNWg4LjI1YzAuODMsMCwxLjUtMC42OCwxLjUtMS41di0zLjc2ICAgICAgIEMxMS4yNSwzMi44NSwxMC41OCwzMi4xNyw5Ljc1LDMyLjE3eiIvPiYjeGE7CQkJCTwvZz4mI3hhOwkJCTwvZz4mI3hhOwkJCTxnIGlkPSJncm91cDU5NjgtMzAiIHRyYW5zZm9ybT0idHJhbnNsYXRlKDAsLTEwLjUpIj4mI3hhOwkJCQk8dGl0bGUgaWQ9InRpdGxlNTgzNjAiPlNoZWV0LjU5Njg8L3RpdGxlPiYjeGE7CQkJCTxnIGlkPSJzaGFwZTU5NjktMzEiIHRyYW5zZm9ybT0idHJhbnNsYXRlKDAuNzUsLTAuNzUpIj4mI3hhOwkJCQkJPHRpdGxlIGlkPSJ0aXRsZTU4MzYyIj5TaGVldC41OTY5PC90aXRsZT4mI3hhOwkJCQkJPHBhdGggaWQ9InBhdGg1ODM2NCIgaW5rc2NhcGU6Y29ubmVjdG9yLWN1cnZhdHVyZT0iMCIgc3R5bGU9ImZpbGw6I0JBMTQxQTsiIGQ9Ik0wLjc1LDM4LjkzQzAuMzQsMzguOTMsMCwzOC41OSwwLDM4LjE4di0zLjc2ICAgICAgIGMwLTAuNDEsMC4zNC0wLjc1LDAuNzUtMC43NUg5YzAuNDEsMCwwLjc1LDAuMzQsMC43NSwwLjc1djMuNzZjMCwwLjQxLTAuMzQsMC43NS0wLjc1LDAuNzVMMC43NSwzOC45M3oiLz4mI3hhOwkJCQk8L2c+JiN4YTsJCQkJPGcgaWQ9InNoYXBlNTk3MC0zMyI+JiN4YTsJCQkJCTx0aXRsZSBpZD0idGl0bGU1ODM2NyI+U2hlZXQuNTk3MDwvdGl0bGU+JiN4YTsJCQkJCTxwYXRoIGlkPSJwYXRoNTgzNjkiIGlua3NjYXBlOmNvbm5lY3Rvci1jdXJ2YXR1cmU9IjAiIHN0eWxlPSJmaWxsOiNBMEExQTI7IiBkPSJNOS43NSwzMy42N3YzLjc2SDEuNXYtMy43Nkg5Ljc1eiBNOS43NSwzMi4xNyAgICAgICBIMS41Yy0wLjgzLDAtMS41LDAuNjgtMS41LDEuNXYzLjc2YzAsMC44MiwwLjY3LDEuNSwxLjUsMS41aDguMjVjMC44MywwLDEuNS0wLjY4LDEuNS0xLjV2LTMuNzYgICAgICAgQzExLjI1LDMyLjg1LDEwLjU4LDMyLjE3LDkuNzUsMzIuMTd6Ii8+JiN4YTsJCQkJPC9nPiYjeGE7CQkJPC9nPiYjeGE7CQkJPGcgaWQ9Imdyb3VwNTk3MS0zNSIgdHJhbnNmb3JtPSJ0cmFuc2xhdGUoOS43NSkiPiYjeGE7CQkJCTx0aXRsZSBpZD0idGl0bGU1ODM3MyI+U2hlZXQuNTk3MTwvdGl0bGU+JiN4YTsJCQkJPGcgaWQ9InNoYXBlNTk3Mi0zNiIgdHJhbnNmb3JtPSJ0cmFuc2xhdGUoMC43NSwtMC43NSkiPiYjeGE7CQkJCQk8dGl0bGUgaWQ9InRpdGxlNTgzNzUiPlNoZWV0LjU5NzI8L3RpdGxlPiYjeGE7CQkJCQk8cGF0aCBpZD0icGF0aDU4Mzc3IiBpbmtzY2FwZTpjb25uZWN0b3ItY3VydmF0dXJlPSIwIiBzdHlsZT0iZmlsbDojQkExNDFBOyIgZD0iTTAuNzUsMzguOTNDMC4zNCwzOC45MywwLDM4LjU5LDAsMzguMTh2LTMuNzYgICAgICAgYzAtMC40MSwwLjM0LTAuNzUsMC43NS0wLjc1SDljMC40MSwwLDAuNzUsMC4zNCwwLjc1LDAuNzV2My43NmMwLDAuNDEtMC4zNCwwLjc1LTAuNzUsMC43NUwwLjc1LDM4LjkzeiIvPiYjeGE7CQkJCTwvZz4mI3hhOwkJCQk8ZyBpZD0ic2hhcGU1OTczLTM4Ij4mI3hhOwkJCQkJPHRpdGxlIGlkPSJ0aXRsZTU4MzgwIj5TaGVldC41OTczPC90aXRsZT4mI3hhOwkJCQkJPHBhdGggaWQ9InBhdGg1ODM4MiIgaW5rc2NhcGU6Y29ubmVjdG9yLWN1cnZhdHVyZT0iMCIgc3R5bGU9ImZpbGw6I0EwQTFBMjsiIGQ9Ik05Ljc1LDMzLjY3djMuNzZIMS41di0zLjc2SDkuNzV6IE05Ljc1LDMyLjE3ICAgICAgIEgxLjVjLTAuODMsMC0xLjUsMC42OC0xLjUsMS41djMuNzZjMCwwLjgyLDAuNjcsMS41LDEuNSwxLjVoOC4yNWMwLjgzLDAsMS41LTAuNjgsMS41LTEuNXYtMy43NiAgICAgICBDMTEuMjUsMzIuODUsMTAuNTgsMzIuMTcsOS43NSwzMi4xN3oiLz4mI3hhOwkJCQk8L2c+JiN4YTsJCQk8L2c+JiN4YTsJCQk8ZyBpZD0iZ3JvdXA1OTc0LTQwIiB0cmFuc2Zvcm09InRyYW5zbGF0ZSgxOS41LC01LjI1KSI+JiN4YTsJCQkJPHRpdGxlIGlkPSJ0aXRsZTU4Mzg2Ij5TaGVldC41OTc0PC90aXRsZT4mI3hhOwkJCQk8ZyBpZD0ic2hhcGU1OTc1LTQxIiB0cmFuc2Zvcm09InRyYW5zbGF0ZSgwLjc1LC0wLjc1KSI+JiN4YTsJCQkJCTx0aXRsZSBpZD0idGl0bGU1ODM4OCI+U2hlZXQuNTk3NTwvdGl0bGU+JiN4YTsJCQkJCTxwYXRoIGlkPSJwYXRoNTgzOTAiIGlua3NjYXBlOmNvbm5lY3Rvci1jdXJ2YXR1cmU9IjAiIHN0eWxlPSJmaWxsOiNCQTE0MUE7IiBkPSJNMC43NSwzOC45M0MwLjM0LDM4LjkzLDAsMzguNTksMCwzOC4xOHYtMy43NiAgICAgICBjMC0wLjQxLDAuMzQtMC43NSwwLjc1LTAuNzVIOWMwLjQxLDAsMC43NSwwLjM0LDAuNzUsMC43NXYzLjc2YzAsMC40MS0wLjM0LDAuNzUtMC43NSwwLjc1TDAuNzUsMzguOTN6Ii8+JiN4YTsJCQkJPC9nPiYjeGE7CQkJCTxnIGlkPSJzaGFwZTU5NzYtNDMiPiYjeGE7CQkJCQk8dGl0bGUgaWQ9InRpdGxlNTgzOTMiPlNoZWV0LjU5NzY8L3RpdGxlPiYjeGE7CQkJCQk8cGF0aCBpZD0icGF0aDU4Mzk1IiBpbmtzY2FwZTpjb25uZWN0b3ItY3VydmF0dXJlPSIwIiBzdHlsZT0iZmlsbDojQTBBMUEyOyIgZD0iTTkuNzUsMzMuNjd2My43NkgxLjV2LTMuNzZIOS43NXogTTkuNzUsMzIuMTcgICAgICAgSDEuNWMtMC44MywwLTEuNSwwLjY4LTEuNSwxLjV2My43NmMwLDAuODIsMC42NywxLjUsMS41LDEuNWg4LjI1YzAuODMsMCwxLjUtMC42OCwxLjUtMS41di0zLjc2ICAgICAgIEMxMS4yNSwzMi44NSwxMC41OCwzMi4xNyw5Ljc1LDMyLjE3eiIvPiYjeGE7CQkJCTwvZz4mI3hhOwkJCTwvZz4mI3hhOwkJCTxnIGlkPSJncm91cDU5NzctNDUiIHRyYW5zZm9ybT0idHJhbnNsYXRlKDE5LjUsLTEwLjUpIj4mI3hhOwkJCQk8dGl0bGUgaWQ9InRpdGxlNTgzOTkiPlNoZWV0LjU5Nzc8L3RpdGxlPiYjeGE7CQkJCTxnIGlkPSJzaGFwZTU5NzgtNDYiIHRyYW5zZm9ybT0idHJhbnNsYXRlKDAuNzUsLTAuNzUpIj4mI3hhOwkJCQkJPHRpdGxlIGlkPSJ0aXRsZTU4NDAxIj5TaGVldC41OTc4PC90aXRsZT4mI3hhOwkJCQkJPHBhdGggaWQ9InBhdGg1ODQwMyIgaW5rc2NhcGU6Y29ubmVjdG9yLWN1cnZhdHVyZT0iMCIgc3R5bGU9ImZpbGw6I0JBMTQxQTsiIGQ9Ik0wLjc1LDM4LjkzQzAuMzQsMzguOTMsMCwzOC41OSwwLDM4LjE4di0zLjc2ICAgICAgIGMwLTAuNDEsMC4zNC0wLjc1LDAuNzUtMC43NUg5YzAuNDEsMCwwLjc1LDAuMzQsMC43NSwwLjc1djMuNzZjMCwwLjQxLTAuMzQsMC43NS0wLjc1LDAuNzVMMC43NSwzOC45M3oiLz4mI3hhOwkJCQk8L2c+JiN4YTsJCQkJPGcgaWQ9InNoYXBlNTk3OS00OCI+JiN4YTsJCQkJCTx0aXRsZSBpZD0idGl0bGU1ODQwNiI+U2hlZXQuNTk3OTwvdGl0bGU+JiN4YTsJCQkJCTxwYXRoIGlkPSJwYXRoNTg0MDgiIGlua3NjYXBlOmNvbm5lY3Rvci1jdXJ2YXR1cmU9IjAiIHN0eWxlPSJmaWxsOiNBMEExQTI7IiBkPSJNOS43NSwzMy42N3YzLjc2SDEuNXYtMy43Nkg5Ljc1eiBNOS43NSwzMi4xNyAgICAgICBIMS41Yy0wLjgzLDAtMS41LDAuNjgtMS41LDEuNXYzLjc2YzAsMC44MiwwLjY3LDEuNSwxLjUsMS41aDguMjVjMC44MywwLDEuNS0wLjY4LDEuNS0xLjV2LTMuNzYgICAgICAgQzExLjI1LDMyLjg1LDEwLjU4LDMyLjE3LDkuNzUsMzIuMTd6Ii8+JiN4YTsJCQkJPC9nPiYjeGE7CQkJPC9nPiYjeGE7CQkJPGcgaWQ9Imdyb3VwNTk4MC01MCIgdHJhbnNmb3JtPSJ0cmFuc2xhdGUoOS43NSwtNS4yNSkiPiYjeGE7CQkJCTx0aXRsZSBpZD0idGl0bGU1ODQxMiI+U2hlZXQuNTk4MDwvdGl0bGU+JiN4YTsJCQkJPGcgaWQ9InNoYXBlNTk4MS01MSIgdHJhbnNmb3JtPSJ0cmFuc2xhdGUoMC43NSwtMC43NSkiPiYjeGE7CQkJCQk8dGl0bGUgaWQ9InRpdGxlNTg0MTQiPlNoZWV0LjU5ODE8L3RpdGxlPiYjeGE7CQkJCQk8cGF0aCBpZD0icGF0aDU4NDE2IiBpbmtzY2FwZTpjb25uZWN0b3ItY3VydmF0dXJlPSIwIiBzdHlsZT0iZmlsbDojQkExNDFBOyIgZD0iTTAuNzUsMzguOTNDMC4zNCwzOC45MywwLDM4LjU5LDAsMzguMTh2LTMuNzYgICAgICAgYzAtMC40MSwwLjM0LTAuNzUsMC43NS0wLjc1SDljMC40MSwwLDAuNzUsMC4zNCwwLjc1LDAuNzV2My43NmMwLDAuNDEtMC4zNCwwLjc1LTAuNzUsMC43NUwwLjc1LDM4LjkzeiIvPiYjeGE7CQkJCTwvZz4mI3hhOwkJCQk8ZyBpZD0ic2hhcGU1OTgyLTUzIj4mI3hhOwkJCQkJPHRpdGxlIGlkPSJ0aXRsZTU4NDE5Ij5TaGVldC41OTgyPC90aXRsZT4mI3hhOwkJCQkJPHBhdGggaWQ9InBhdGg1ODQyMSIgaW5rc2NhcGU6Y29ubmVjdG9yLWN1cnZhdHVyZT0iMCIgc3R5bGU9ImZpbGw6I0EwQTFBMjsiIGQ9Ik05Ljc1LDMzLjY3djMuNzZIMS41di0zLjc2SDkuNzV6IE05Ljc1LDMyLjE3ICAgICAgIEgxLjVjLTAuODMsMC0xLjUsMC42OC0xLjUsMS41djMuNzZjMCwwLjgyLDAuNjcsMS41LDEuNSwxLjVoOC4yNWMwLjgzLDAsMS41LTAuNjgsMS41LTEuNXYtMy43NiAgICAgICBDMTEuMjUsMzIuODUsMTAuNTgsMzIuMTcsOS43NSwzMi4xN3oiLz4mI3hhOwkJCQk8L2c+JiN4YTsJCQk8L2c+JiN4YTsJCQk8ZyBpZD0iZ3JvdXA1OTgzLTU1IiB0cmFuc2Zvcm09InRyYW5zbGF0ZSgxOS41KSI+JiN4YTsJCQkJPHRpdGxlIGlkPSJ0aXRsZTU4NDI1Ij5TaGVldC41OTgzPC90aXRsZT4mI3hhOwkJCQk8ZyBpZD0ic2hhcGU1OTg0LTU2IiB0cmFuc2Zvcm09InRyYW5zbGF0ZSgwLjc1LC0wLjc1KSI+JiN4YTsJCQkJCTx0aXRsZSBpZD0idGl0bGU1ODQyNyI+U2hlZXQuNTk4NDwvdGl0bGU+JiN4YTsJCQkJCTxwYXRoIGlkPSJwYXRoNTg0MjkiIGlua3NjYXBlOmNvbm5lY3Rvci1jdXJ2YXR1cmU9IjAiIHN0eWxlPSJmaWxsOiNERDU5MDA7IiBkPSJNMC43NSwzOC45M0MwLjM0LDM4LjkzLDAsMzguNTksMCwzOC4xOHYtMy43NiAgICAgICBjMC0wLjQxLDAuMzQtMC43NSwwLjc1LTAuNzVIOWMwLjQxLDAsMC43NSwwLjM0LDAuNzUsMC43NXYzLjc2YzAsMC40MS0wLjM0LDAuNzUtMC43NSwwLjc1TDAuNzUsMzguOTN6Ii8+JiN4YTsJCQkJPC9nPiYjeGE7CQkJCTxnIGlkPSJzaGFwZTU5ODUtNTgiPiYjeGE7CQkJCQk8dGl0bGUgaWQ9InRpdGxlNTg0MzIiPlNoZWV0LjU5ODU8L3RpdGxlPiYjeGE7CQkJCQk8cGF0aCBpZD0icGF0aDU4NDM0IiBpbmtzY2FwZTpjb25uZWN0b3ItY3VydmF0dXJlPSIwIiBzdHlsZT0iZmlsbDojQTBBMUEyOyIgZD0iTTkuNzUsMzMuNjd2My43NkgxLjV2LTMuNzZIOS43NXogTTkuNzUsMzIuMTcgICAgICAgSDEuNWMtMC44MywwLTEuNSwwLjY4LTEuNSwxLjV2My43NmMwLDAuODIsMC42NywxLjUsMS41LDEuNWg4LjI1YzAuODMsMCwxLjUtMC42OCwxLjUtMS41di0zLjc2ICAgICAgIEMxMS4yNSwzMi44NSwxMC41OCwzMi4xNyw5Ljc1LDMyLjE3eiIvPiYjeGE7CQkJCTwvZz4mI3hhOwkJCTwvZz4mI3hhOwkJCTxnIGlkPSJncm91cDU5ODYtNjAiPiYjeGE7CQkJCTx0aXRsZSBpZD0idGl0bGU1ODQzOCI+U2hlZXQuNTk4NjwvdGl0bGU+JiN4YTsJCQkJPGcgaWQ9InNoYXBlNTk4Ny02MSIgdHJhbnNmb3JtPSJ0cmFuc2xhdGUoMC43NSwtMC43NSkiPiYjeGE7CQkJCQk8dGl0bGUgaWQ9InRpdGxlNTg0NDAiPlNoZWV0LjU5ODc8L3RpdGxlPiYjeGE7CQkJCQk8cGF0aCBpZD0icGF0aDU4NDQyIiBpbmtzY2FwZTpjb25uZWN0b3ItY3VydmF0dXJlPSIwIiBzdHlsZT0iZmlsbDojQkExNDFBOyIgZD0iTTAuNzUsMzguOTNDMC4zNCwzOC45MywwLDM4LjU5LDAsMzguMTh2LTMuNzYgICAgICAgYzAtMC40MSwwLjM0LTAuNzUsMC43NS0wLjc1SDljMC40MSwwLDAuNzUsMC4zNCwwLjc1LDAuNzV2My43NmMwLDAuNDEtMC4zNCwwLjc1LTAuNzUsMC43NUwwLjc1LDM4LjkzeiIvPiYjeGE7CQkJCTwvZz4mI3hhOwkJCQk8ZyBpZD0ic2hhcGU1OTg4LTYzIj4mI3hhOwkJCQkJPHRpdGxlIGlkPSJ0aXRsZTU4NDQ1Ij5TaGVldC41OTg4PC90aXRsZT4mI3hhOwkJCQkJPHBhdGggaWQ9InBhdGg1ODQ0NyIgaW5rc2NhcGU6Y29ubmVjdG9yLWN1cnZhdHVyZT0iMCIgc3R5bGU9ImZpbGw6I0EwQTFBMjsiIGQ9Ik05Ljc1LDMzLjY3djMuNzZIMS41di0zLjc2SDkuNzV6IE05Ljc1LDMyLjE3ICAgICAgIEgxLjVjLTAuODMsMC0xLjUsMC42OC0xLjUsMS41djMuNzZjMCwwLjgyLDAuNjcsMS41LDEuNSwxLjVoOC4yNWMwLjgzLDAsMS41LTAuNjgsMS41LTEuNXYtMy43NiAgICAgICBDMTEuMjUsMzIuODUsMTAuNTgsMzIuMTcsOS43NSwzMi4xN3oiLz4mI3hhOwkJCQk8L2c+JiN4YTsJCQk8L2c+JiN4YTsJCTwvZz4mI3hhOwk8L2c+JiN4YTs8L2c+JiN4YTs8L3N2Zz4=;rounded=1;" parent="1" vertex="1">
          <mxGeometry x="-659" y="-970" width="37" height="37" as="geometry" />
        </mxCell>
        <mxCell id="vbyWE2GeK1n_giPgyy7q-17" style="edgeStyle=orthogonalEdgeStyle;rounded=1;orthogonalLoop=1;jettySize=auto;html=1;" parent="1" source="vbyWE2GeK1n_giPgyy7q-10" target="vbyWE2GeK1n_giPgyy7q-15" edge="1">
          <mxGeometry relative="1" as="geometry" />
        </mxCell>
        <mxCell id="vbyWE2GeK1n_giPgyy7q-42" value="&lt;span style=&quot;color: rgb(57, 62, 70); font-family: Arial, sans-serif; font-size: 12px; text-align: start; white-space-collapse: preserve; background-color: rgb(255, 255, 255);&quot;&gt;Port 25 / &lt;/span&gt;" style="edgeLabel;html=1;align=center;verticalAlign=middle;resizable=0;points=[];rounded=1;" parent="vbyWE2GeK1n_giPgyy7q-17" vertex="1" connectable="0">
          <mxGeometry x="-0.35100000000000003" relative="1" as="geometry">
            <mxPoint x="-24" as="offset" />
          </mxGeometry>
        </mxCell>
        <mxCell id="vbyWE2GeK1n_giPgyy7q-45" value="&lt;span style=&quot;color: rgb(57, 62, 70); font-family: Arial, sans-serif; font-size: 12px; text-align: start; white-space-collapse: preserve; background-color: rgb(246, 246, 246);&quot;&gt;1/0/26&lt;/span&gt;" style="edgeLabel;html=1;align=center;verticalAlign=middle;resizable=0;points=[];rounded=1;" parent="vbyWE2GeK1n_giPgyy7q-17" vertex="1" connectable="0">
          <mxGeometry x="0.3504" y="2" relative="1" as="geometry">
            <mxPoint x="30" as="offset" />
          </mxGeometry>
        </mxCell>
        <mxCell id="vbyWE2GeK1n_giPgyy7q-10" value="SW28CPD01" style="image;points=[];aspect=fixed;html=1;align=center;shadow=0;dashed=0;image=img/lib/allied_telesis/switch/Switch_48_port_L2_POE.svg;labelPosition=center;verticalLabelPosition=top;verticalAlign=bottom;rounded=1;" parent="1" vertex="1">
          <mxGeometry x="-822" y="-880" width="78" height="52.8" as="geometry" />
        </mxCell>
        <mxCell id="vbyWE2GeK1n_giPgyy7q-18" style="edgeStyle=orthogonalEdgeStyle;rounded=1;orthogonalLoop=1;jettySize=auto;html=1;" parent="1" source="vbyWE2GeK1n_giPgyy7q-15" target="vbyWE2GeK1n_giPgyy7q-16" edge="1">
          <mxGeometry relative="1" as="geometry" />
        </mxCell>
        <mxCell id="vbyWE2GeK1n_giPgyy7q-15" value="SW28CPD02" style="image;points=[];aspect=fixed;html=1;align=center;shadow=0;dashed=0;image=img/lib/allied_telesis/switch/Switch_48_port_L2_POE.svg;labelPosition=center;verticalLabelPosition=top;verticalAlign=bottom;rounded=1;" parent="1" vertex="1">
          <mxGeometry x="-597" y="-880" width="78" height="52.8" as="geometry" />
        </mxCell>
        <mxCell id="vbyWE2GeK1n_giPgyy7q-16" value="SW28CPD03" style="image;points=[];aspect=fixed;html=1;align=center;shadow=0;dashed=0;image=img/lib/allied_telesis/switch/Switch_48_port_L2_POE.svg;labelPosition=center;verticalLabelPosition=top;verticalAlign=bottom;rounded=1;" parent="1" vertex="1">
          <mxGeometry x="-373.5" y="-880" width="78" height="52.8" as="geometry" />
        </mxCell>
        <mxCell id="vbyWE2GeK1n_giPgyy7q-33" style="edgeStyle=orthogonalEdgeStyle;shape=link;rounded=1;orthogonalLoop=1;jettySize=auto;html=1;" parent="1" source="vbyWE2GeK1n_giPgyy7q-21" target="vbyWE2GeK1n_giPgyy7q-4" edge="1">
          <mxGeometry relative="1" as="geometry">
            <mxPoint x="-767.5" y="-1050" as="sourcePoint" />
            <mxPoint x="-697.165" y="-955.487" as="targetPoint" />
            <Array as="points">
              <mxPoint x="-760" y="-950" />
              <mxPoint x="-700" y="-950" />
              <mxPoint x="-700" y="-950" />
            </Array>
          </mxGeometry>
        </mxCell>
        <mxCell id="vbyWE2GeK1n_giPgyy7q-34" value="179.190.110.245" style="edgeLabel;html=1;align=center;verticalAlign=middle;resizable=0;points=[];rounded=1;" parent="vbyWE2GeK1n_giPgyy7q-33" vertex="1" connectable="0">
          <mxGeometry x="-0.2722" relative="1" as="geometry">
            <mxPoint x="-2" y="-105" as="offset" />
          </mxGeometry>
        </mxCell>
        <mxCell id="vbyWE2GeK1n_giPgyy7q-35" style="edgeStyle=orthogonalEdgeStyle;shape=link;rounded=1;orthogonalLoop=1;jettySize=auto;html=1;entryX=0.5;entryY=1;entryDx=0;entryDy=0;strokeColor=#006EAF;fillColor=#1ba1e2;" parent="1" source="vbyWE2GeK1n_giPgyy7q-21" target="vbyWE2GeK1n_giPgyy7q-1" edge="1">
          <mxGeometry relative="1" as="geometry" />
        </mxCell>
        <mxCell id="vbyWE2GeK1n_giPgyy7q-36" value="179.190.110.245" style="edgeLabel;html=1;align=center;verticalAlign=middle;resizable=0;points=[];fillColor=none;gradientColor=none;rounded=1;" parent="vbyWE2GeK1n_giPgyy7q-35" vertex="1" connectable="0">
          <mxGeometry x="0.4985" y="2" relative="1" as="geometry">
            <mxPoint x="2" y="87" as="offset" />
          </mxGeometry>
        </mxCell>
        <mxCell id="vbyWE2GeK1n_giPgyy7q-21" value="" style="html=1;verticalLabelPosition=bottom;verticalAlign=top;outlineConnect=0;shadow=0;dashed=0;shape=mxgraph.rack.hpe_aruba.switches.fibre_qsfp;rounded=1;" parent="1" vertex="1">
          <mxGeometry x="-778.5" y="-1036.2" width="33" height="5.7" as="geometry" />
        </mxCell>
        <mxCell id="vbyWE2GeK1n_giPgyy7q-26" style="edgeStyle=orthogonalEdgeStyle;shape=link;rounded=1;orthogonalLoop=1;jettySize=auto;html=1;entryX=0.5;entryY=1;entryDx=0;entryDy=0;fillColor=#1ba1e2;strokeColor=#006EAF;" parent="1" source="vbyWE2GeK1n_giPgyy7q-22" target="vbyWE2GeK1n_giPgyy7q-2" edge="1">
          <mxGeometry relative="1" as="geometry" />
        </mxCell>
        <mxCell id="vbyWE2GeK1n_giPgyy7q-29" value="179.184.102.15" style="edgeLabel;html=1;align=center;verticalAlign=middle;resizable=0;points=[];rounded=1;" parent="vbyWE2GeK1n_giPgyy7q-26" vertex="1" connectable="0">
          <mxGeometry x="0.3577" relative="1" as="geometry">
            <mxPoint y="1" as="offset" />
          </mxGeometry>
        </mxCell>
        <mxCell id="vbyWE2GeK1n_giPgyy7q-22" value="" style="html=1;verticalLabelPosition=bottom;verticalAlign=top;outlineConnect=0;shadow=0;dashed=0;shape=mxgraph.rack.hpe_aruba.switches.fibre_qsfp;rounded=1;" parent="1" vertex="1">
          <mxGeometry x="-553.5" y="-1035.5" width="33" height="5.7" as="geometry" />
        </mxCell>
        <mxCell id="vbyWE2GeK1n_giPgyy7q-27" style="edgeStyle=orthogonalEdgeStyle;shape=link;rounded=1;orthogonalLoop=1;jettySize=auto;html=1;entryX=0.5;entryY=1;entryDx=0;entryDy=0;fillColor=#1ba1e2;strokeColor=#006EAF;" parent="1" source="vbyWE2GeK1n_giPgyy7q-23" target="vbyWE2GeK1n_giPgyy7q-3" edge="1">
          <mxGeometry relative="1" as="geometry" />
        </mxCell>
        <mxCell id="vbyWE2GeK1n_giPgyy7q-39" value="201.16.232.149" style="edgeLabel;html=1;align=center;verticalAlign=middle;resizable=0;points=[];rounded=1;" parent="vbyWE2GeK1n_giPgyy7q-27" vertex="1" connectable="0">
          <mxGeometry x="0.2964" y="-1" relative="1" as="geometry">
            <mxPoint as="offset" />
          </mxGeometry>
        </mxCell>
        <mxCell id="vbyWE2GeK1n_giPgyy7q-23" value="" style="html=1;verticalLabelPosition=bottom;verticalAlign=top;outlineConnect=0;shadow=0;dashed=0;shape=mxgraph.rack.hpe_aruba.switches.fibre_qsfp;rounded=1;" parent="1" vertex="1">
          <mxGeometry x="-328.5" y="-1029.8" width="33" height="5.7" as="geometry" />
        </mxCell>
        <mxCell id="vbyWE2GeK1n_giPgyy7q-40" style="edgeStyle=elbowEdgeStyle;shape=link;rounded=1;orthogonalLoop=1;jettySize=auto;html=1;elbow=vertical;" parent="1" source="vbyWE2GeK1n_giPgyy7q-23" target="vbyWE2GeK1n_giPgyy7q-15" edge="1">
          <mxGeometry relative="1" as="geometry">
            <mxPoint x="-294" y="-1010.0033333333334" as="sourcePoint" />
            <mxPoint x="-371.16599999999994" y="-744.39" as="targetPoint" />
          </mxGeometry>
        </mxCell>
        <mxCell id="vbyWE2GeK1n_giPgyy7q-41" value="&lt;span style=&quot;color: rgb(57, 62, 70); font-family: Arial, sans-serif; font-size: 12px; text-align: start; background-color: rgb(255, 255, 255);&quot;&gt;1/0/43&lt;br&gt;10.6.0.4&lt;/span&gt;" style="edgeLabel;html=1;align=center;verticalAlign=middle;resizable=0;points=[];rounded=1;" parent="vbyWE2GeK1n_giPgyy7q-40" vertex="1" connectable="0">
          <mxGeometry x="0.1107" y="-1" relative="1" as="geometry">
            <mxPoint x="14" as="offset" />
          </mxGeometry>
        </mxCell>
        <mxCell id="vbyWE2GeK1n_giPgyy7q-47" style="edgeStyle=orthogonalEdgeStyle;shape=wire;rounded=1;orthogonalLoop=1;jettySize=auto;html=1;dashed=1;endArrow=none;endFill=0;" parent="1" source="vbyWE2GeK1n_giPgyy7q-46" target="vbyWE2GeK1n_giPgyy7q-15" edge="1">
          <mxGeometry relative="1" as="geometry" />
        </mxCell>
        <mxCell id="vbyWE2GeK1n_giPgyy7q-48" value="&lt;span style=&quot;color: rgb(57, 62, 70); font-family: Arial, sans-serif; font-size: 12px; text-align: start; white-space-collapse: preserve; background-color: rgb(255, 255, 255);&quot;&gt;1/0/17&lt;/span&gt;" style="edgeLabel;html=1;align=center;verticalAlign=middle;resizable=0;points=[];rounded=1;" parent="vbyWE2GeK1n_giPgyy7q-47" vertex="1" connectable="0">
          <mxGeometry x="-0.7219" y="1" relative="1" as="geometry">
            <mxPoint x="8" y="1" as="offset" />
          </mxGeometry>
        </mxCell>
        <mxCell id="vbyWE2GeK1n_giPgyy7q-46" value="10.6.0.50&#xa;AS400 | PWR9JOIN" style="shape=image;verticalLabelPosition=top;labelBackgroundColor=#ffffff;verticalAlign=bottom;aspect=fixed;imageAspect=0;image=data:image/svg+xml,PHN2ZyB4bWxuczpjYz0iaHR0cDovL2NyZWF0aXZlY29tbW9ucy5vcmcvbnMjIiB4bWxuczpkYz0iaHR0cDovL3B1cmwub3JnL2RjL2VsZW1lbnRzLzEuMS8iIHhtbG5zOmlua3NjYXBlPSJodHRwOi8vd3d3Lmlua3NjYXBlLm9yZy9uYW1lc3BhY2VzL2lua3NjYXBlIiB4bWxuczpyZGY9Imh0dHA6Ly93d3cudzMub3JnLzE5OTkvMDIvMjItcmRmLXN5bnRheC1ucyMiIHhtbG5zOnNvZGlwb2RpPSJodHRwOi8vc29kaXBvZGkuc291cmNlZm9yZ2UubmV0L0RURC9zb2RpcG9kaS0wLmR0ZCIgeG1sbnM6c3ZnPSJodHRwOi8vd3d3LnczLm9yZy8yMDAwL3N2ZyIgeG1sbnM9Imh0dHA6Ly93d3cudzMub3JnLzIwMDAvc3ZnIiB4bWxuczp4bGluaz0iaHR0cDovL3d3dy53My5vcmcvMTk5OS94bGluayIgdmVyc2lvbj0iMS4xIiBpZD0ic3ZnNzY2MjIiIGlua3NjYXBlOnZlcnNpb249IjAuOTIuMyAoMjQwNTU0NiwgMjAxOC0wMy0xMSkiIHNvZGlwb2RpOmRvY25hbWU9ImRhdGFfY29ubmVjdGlvbnMuc3ZnIiB4PSIwcHgiIHk9IjBweCIgdmlld0JveD0iMCAwIDE4LjE2IDI0LjA0IiBzdHlsZT0iZW5hYmxlLWJhY2tncm91bmQ6bmV3IDAgMCAxOC4xNiAyNC4wNDsiIHhtbDpzcGFjZT0icHJlc2VydmUiPiYjeGE7PHNvZGlwb2RpOm5hbWVkdmlldyBib3JkZXJjb2xvcj0iIzY2NjY2NiIgYm9yZGVyb3BhY2l0eT0iMSIgZml0LW1hcmdpbi1ib3R0b209IjAiIGZpdC1tYXJnaW4tbGVmdD0iMCIgZml0LW1hcmdpbi1yaWdodD0iMCIgZml0LW1hcmdpbi10b3A9IjAiIGdyaWR0b2xlcmFuY2U9IjEwIiBndWlkZXRvbGVyYW5jZT0iMTAiIGlkPSJuYW1lZHZpZXc3NjYyNCIgaW5rc2NhcGU6Y3VycmVudC1sYXllcj0ic3ZnNzY2MjIiIGlua3NjYXBlOmN4PSIxMy42MDI3NzEiIGlua3NjYXBlOmN5PSIxMi40OTI5OTMiIGlua3NjYXBlOnBhZ2VvcGFjaXR5PSIwIiBpbmtzY2FwZTpwYWdlc2hhZG93PSIyIiBpbmtzY2FwZTp3aW5kb3ctaGVpZ2h0PSIxMDE3IiBpbmtzY2FwZTp3aW5kb3ctbWF4aW1pemVkPSIxIiBpbmtzY2FwZTp3aW5kb3ctd2lkdGg9IjE5MjAiIGlua3NjYXBlOndpbmRvdy14PSItOCIgaW5rc2NhcGU6d2luZG93LXk9Ii04IiBpbmtzY2FwZTp6b29tPSIxOS4xMjI1MTEiIG9iamVjdHRvbGVyYW5jZT0iMTAiIHBhZ2Vjb2xvcj0iI2ZmZmZmZiIgc2hvd2dyaWQ9ImZhbHNlIj4mI3hhOwk8L3NvZGlwb2RpOm5hbWVkdmlldz4mI3hhOzxnIGlkPSJnNzY2MjAiIHRyYW5zZm9ybT0idHJhbnNsYXRlKDAsLTAuMDAxODYzOCkiPiYjeGE7CTx0aXRsZSBpZD0idGl0bGU3NjU3MCI+UGFnZS0xPC90aXRsZT4mI3hhOwk8ZyBpZD0iZ3JvdXA0NTY5LTEiPiYjeGE7CQk8dGl0bGUgaWQ9InRpdGxlNzY1NzIiPkRhdGEgQ29ubmVjdGlvbnM8L3RpdGxlPiYjeGE7CQk8ZyBpZD0ic2hhcGU0NTcwLTIiPiYjeGE7CQkJPHRpdGxlIGlkPSJ0aXRsZTc2NTc0Ij5TaGVldC40NTcwPC90aXRsZT4mI3hhOwkJCTxwYXRoIGlkPSJwYXRoNzY1NzYiIGlua3NjYXBlOmNvbm5lY3Rvci1jdXJ2YXR1cmU9IjAiIHN0eWxlPSJmaWxsOiMwMEJDRjI7IiBkPSJNMCwzLjMyYzAsMTcuNDUsMCwxNy40NSwwLDE3LjQ1ICAgICBjMCwxLjgsNC4xMywzLjI3LDkuMTgsMy4yN2MwLTIwLjcyLDAtMjAuNzIsMC0yMC43MkwwLDMuMzJ6Ii8+JiN4YTsJCTwvZz4mI3hhOwkJPGcgaWQ9InNoYXBlNDU3MS00IiB0cmFuc2Zvcm09InRyYW5zbGF0ZSg4Ljk4NDU3KSI+JiN4YTsJCQk8dGl0bGUgaWQ9InRpdGxlNzY1NzkiPlNoZWV0LjQ1NzE8L3RpdGxlPiYjeGE7CQkJPHBhdGggaWQ9InBhdGg3NjU4MSIgaW5rc2NhcGU6Y29ubmVjdG9yLWN1cnZhdHVyZT0iMCIgc3R5bGU9ImZpbGw6IzI5QzdGNDsiIGQ9Ik0wLDI0LjA0YzAuMTIsMCwwLjEyLDAsMC4xMiwwICAgICBjNS4wMSwwLDkuMDYtMS40Nyw5LjA2LTMuMjdjMC0xNy40NSwwLTE3LjQ1LDAtMTcuNDVDMCwzLjMyLDAsMy4zMiwwLDMuMzJWMjQuMDR6Ii8+JiN4YTsJCTwvZz4mI3hhOwkJPGcgaWQ9InNoYXBlNDU3Mi02IiB0cmFuc2Zvcm09InRyYW5zbGF0ZSgwLC0xNy4zOTgyKSI+JiN4YTsJCQk8dGl0bGUgaWQ9InRpdGxlNzY1ODQiPlNoZWV0LjQ1NzI8L3RpdGxlPiYjeGE7CQkJPHBhdGggaWQ9InBhdGg3NjU4NiIgaW5rc2NhcGU6Y29ubmVjdG9yLWN1cnZhdHVyZT0iMCIgc3R5bGU9ImZpbGw6I0ZGRkZGRjsiIGQ9Ik0wLDIwLjcyYzAtMS44Myw0LjA4LTMuMzIsOS4wOC0zLjMyICAgICBjNS4wMiwwLDkuMDgsMS40OSw5LjA4LDMuMzJjMCwxLjg1LTQuMDYsMy4zMi05LjA4LDMuMzJDNC4wOCwyNC4wNCwwLDIyLjU3LDAsMjAuNzJ6Ii8+JiN4YTsJCTwvZz4mI3hhOwkJPGcgaWQ9InNoYXBlNDU3My04IiB0cmFuc2Zvcm09InRyYW5zbGF0ZSgxLjk1MzE3LC0xOC43NjY2KSI+JiN4YTsJCQk8dGl0bGUgaWQ9InRpdGxlNzY1ODkiPlNoZWV0LjQ1NzM8L3RpdGxlPiYjeGE7CQkJPHBhdGggaWQ9InBhdGg3NjU5MSIgaW5rc2NhcGU6Y29ubmVjdG9yLWN1cnZhdHVyZT0iMCIgc3R5bGU9ImZpbGw6Izg1QjM1MTsiIGQ9Ik0wLDIxLjg5YzAtMS4xOCwzLjItMi4xNSw3LjEzLTIuMTUgICAgIGMzLjk0LDAsNy4xMywwLjk3LDcuMTMsMi4xNWMwLDEuMi0zLjE5LDIuMTUtNy4xMywyLjE1QzMuMiwyNC4wNCwwLDIzLjA5LDAsMjEuODl6Ii8+JiN4YTsJCTwvZz4mI3hhOwkJPGcgaWQ9InNoYXBlNDU3NC0xMCIgdHJhbnNmb3JtPSJ0cmFuc2xhdGUoMS45NTMxNywtMTkuNTQ4NikiPiYjeGE7CQkJPHRpdGxlIGlkPSJ0aXRsZTc2NTk0Ij5TaGVldC40NTc0PC90aXRsZT4mI3hhOwkJCTxwYXRoIGlkPSJwYXRoNzY1OTYiIGlua3NjYXBlOmNvbm5lY3Rvci1jdXJ2YXR1cmU9IjAiIHN0eWxlPSJmaWxsOiNCQUM4NEE7IiBkPSJNMTIuNzYsMjQuMDRjMC45Mi0wLjM5LDEuNS0wLjgxLDEuNS0xLjMxICAgICBjMC0xLjIzLTMuMi0yLjItNy4xMy0yLjJTMCwyMS41LDAsMjIuNzNjMCwwLjUsMC41OSwwLjkyLDEuNTEsMS4zMWMxLjMxLTAuNSwzLjMxLTAuODUsNS42Mi0wLjg1ICAgICBDOS40MSwyMy4xOSwxMS40NSwyMy41NCwxMi43NiwyNC4wNHoiLz4mI3hhOwkJPC9nPiYjeGE7CQk8ZyBpZD0ic2hhcGU0NTc1LTEyIiB0cmFuc2Zvcm09InRyYW5zbGF0ZSgyLjUzOTEyLC02LjA2MDA2KSI+JiN4YTsJCQk8dGl0bGUgaWQ9InRpdGxlNzY1OTkiPlNoZWV0LjQ1NzU8L3RpdGxlPiYjeGE7CQkJPHBhdGggaWQ9InBhdGg3NjYwMSIgaW5rc2NhcGU6Y29ubmVjdG9yLWN1cnZhdHVyZT0iMCIgc3R5bGU9ImZpbGw6I0ZGRkZGRjsiIGQ9Ik0xMi4zNSwyMy40MmMtMC41LDAuNDMtMS4xMiwwLjYyLTEuOTcsMC42MiAgICAgYy0yLjgyLDAtMi44MiwwLTIuODIsMGMwLTcuNDIsMC03LjQyLDAtNy40MmMyLjY3LDAsMi42NywwLDIuNjcsMGMwLjg1LDAsMS40NiwwLjEyLDEuOTMsMC40N2MwLjQzLDAuMjcsMC42MiwwLjcsMC42MiwxLjI1ICAgICBjMCwwLjQzLTAuMTYsMC43OC0wLjQ2LDEuMTRjLTAuMjcsMC4yMy0wLjU5LDAuNDItMC45NywwLjU1bDAsMGMwLjU0LDAuMDcsMC45NywwLjI2LDEuMjcsMC42MmMwLjMyLDAuMzIsMC40NywwLjcxLDAuNDcsMS4xNyAgICAgQzEzLjA5LDIyLjQ4LDEyLjgyLDIzLjAzLDEyLjM1LDIzLjQyeiBNNS40NywyMi45OWMtMC43LDAuNzEtMS42NywxLjA1LTIuODMsMS4wNWMtMi42NCwwLTIuNjQsMC0yLjY0LDBjMC03LjQyLDAtNy40MiwwLTcuNDIgICAgIGMyLjY0LDAsMi42NCwwLDIuNjQsMGMyLjYsMCwzLjksMS4xNywzLjksMy42QzYuNTQsMjEuMzksNi4yLDIyLjI5LDUuNDcsMjIuOTl6Ii8+JiN4YTsJCTwvZz4mI3hhOwkJPGcgaWQ9InNoYXBlNDU3Ni0xNCIgdHJhbnNmb3JtPSJ0cmFuc2xhdGUoNC4xMDE2NSwtNy40Mjg0NikiPiYjeGE7CQkJPHRpdGxlIGlkPSJ0aXRsZTc2NjA0Ij5TaGVldC40NTc2PC90aXRsZT4mI3hhOwkJCTxwYXRoIGlkPSJwYXRoNzY2MDYiIGlua3NjYXBlOmNvbm5lY3Rvci1jdXJ2YXR1cmU9IjAiIHN0eWxlPSJmaWxsOiMwMEJDRjI7IiBkPSJNMC44NywxOS4zNWMtMC44NywwLTAuODcsMC0wLjg3LDAgICAgIGMwLDQuNjksMCw0LjY5LDAsNC42OWMwLjg3LDAsMC44NywwLDAuODcsMGMwLjc4LDAsMS4zOS0wLjIzLDEuOC0wLjY0YzAuNDYtMC40MywwLjY1LTEuMDIsMC42NS0xLjc1YzAtMC43LTAuMTktMS4yNS0wLjYxLTEuNjcgICAgIEMyLjI2LDE5LjYsMS42NSwxOS4zNSwwLjg3LDE5LjM1eiIvPiYjeGE7CQk8L2c+JiN4YTsJCTxnIGlkPSJzaGFwZTQ1NzctMTYiIHRyYW5zZm9ybT0idHJhbnNsYXRlKDExLjcxOSwtMTAuMzYwNykiPiYjeGE7CQkJPHRpdGxlIGlkPSJ0aXRsZTc2NjA5Ij5TaGVldC40NTc3PC90aXRsZT4mI3hhOwkJCTxwYXRoIGlkPSJwYXRoNzY2MTEiIGlua3NjYXBlOmNvbm5lY3Rvci1jdXJ2YXR1cmU9IjAiIHN0eWxlPSJmaWxsOiMyOUM3RjQ7IiBkPSJNMS42MiwyMy44MWMwLjIxLTAuMTksMC4zMy0wLjQzLDAuMzMtMC42OSAgICAgYzAtMC41NS0wLjQxLTAuODMtMS4yOC0wLjgzYy0wLjY3LDAtMC42NywwLTAuNjcsMGMwLDEuNzUsMCwxLjc1LDAsMS43NWMwLjc5LDAsMC43OSwwLDAuNzksMEMxLjEyLDI0LjA0LDEuNDIsMjMuOTcsMS42MiwyMy44MSAgICAgeiIvPiYjeGE7CQk8L2c+JiN4YTsJCTxnIGlkPSJzaGFwZTQ1NzgtMTgiIHRyYW5zZm9ybT0idHJhbnNsYXRlKDExLjcxOSwtNy4yMzI5NykiPiYjeGE7CQkJPHRpdGxlIGlkPSJ0aXRsZTc2NjE0Ij5TaGVldC40NTc4PC90aXRsZT4mI3hhOwkJCTxwYXRoIGlkPSJwYXRoNzY2MTYiIGlua3NjYXBlOmNvbm5lY3Rvci1jdXJ2YXR1cmU9IjAiIHN0eWxlPSJmaWxsOiMyOUM3RjQ7IiBkPSJNMS44MSwyMi4zM2MtMC4yLTAuMTUtMC41LTAuMjQtMC44OC0wLjI0ICAgICBjLTAuOTMsMC0wLjkzLDAtMC45MywwYzAsMS45NSwwLDEuOTUsMCwxLjk1YzAuOTMsMCwwLjkzLDAsMC45MywwYzAuMzgsMCwwLjY4LTAuMDcsMC44OC0wLjI2YzAuMjMtMC4yLDAuMzQtMC40MywwLjM0LTAuNzUgICAgIEMyLjE1LDIyLjc2LDIuMDQsMjIuNTMsMS44MSwyMi4zM3oiLz4mI3hhOwkJPC9nPiYjeGE7CTwvZz4mI3hhOzwvZz4mI3hhOzwvc3ZnPg==;labelPosition=center;align=center;rounded=1;" parent="1" vertex="1">
          <mxGeometry x="-783" y="-780" width="42" height="55" as="geometry" />
        </mxCell>
        <mxCell id="vbyWE2GeK1n_giPgyy7q-51" style="edgeStyle=elbowEdgeStyle;shape=wire;rounded=1;orthogonalLoop=1;jettySize=auto;html=1;entryX=0.922;entryY=0.954;entryDx=0;entryDy=0;entryPerimeter=0;dashed=1;endArrow=none;endFill=0;fillColor=#1ba1e2;strokeColor=#006EAF;" parent="1" source="vbyWE2GeK1n_giPgyy7q-50" target="vbyWE2GeK1n_giPgyy7q-15" edge="1">
          <mxGeometry relative="1" as="geometry" />
        </mxCell>
        <mxCell id="vbyWE2GeK1n_giPgyy7q-52" value="&lt;span style=&quot;color: rgb(57, 62, 70); font-family: Arial, sans-serif; font-size: 12px; text-align: start; white-space-collapse: preserve; background-color: rgb(246, 246, 246);&quot;&gt;1/0/16&lt;/span&gt;" style="edgeLabel;html=1;align=center;verticalAlign=middle;resizable=0;points=[];rounded=1;" parent="vbyWE2GeK1n_giPgyy7q-51" vertex="1" connectable="0">
          <mxGeometry x="0.826" y="-2" relative="1" as="geometry">
            <mxPoint x="-136" y="178" as="offset" />
          </mxGeometry>
        </mxCell>
        <mxCell id="vbyWE2GeK1n_giPgyy7q-50" value="&lt;font face=&quot;Verdana&quot;&gt;S28VM3&lt;br&gt;&lt;span style=&quot;text-wrap-mode: wrap;&quot;&gt;10.6.0.44&amp;nbsp;&lt;/span&gt;&lt;/font&gt;" style="image;aspect=fixed;perimeter=ellipsePerimeter;html=1;align=center;shadow=0;dashed=0;spacingTop=3;image=img/lib/active_directory/windows_server_2.svg;labelPosition=right;verticalLabelPosition=top;verticalAlign=bottom;rounded=1;" parent="1" vertex="1">
          <mxGeometry x="-801.25" y="-673" width="71" height="88.75" as="geometry" />
        </mxCell>
        <mxCell id="vbyWE2GeK1n_giPgyy7q-64" value="" style="group;rounded=1;" parent="1" vertex="1" connectable="0">
          <mxGeometry x="-812" y="-580" width="58" height="503" as="geometry" />
        </mxCell>
        <mxCell id="vbyWE2GeK1n_giPgyy7q-54" value="S28PRT2&#xa;10.6.0.37 " style="shape=image;verticalLabelPosition=bottom;labelBackgroundColor=#ffffff;verticalAlign=top;aspect=fixed;imageAspect=0;image=data:image/svg+xml,PHN2ZyB4bWxuczpkYz0iaHR0cDovL3B1cmwub3JnL2RjL2VsZW1lbnRzLzEuMS8iIHhtbG5zOmNjPSJodHRwOi8vY3JlYXRpdmVjb21tb25zLm9yZy9ucyMiIHhtbG5zOnJkZj0iaHR0cDovL3d3dy53My5vcmcvMTk5OS8wMi8yMi1yZGYtc3ludGF4LW5zIyIgeG1sbnM6c3ZnPSJodHRwOi8vd3d3LnczLm9yZy8yMDAwL3N2ZyIgeG1sbnM9Imh0dHA6Ly93d3cudzMub3JnLzIwMDAvc3ZnIiB4bWxuczpzb2RpcG9kaT0iaHR0cDovL3NvZGlwb2RpLnNvdXJjZWZvcmdlLm5ldC9EVEQvc29kaXBvZGktMC5kdGQiIHhtbG5zOmlua3NjYXBlPSJodHRwOi8vd3d3Lmlua3NjYXBlLm9yZy9uYW1lc3BhY2VzL2lua3NjYXBlIiB2ZXJzaW9uPSIxLjEiIGlkPSJzdmc2MTAxMSIgaW5rc2NhcGU6dmVyc2lvbj0iMC45Mi4zICgyNDA1NTQ2LCAyMDE4LTAzLTExKSIgc29kaXBvZGk6ZG9jbmFtZT0iYXp1cmVfcG9ydGFsX3ZpcnR1YWxfbWFjaGluZXMuc3ZnIiB4PSIwcHgiIHk9IjBweCIgdmlld0JveD0iMCAwIDU3LjY0IDUzLjIwMDAwMiIgeG1sOnNwYWNlPSJwcmVzZXJ2ZSIgd2lkdGg9IjU3LjYzOTk5OSIgaGVpZ2h0PSI1My4yMDAwMDEiPjxtZXRhZGF0YSBpZD0ibWV0YWRhdGExMDk5MCI+PHJkZjpSREY+PGNjOldvcmsgcmRmOmFib3V0PSIiPjxkYzpmb3JtYXQ+aW1hZ2Uvc3ZnK3htbDwvZGM6Zm9ybWF0PjxkYzp0eXBlIHJkZjpyZXNvdXJjZT0iaHR0cDovL3B1cmwub3JnL2RjL2RjbWl0eXBlL1N0aWxsSW1hZ2UiLz48ZGM6dGl0bGUvPjwvY2M6V29yaz48L3JkZjpSREY+PC9tZXRhZGF0YT48ZGVmcyBpZD0iZGVmczEwOTg4Ii8+JiN4YTs8ZmlsdGVyIGlkPSJmaWx0ZXJfMiI+JiN4YTsJPGZlR2F1c3NpYW5CbHVyIGlkPSJmZUdhdXNzaWFuQmx1cjYwOTIwIiBzdGREZXZpYXRpb249IjIiLz4mI3hhOzwvZmlsdGVyPiYjeGE7PHNvZGlwb2RpOm5hbWVkdmlldyBib3JkZXJjb2xvcj0iIzY2NjY2NiIgYm9yZGVyb3BhY2l0eT0iMSIgZml0LW1hcmdpbi1ib3R0b209IjAiIGZpdC1tYXJnaW4tbGVmdD0iMCIgZml0LW1hcmdpbi1yaWdodD0iMCIgZml0LW1hcmdpbi10b3A9IjAiIGdyaWR0b2xlcmFuY2U9IjEwIiBndWlkZXRvbGVyYW5jZT0iMTAiIGlkPSJuYW1lZHZpZXc2MTAxMyIgaW5rc2NhcGU6Y3VycmVudC1sYXllcj0ic3ZnNjEwMTEiIGlua3NjYXBlOmN4PSItMzMuMTQzMzAzIiBpbmtzY2FwZTpjeT0iMjQuNjk2NTQ0IiBpbmtzY2FwZTpwYWdlb3BhY2l0eT0iMCIgaW5rc2NhcGU6cGFnZXNoYWRvdz0iMiIgaW5rc2NhcGU6d2luZG93LWhlaWdodD0iMTAxNyIgaW5rc2NhcGU6d2luZG93LW1heGltaXplZD0iMSIgaW5rc2NhcGU6d2luZG93LXdpZHRoPSIxOTIwIiBpbmtzY2FwZTp3aW5kb3cteD0iLTgiIGlua3NjYXBlOndpbmRvdy15PSItOCIgaW5rc2NhcGU6em9vbT0iNS45MTg3NzA5IiBvYmplY3R0b2xlcmFuY2U9IjEwIiBwYWdlY29sb3I9IiNmZmZmZmYiIHNob3dncmlkPSJmYWxzZSI+JiN4YTsJPC9zb2RpcG9kaTpuYW1lZHZpZXc+JiN4YTsmI3hhOzxwYXRoIGlkPSJwYXRoNjA5MzMiIGlua3NjYXBlOmNvbm5lY3Rvci1jdXJ2YXR1cmU9IjAiIHN0eWxlPSJmaWxsOiM3YTdhN2EiIGQ9Ik0gMzcuMzksNDIuMTIgSCAzNi4wMSAyMi40MiAyMS43MSBjIDEuODgsNi42NSAtMC42NSw3LjYgLTExLjczLDcuNiB2IDMuNDggaCAxNC4xIDEwLjI5IDEzLjMgdiAtMy40OCBjIC0xMS4wOCwwIC0xMi4xNywtMC45NSAtMTAuMjgsLTcuNiB6Ii8+JiN4YTsmI3hhOzxwYXRoIGlkPSJwYXRoNjA5NDEiIGlua3NjYXBlOmNvbm5lY3Rvci1jdXJ2YXR1cmU9IjAiIHN0eWxlPSJmaWxsOiNhMGExYTIiIGQ9Ik0gNTQuMTYsMCBIIDMuMTMgQyAxLjQsMCAwLDEuNTUgMCwzLjI4IHYgMzUuNTkgYyAwLDEuNzIgMS40LDMuMjUgMy4xMywzLjI1IGggNTEuMDMgYyAxLjczLDAgMy40OCwtMS41MyAzLjQ4LC0zLjI1IFYgMy4yOCBDIDU3LjY0LDEuNTUgNTUuODksMCA1NC4xNiwwIFoiLz4mI3hhOyYjeGE7PHBhdGggaWQ9InBhdGg2MDk0OSIgaW5rc2NhcGU6Y29ubmVjdG9yLWN1cnZhdHVyZT0iMCIgc3R5bGU9ImZpbGw6I2ZmZmZmZjtmaWxsLW9wYWNpdHk6MC4yIiBkPSJNIDU0LjIsMCBDIDU0LjE5LDAgNTQuMTcsMCA1NC4xNiwwIEggMy4xMyBDIDEuNCwwIDAsMS41NSAwLDMuMjggdiAzNS41OSBjIDAsMS43MiAxLjQsMy4yNSAzLjEzLDMuMjUgaCAxLjIyIHoiLz4mI3hhOyYjeGE7PHJlY3QgaWQ9InJlY3Q2MDk1NyIgeD0iNC4zNjk5OTUxIiB5PSI0LjQ0MDAwMDEiIHN0eWxlPSJmaWxsOiM1OWI0ZDkiIHdpZHRoPSI0OC43Nzk5OTkiIGhlaWdodD0iMzMuMjUiLz4mI3hhOyYjeGE7JiN4YTsmI3hhOzxyZWN0IGlkPSJyZWN0NjA5NzMiIHg9IjkuOTc5OTk1NyIgeT0iNDkuNzIwMDAxIiBzdHlsZT0iZmlsbDojYTBhMWEyIiB3aWR0aD0iMzcuNjg5OTk5IiBoZWlnaHQ9IjMuNDgiLz4mI3hhOyYjeGE7PHBhdGggaWQ9InBhdGg2MDk4MSIgaW5rc2NhcGU6Y29ubmVjdG9yLWN1cnZhdHVyZT0iMCIgc3R5bGU9ImZpbGw6I2I4ZDQzMiIgZD0ibSAyOS40MiwyLjQyIGMgMCwwLjQ1IC0wLjM3LDAuODEgLTAuODIsMC44MSAtMC40NiwwIC0wLjgyLC0wLjM2IC0wLjgyLC0wLjgxIDAsLTAuNDYgMC4zNiwtMC44MiAwLjgyLC0wLjgyIDAuNDUsMCAwLjgyLDAuMzYgMC44MiwwLjgyIHoiLz4mI3hhOyYjeGE7PHBhdGggaWQ9InBhdGg2MDk4OSIgaW5rc2NhcGU6Y29ubmVjdG9yLWN1cnZhdHVyZT0iMCIgc3R5bGU9ImZpbGw6I2ZmZmZmZiIgZD0ibSAyOS40NSwyMC4wNSBjIC0wLjA2LDAgLTAuMTEsLTAuMDEgLTAuMTYsLTAuMDQgTCAxOS4xNCwxNC4xNSBjIC0wLjA5LC0wLjA1IC0wLjE1LC0wLjE2IC0wLjE1LC0wLjI2IDAsLTAuMTEgMC4wNiwtMC4yMiAwLjE1LC0wLjI3IEwgMjkuMjMsNy44IGMgMC4xLC0wLjA1IDAuMjEsLTAuMDUgMC4zLDAgbCAxMC4xNiw1Ljg2IGMgMC4wOSwwLjA1IDAuMTUsMC4xNiAwLjE1LDAuMjcgMCwwLjExIC0wLjA2LDAuMjEgLTAuMTUsMC4yNiBMIDI5LjYsMjAuMDEgYyAtMC4wNSwwLjAzIC0wLjEsMC4wNCAtMC4xNSwwLjA0IHoiLz4mI3hhOyYjeGE7PHBhdGggaWQ9InBhdGg2MDk5NyIgaW5rc2NhcGU6Y29ubmVjdG9yLWN1cnZhdHVyZT0iMCIgc3R5bGU9ImZpbGw6I2ZmZmZmZjtmaWxsLW9wYWNpdHk6MC43IiBkPSJtIDI3Ljk5LDM0LjI5IGMgLTAuMDYsMCAtMC4xMSwtMC4wMSAtMC4xNSwtMC4wNCBMIDE3LjcyLDI4LjQxIGMgLTAuMSwtMC4wNSAtMC4xNiwtMC4xNSAtMC4xNiwtMC4yNiBWIDE2LjQzIGMgMCwtMC4xMSAwLjA2LC0wLjIyIDAuMTYsLTAuMjcgMC4wOSwtMC4wNiAwLjIxLC0wLjA2IDAuMzEsMCBMIDI4LjE0LDIyIGMgMC4wOSwwLjA2IDAuMTUsMC4xNiAwLjE1LDAuMjcgdiAxMS43MiBjIDAsMC4xMSAtMC4wNiwwLjIxIC0wLjE1LDAuMjYgLTAuMDUsMC4wMyAtMC4xLDAuMDQgLTAuMTUsMC4wNCB6Ii8+JiN4YTsmI3hhOzxwYXRoIGlkPSJwYXRoNjEwMDUiIGlua3NjYXBlOmNvbm5lY3Rvci1jdXJ2YXR1cmU9IjAiIHN0eWxlPSJmaWxsOiNmZmZmZmY7ZmlsbC1vcGFjaXR5OjAuNCIgZD0iTSAzMC44NiwzNC4yOSBDIDMwLjgsMzQuMjkgMzAuNzUsMzQuMjggMzAuNywzNC4yNSAzMC42MSwzNC4yIDMwLjU1LDM0LjEgMzAuNTUsMzMuOTkgViAyMi4zNCBjIDAsLTAuMTEgMC4wNiwtMC4yMSAwLjE1LC0wLjI3IGwgMTAuMTIsLTUuODMgYyAwLjA5LC0wLjA2IDAuMjEsLTAuMDYgMC4zLDAgMC4xLDAuMDUgMC4xNiwwLjE1IDAuMTYsMC4yNiB2IDExLjY1IGMgMCwwLjExIC0wLjA2LDAuMjEgLTAuMTYsMC4yNiBsIC0xMC4xMSw1Ljg0IGMgLTAuMDQsMC4wMyAtMC4xLDAuMDQgLTAuMTUsMC4wNCB6Ii8+JiN4YTs8L3N2Zz4=;rounded=1;" parent="vbyWE2GeK1n_giPgyy7q-64" vertex="1">
          <mxGeometry width="58" height="53" as="geometry" />
        </mxCell>
        <mxCell id="vbyWE2GeK1n_giPgyy7q-55" value="S28APL1&#xa;10.6.0.128 " style="shape=image;verticalLabelPosition=bottom;labelBackgroundColor=#ffffff;verticalAlign=top;aspect=fixed;imageAspect=0;image=data:image/svg+xml,PHN2ZyB4bWxuczpkYz0iaHR0cDovL3B1cmwub3JnL2RjL2VsZW1lbnRzLzEuMS8iIHhtbG5zOmNjPSJodHRwOi8vY3JlYXRpdmVjb21tb25zLm9yZy9ucyMiIHhtbG5zOnJkZj0iaHR0cDovL3d3dy53My5vcmcvMTk5OS8wMi8yMi1yZGYtc3ludGF4LW5zIyIgeG1sbnM6c3ZnPSJodHRwOi8vd3d3LnczLm9yZy8yMDAwL3N2ZyIgeG1sbnM9Imh0dHA6Ly93d3cudzMub3JnLzIwMDAvc3ZnIiB4bWxuczpzb2RpcG9kaT0iaHR0cDovL3NvZGlwb2RpLnNvdXJjZWZvcmdlLm5ldC9EVEQvc29kaXBvZGktMC5kdGQiIHhtbG5zOmlua3NjYXBlPSJodHRwOi8vd3d3Lmlua3NjYXBlLm9yZy9uYW1lc3BhY2VzL2lua3NjYXBlIiB2ZXJzaW9uPSIxLjEiIGlkPSJzdmc2MTAxMSIgaW5rc2NhcGU6dmVyc2lvbj0iMC45Mi4zICgyNDA1NTQ2LCAyMDE4LTAzLTExKSIgc29kaXBvZGk6ZG9jbmFtZT0iYXp1cmVfcG9ydGFsX3ZpcnR1YWxfbWFjaGluZXMuc3ZnIiB4PSIwcHgiIHk9IjBweCIgdmlld0JveD0iMCAwIDU3LjY0IDUzLjIwMDAwMiIgeG1sOnNwYWNlPSJwcmVzZXJ2ZSIgd2lkdGg9IjU3LjYzOTk5OSIgaGVpZ2h0PSI1My4yMDAwMDEiPjxtZXRhZGF0YSBpZD0ibWV0YWRhdGExMDk5MCI+PHJkZjpSREY+PGNjOldvcmsgcmRmOmFib3V0PSIiPjxkYzpmb3JtYXQ+aW1hZ2Uvc3ZnK3htbDwvZGM6Zm9ybWF0PjxkYzp0eXBlIHJkZjpyZXNvdXJjZT0iaHR0cDovL3B1cmwub3JnL2RjL2RjbWl0eXBlL1N0aWxsSW1hZ2UiLz48ZGM6dGl0bGUvPjwvY2M6V29yaz48L3JkZjpSREY+PC9tZXRhZGF0YT48ZGVmcyBpZD0iZGVmczEwOTg4Ii8+JiN4YTs8ZmlsdGVyIGlkPSJmaWx0ZXJfMiI+JiN4YTsJPGZlR2F1c3NpYW5CbHVyIGlkPSJmZUdhdXNzaWFuQmx1cjYwOTIwIiBzdGREZXZpYXRpb249IjIiLz4mI3hhOzwvZmlsdGVyPiYjeGE7PHNvZGlwb2RpOm5hbWVkdmlldyBib3JkZXJjb2xvcj0iIzY2NjY2NiIgYm9yZGVyb3BhY2l0eT0iMSIgZml0LW1hcmdpbi1ib3R0b209IjAiIGZpdC1tYXJnaW4tbGVmdD0iMCIgZml0LW1hcmdpbi1yaWdodD0iMCIgZml0LW1hcmdpbi10b3A9IjAiIGdyaWR0b2xlcmFuY2U9IjEwIiBndWlkZXRvbGVyYW5jZT0iMTAiIGlkPSJuYW1lZHZpZXc2MTAxMyIgaW5rc2NhcGU6Y3VycmVudC1sYXllcj0ic3ZnNjEwMTEiIGlua3NjYXBlOmN4PSItMzMuMTQzMzAzIiBpbmtzY2FwZTpjeT0iMjQuNjk2NTQ0IiBpbmtzY2FwZTpwYWdlb3BhY2l0eT0iMCIgaW5rc2NhcGU6cGFnZXNoYWRvdz0iMiIgaW5rc2NhcGU6d2luZG93LWhlaWdodD0iMTAxNyIgaW5rc2NhcGU6d2luZG93LW1heGltaXplZD0iMSIgaW5rc2NhcGU6d2luZG93LXdpZHRoPSIxOTIwIiBpbmtzY2FwZTp3aW5kb3cteD0iLTgiIGlua3NjYXBlOndpbmRvdy15PSItOCIgaW5rc2NhcGU6em9vbT0iNS45MTg3NzA5IiBvYmplY3R0b2xlcmFuY2U9IjEwIiBwYWdlY29sb3I9IiNmZmZmZmYiIHNob3dncmlkPSJmYWxzZSI+JiN4YTsJPC9zb2RpcG9kaTpuYW1lZHZpZXc+JiN4YTsmI3hhOzxwYXRoIGlkPSJwYXRoNjA5MzMiIGlua3NjYXBlOmNvbm5lY3Rvci1jdXJ2YXR1cmU9IjAiIHN0eWxlPSJmaWxsOiM3YTdhN2EiIGQ9Ik0gMzcuMzksNDIuMTIgSCAzNi4wMSAyMi40MiAyMS43MSBjIDEuODgsNi42NSAtMC42NSw3LjYgLTExLjczLDcuNiB2IDMuNDggaCAxNC4xIDEwLjI5IDEzLjMgdiAtMy40OCBjIC0xMS4wOCwwIC0xMi4xNywtMC45NSAtMTAuMjgsLTcuNiB6Ii8+JiN4YTsmI3hhOzxwYXRoIGlkPSJwYXRoNjA5NDEiIGlua3NjYXBlOmNvbm5lY3Rvci1jdXJ2YXR1cmU9IjAiIHN0eWxlPSJmaWxsOiNhMGExYTIiIGQ9Ik0gNTQuMTYsMCBIIDMuMTMgQyAxLjQsMCAwLDEuNTUgMCwzLjI4IHYgMzUuNTkgYyAwLDEuNzIgMS40LDMuMjUgMy4xMywzLjI1IGggNTEuMDMgYyAxLjczLDAgMy40OCwtMS41MyAzLjQ4LC0zLjI1IFYgMy4yOCBDIDU3LjY0LDEuNTUgNTUuODksMCA1NC4xNiwwIFoiLz4mI3hhOyYjeGE7PHBhdGggaWQ9InBhdGg2MDk0OSIgaW5rc2NhcGU6Y29ubmVjdG9yLWN1cnZhdHVyZT0iMCIgc3R5bGU9ImZpbGw6I2ZmZmZmZjtmaWxsLW9wYWNpdHk6MC4yIiBkPSJNIDU0LjIsMCBDIDU0LjE5LDAgNTQuMTcsMCA1NC4xNiwwIEggMy4xMyBDIDEuNCwwIDAsMS41NSAwLDMuMjggdiAzNS41OSBjIDAsMS43MiAxLjQsMy4yNSAzLjEzLDMuMjUgaCAxLjIyIHoiLz4mI3hhOyYjeGE7PHJlY3QgaWQ9InJlY3Q2MDk1NyIgeD0iNC4zNjk5OTUxIiB5PSI0LjQ0MDAwMDEiIHN0eWxlPSJmaWxsOiM1OWI0ZDkiIHdpZHRoPSI0OC43Nzk5OTkiIGhlaWdodD0iMzMuMjUiLz4mI3hhOyYjeGE7JiN4YTsmI3hhOzxyZWN0IGlkPSJyZWN0NjA5NzMiIHg9IjkuOTc5OTk1NyIgeT0iNDkuNzIwMDAxIiBzdHlsZT0iZmlsbDojYTBhMWEyIiB3aWR0aD0iMzcuNjg5OTk5IiBoZWlnaHQ9IjMuNDgiLz4mI3hhOyYjeGE7PHBhdGggaWQ9InBhdGg2MDk4MSIgaW5rc2NhcGU6Y29ubmVjdG9yLWN1cnZhdHVyZT0iMCIgc3R5bGU9ImZpbGw6I2I4ZDQzMiIgZD0ibSAyOS40MiwyLjQyIGMgMCwwLjQ1IC0wLjM3LDAuODEgLTAuODIsMC44MSAtMC40NiwwIC0wLjgyLC0wLjM2IC0wLjgyLC0wLjgxIDAsLTAuNDYgMC4zNiwtMC44MiAwLjgyLC0wLjgyIDAuNDUsMCAwLjgyLDAuMzYgMC44MiwwLjgyIHoiLz4mI3hhOyYjeGE7PHBhdGggaWQ9InBhdGg2MDk4OSIgaW5rc2NhcGU6Y29ubmVjdG9yLWN1cnZhdHVyZT0iMCIgc3R5bGU9ImZpbGw6I2ZmZmZmZiIgZD0ibSAyOS40NSwyMC4wNSBjIC0wLjA2LDAgLTAuMTEsLTAuMDEgLTAuMTYsLTAuMDQgTCAxOS4xNCwxNC4xNSBjIC0wLjA5LC0wLjA1IC0wLjE1LC0wLjE2IC0wLjE1LC0wLjI2IDAsLTAuMTEgMC4wNiwtMC4yMiAwLjE1LC0wLjI3IEwgMjkuMjMsNy44IGMgMC4xLC0wLjA1IDAuMjEsLTAuMDUgMC4zLDAgbCAxMC4xNiw1Ljg2IGMgMC4wOSwwLjA1IDAuMTUsMC4xNiAwLjE1LDAuMjcgMCwwLjExIC0wLjA2LDAuMjEgLTAuMTUsMC4yNiBMIDI5LjYsMjAuMDEgYyAtMC4wNSwwLjAzIC0wLjEsMC4wNCAtMC4xNSwwLjA0IHoiLz4mI3hhOyYjeGE7PHBhdGggaWQ9InBhdGg2MDk5NyIgaW5rc2NhcGU6Y29ubmVjdG9yLWN1cnZhdHVyZT0iMCIgc3R5bGU9ImZpbGw6I2ZmZmZmZjtmaWxsLW9wYWNpdHk6MC43IiBkPSJtIDI3Ljk5LDM0LjI5IGMgLTAuMDYsMCAtMC4xMSwtMC4wMSAtMC4xNSwtMC4wNCBMIDE3LjcyLDI4LjQxIGMgLTAuMSwtMC4wNSAtMC4xNiwtMC4xNSAtMC4xNiwtMC4yNiBWIDE2LjQzIGMgMCwtMC4xMSAwLjA2LC0wLjIyIDAuMTYsLTAuMjcgMC4wOSwtMC4wNiAwLjIxLC0wLjA2IDAuMzEsMCBMIDI4LjE0LDIyIGMgMC4wOSwwLjA2IDAuMTUsMC4xNiAwLjE1LDAuMjcgdiAxMS43MiBjIDAsMC4xMSAtMC4wNiwwLjIxIC0wLjE1LDAuMjYgLTAuMDUsMC4wMyAtMC4xLDAuMDQgLTAuMTUsMC4wNCB6Ii8+JiN4YTsmI3hhOzxwYXRoIGlkPSJwYXRoNjEwMDUiIGlua3NjYXBlOmNvbm5lY3Rvci1jdXJ2YXR1cmU9IjAiIHN0eWxlPSJmaWxsOiNmZmZmZmY7ZmlsbC1vcGFjaXR5OjAuNCIgZD0iTSAzMC44NiwzNC4yOSBDIDMwLjgsMzQuMjkgMzAuNzUsMzQuMjggMzAuNywzNC4yNSAzMC42MSwzNC4yIDMwLjU1LDM0LjEgMzAuNTUsMzMuOTkgViAyMi4zNCBjIDAsLTAuMTEgMC4wNiwtMC4yMSAwLjE1LC0wLjI3IGwgMTAuMTIsLTUuODMgYyAwLjA5LC0wLjA2IDAuMjEsLTAuMDYgMC4zLDAgMC4xLDAuMDUgMC4xNiwwLjE1IDAuMTYsMC4yNiB2IDExLjY1IGMgMCwwLjExIC0wLjA2LDAuMjEgLTAuMTYsMC4yNiBsIC0xMC4xMSw1Ljg0IGMgLTAuMDQsMC4wMyAtMC4xLDAuMDQgLTAuMTUsMC4wNCB6Ii8+JiN4YTs8L3N2Zz4=;rounded=1;" parent="vbyWE2GeK1n_giPgyy7q-64" vertex="1">
          <mxGeometry y="270" width="58" height="53" as="geometry" />
        </mxCell>
        <mxCell id="vbyWE2GeK1n_giPgyy7q-56" value="S28NFE&#xa;10.6.0.139 " style="shape=image;verticalLabelPosition=bottom;labelBackgroundColor=#ffffff;verticalAlign=top;aspect=fixed;imageAspect=0;image=data:image/svg+xml,PHN2ZyB4bWxuczpkYz0iaHR0cDovL3B1cmwub3JnL2RjL2VsZW1lbnRzLzEuMS8iIHhtbG5zOmNjPSJodHRwOi8vY3JlYXRpdmVjb21tb25zLm9yZy9ucyMiIHhtbG5zOnJkZj0iaHR0cDovL3d3dy53My5vcmcvMTk5OS8wMi8yMi1yZGYtc3ludGF4LW5zIyIgeG1sbnM6c3ZnPSJodHRwOi8vd3d3LnczLm9yZy8yMDAwL3N2ZyIgeG1sbnM9Imh0dHA6Ly93d3cudzMub3JnLzIwMDAvc3ZnIiB4bWxuczpzb2RpcG9kaT0iaHR0cDovL3NvZGlwb2RpLnNvdXJjZWZvcmdlLm5ldC9EVEQvc29kaXBvZGktMC5kdGQiIHhtbG5zOmlua3NjYXBlPSJodHRwOi8vd3d3Lmlua3NjYXBlLm9yZy9uYW1lc3BhY2VzL2lua3NjYXBlIiB2ZXJzaW9uPSIxLjEiIGlkPSJzdmc2MTAxMSIgaW5rc2NhcGU6dmVyc2lvbj0iMC45Mi4zICgyNDA1NTQ2LCAyMDE4LTAzLTExKSIgc29kaXBvZGk6ZG9jbmFtZT0iYXp1cmVfcG9ydGFsX3ZpcnR1YWxfbWFjaGluZXMuc3ZnIiB4PSIwcHgiIHk9IjBweCIgdmlld0JveD0iMCAwIDU3LjY0IDUzLjIwMDAwMiIgeG1sOnNwYWNlPSJwcmVzZXJ2ZSIgd2lkdGg9IjU3LjYzOTk5OSIgaGVpZ2h0PSI1My4yMDAwMDEiPjxtZXRhZGF0YSBpZD0ibWV0YWRhdGExMDk5MCI+PHJkZjpSREY+PGNjOldvcmsgcmRmOmFib3V0PSIiPjxkYzpmb3JtYXQ+aW1hZ2Uvc3ZnK3htbDwvZGM6Zm9ybWF0PjxkYzp0eXBlIHJkZjpyZXNvdXJjZT0iaHR0cDovL3B1cmwub3JnL2RjL2RjbWl0eXBlL1N0aWxsSW1hZ2UiLz48ZGM6dGl0bGUvPjwvY2M6V29yaz48L3JkZjpSREY+PC9tZXRhZGF0YT48ZGVmcyBpZD0iZGVmczEwOTg4Ii8+JiN4YTs8ZmlsdGVyIGlkPSJmaWx0ZXJfMiI+JiN4YTsJPGZlR2F1c3NpYW5CbHVyIGlkPSJmZUdhdXNzaWFuQmx1cjYwOTIwIiBzdGREZXZpYXRpb249IjIiLz4mI3hhOzwvZmlsdGVyPiYjeGE7PHNvZGlwb2RpOm5hbWVkdmlldyBib3JkZXJjb2xvcj0iIzY2NjY2NiIgYm9yZGVyb3BhY2l0eT0iMSIgZml0LW1hcmdpbi1ib3R0b209IjAiIGZpdC1tYXJnaW4tbGVmdD0iMCIgZml0LW1hcmdpbi1yaWdodD0iMCIgZml0LW1hcmdpbi10b3A9IjAiIGdyaWR0b2xlcmFuY2U9IjEwIiBndWlkZXRvbGVyYW5jZT0iMTAiIGlkPSJuYW1lZHZpZXc2MTAxMyIgaW5rc2NhcGU6Y3VycmVudC1sYXllcj0ic3ZnNjEwMTEiIGlua3NjYXBlOmN4PSItMzMuMTQzMzAzIiBpbmtzY2FwZTpjeT0iMjQuNjk2NTQ0IiBpbmtzY2FwZTpwYWdlb3BhY2l0eT0iMCIgaW5rc2NhcGU6cGFnZXNoYWRvdz0iMiIgaW5rc2NhcGU6d2luZG93LWhlaWdodD0iMTAxNyIgaW5rc2NhcGU6d2luZG93LW1heGltaXplZD0iMSIgaW5rc2NhcGU6d2luZG93LXdpZHRoPSIxOTIwIiBpbmtzY2FwZTp3aW5kb3cteD0iLTgiIGlua3NjYXBlOndpbmRvdy15PSItOCIgaW5rc2NhcGU6em9vbT0iNS45MTg3NzA5IiBvYmplY3R0b2xlcmFuY2U9IjEwIiBwYWdlY29sb3I9IiNmZmZmZmYiIHNob3dncmlkPSJmYWxzZSI+JiN4YTsJPC9zb2RpcG9kaTpuYW1lZHZpZXc+JiN4YTsmI3hhOzxwYXRoIGlkPSJwYXRoNjA5MzMiIGlua3NjYXBlOmNvbm5lY3Rvci1jdXJ2YXR1cmU9IjAiIHN0eWxlPSJmaWxsOiM3YTdhN2EiIGQ9Ik0gMzcuMzksNDIuMTIgSCAzNi4wMSAyMi40MiAyMS43MSBjIDEuODgsNi42NSAtMC42NSw3LjYgLTExLjczLDcuNiB2IDMuNDggaCAxNC4xIDEwLjI5IDEzLjMgdiAtMy40OCBjIC0xMS4wOCwwIC0xMi4xNywtMC45NSAtMTAuMjgsLTcuNiB6Ii8+JiN4YTsmI3hhOzxwYXRoIGlkPSJwYXRoNjA5NDEiIGlua3NjYXBlOmNvbm5lY3Rvci1jdXJ2YXR1cmU9IjAiIHN0eWxlPSJmaWxsOiNhMGExYTIiIGQ9Ik0gNTQuMTYsMCBIIDMuMTMgQyAxLjQsMCAwLDEuNTUgMCwzLjI4IHYgMzUuNTkgYyAwLDEuNzIgMS40LDMuMjUgMy4xMywzLjI1IGggNTEuMDMgYyAxLjczLDAgMy40OCwtMS41MyAzLjQ4LC0zLjI1IFYgMy4yOCBDIDU3LjY0LDEuNTUgNTUuODksMCA1NC4xNiwwIFoiLz4mI3hhOyYjeGE7PHBhdGggaWQ9InBhdGg2MDk0OSIgaW5rc2NhcGU6Y29ubmVjdG9yLWN1cnZhdHVyZT0iMCIgc3R5bGU9ImZpbGw6I2ZmZmZmZjtmaWxsLW9wYWNpdHk6MC4yIiBkPSJNIDU0LjIsMCBDIDU0LjE5LDAgNTQuMTcsMCA1NC4xNiwwIEggMy4xMyBDIDEuNCwwIDAsMS41NSAwLDMuMjggdiAzNS41OSBjIDAsMS43MiAxLjQsMy4yNSAzLjEzLDMuMjUgaCAxLjIyIHoiLz4mI3hhOyYjeGE7PHJlY3QgaWQ9InJlY3Q2MDk1NyIgeD0iNC4zNjk5OTUxIiB5PSI0LjQ0MDAwMDEiIHN0eWxlPSJmaWxsOiM1OWI0ZDkiIHdpZHRoPSI0OC43Nzk5OTkiIGhlaWdodD0iMzMuMjUiLz4mI3hhOyYjeGE7JiN4YTsmI3hhOzxyZWN0IGlkPSJyZWN0NjA5NzMiIHg9IjkuOTc5OTk1NyIgeT0iNDkuNzIwMDAxIiBzdHlsZT0iZmlsbDojYTBhMWEyIiB3aWR0aD0iMzcuNjg5OTk5IiBoZWlnaHQ9IjMuNDgiLz4mI3hhOyYjeGE7PHBhdGggaWQ9InBhdGg2MDk4MSIgaW5rc2NhcGU6Y29ubmVjdG9yLWN1cnZhdHVyZT0iMCIgc3R5bGU9ImZpbGw6I2I4ZDQzMiIgZD0ibSAyOS40MiwyLjQyIGMgMCwwLjQ1IC0wLjM3LDAuODEgLTAuODIsMC44MSAtMC40NiwwIC0wLjgyLC0wLjM2IC0wLjgyLC0wLjgxIDAsLTAuNDYgMC4zNiwtMC44MiAwLjgyLC0wLjgyIDAuNDUsMCAwLjgyLDAuMzYgMC44MiwwLjgyIHoiLz4mI3hhOyYjeGE7PHBhdGggaWQ9InBhdGg2MDk4OSIgaW5rc2NhcGU6Y29ubmVjdG9yLWN1cnZhdHVyZT0iMCIgc3R5bGU9ImZpbGw6I2ZmZmZmZiIgZD0ibSAyOS40NSwyMC4wNSBjIC0wLjA2LDAgLTAuMTEsLTAuMDEgLTAuMTYsLTAuMDQgTCAxOS4xNCwxNC4xNSBjIC0wLjA5LC0wLjA1IC0wLjE1LC0wLjE2IC0wLjE1LC0wLjI2IDAsLTAuMTEgMC4wNiwtMC4yMiAwLjE1LC0wLjI3IEwgMjkuMjMsNy44IGMgMC4xLC0wLjA1IDAuMjEsLTAuMDUgMC4zLDAgbCAxMC4xNiw1Ljg2IGMgMC4wOSwwLjA1IDAuMTUsMC4xNiAwLjE1LDAuMjcgMCwwLjExIC0wLjA2LDAuMjEgLTAuMTUsMC4yNiBMIDI5LjYsMjAuMDEgYyAtMC4wNSwwLjAzIC0wLjEsMC4wNCAtMC4xNSwwLjA0IHoiLz4mI3hhOyYjeGE7PHBhdGggaWQ9InBhdGg2MDk5NyIgaW5rc2NhcGU6Y29ubmVjdG9yLWN1cnZhdHVyZT0iMCIgc3R5bGU9ImZpbGw6I2ZmZmZmZjtmaWxsLW9wYWNpdHk6MC43IiBkPSJtIDI3Ljk5LDM0LjI5IGMgLTAuMDYsMCAtMC4xMSwtMC4wMSAtMC4xNSwtMC4wNCBMIDE3LjcyLDI4LjQxIGMgLTAuMSwtMC4wNSAtMC4xNiwtMC4xNSAtMC4xNiwtMC4yNiBWIDE2LjQzIGMgMCwtMC4xMSAwLjA2LC0wLjIyIDAuMTYsLTAuMjcgMC4wOSwtMC4wNiAwLjIxLC0wLjA2IDAuMzEsMCBMIDI4LjE0LDIyIGMgMC4wOSwwLjA2IDAuMTUsMC4xNiAwLjE1LDAuMjcgdiAxMS43MiBjIDAsMC4xMSAtMC4wNiwwLjIxIC0wLjE1LDAuMjYgLTAuMDUsMC4wMyAtMC4xLDAuMDQgLTAuMTUsMC4wNCB6Ii8+JiN4YTsmI3hhOzxwYXRoIGlkPSJwYXRoNjEwMDUiIGlua3NjYXBlOmNvbm5lY3Rvci1jdXJ2YXR1cmU9IjAiIHN0eWxlPSJmaWxsOiNmZmZmZmY7ZmlsbC1vcGFjaXR5OjAuNCIgZD0iTSAzMC44NiwzNC4yOSBDIDMwLjgsMzQuMjkgMzAuNzUsMzQuMjggMzAuNywzNC4yNSAzMC42MSwzNC4yIDMwLjU1LDM0LjEgMzAuNTUsMzMuOTkgViAyMi4zNCBjIDAsLTAuMTEgMC4wNiwtMC4yMSAwLjE1LC0wLjI3IGwgMTAuMTIsLTUuODMgYyAwLjA5LC0wLjA2IDAuMjEsLTAuMDYgMC4zLDAgMC4xLDAuMDUgMC4xNiwwLjE1IDAuMTYsMC4yNiB2IDExLjY1IGMgMCwwLjExIC0wLjA2LDAuMjEgLTAuMTYsMC4yNiBsIC0xMC4xMSw1Ljg0IGMgLTAuMDQsMC4wMyAtMC4xLDAuMDQgLTAuMTUsMC4wNCB6Ii8+JiN4YTs8L3N2Zz4=;rounded=1;" parent="vbyWE2GeK1n_giPgyy7q-64" vertex="1">
          <mxGeometry y="180" width="58" height="53" as="geometry" />
        </mxCell>
        <mxCell id="vbyWE2GeK1n_giPgyy7q-57" value="S28TS1&#xa;10.6.0.36 " style="shape=image;verticalLabelPosition=bottom;labelBackgroundColor=#ffffff;verticalAlign=top;aspect=fixed;imageAspect=0;image=data:image/svg+xml,PHN2ZyB4bWxuczpkYz0iaHR0cDovL3B1cmwub3JnL2RjL2VsZW1lbnRzLzEuMS8iIHhtbG5zOmNjPSJodHRwOi8vY3JlYXRpdmVjb21tb25zLm9yZy9ucyMiIHhtbG5zOnJkZj0iaHR0cDovL3d3dy53My5vcmcvMTk5OS8wMi8yMi1yZGYtc3ludGF4LW5zIyIgeG1sbnM6c3ZnPSJodHRwOi8vd3d3LnczLm9yZy8yMDAwL3N2ZyIgeG1sbnM9Imh0dHA6Ly93d3cudzMub3JnLzIwMDAvc3ZnIiB4bWxuczpzb2RpcG9kaT0iaHR0cDovL3NvZGlwb2RpLnNvdXJjZWZvcmdlLm5ldC9EVEQvc29kaXBvZGktMC5kdGQiIHhtbG5zOmlua3NjYXBlPSJodHRwOi8vd3d3Lmlua3NjYXBlLm9yZy9uYW1lc3BhY2VzL2lua3NjYXBlIiB2ZXJzaW9uPSIxLjEiIGlkPSJzdmc2MTAxMSIgaW5rc2NhcGU6dmVyc2lvbj0iMC45Mi4zICgyNDA1NTQ2LCAyMDE4LTAzLTExKSIgc29kaXBvZGk6ZG9jbmFtZT0iYXp1cmVfcG9ydGFsX3ZpcnR1YWxfbWFjaGluZXMuc3ZnIiB4PSIwcHgiIHk9IjBweCIgdmlld0JveD0iMCAwIDU3LjY0IDUzLjIwMDAwMiIgeG1sOnNwYWNlPSJwcmVzZXJ2ZSIgd2lkdGg9IjU3LjYzOTk5OSIgaGVpZ2h0PSI1My4yMDAwMDEiPjxtZXRhZGF0YSBpZD0ibWV0YWRhdGExMDk5MCI+PHJkZjpSREY+PGNjOldvcmsgcmRmOmFib3V0PSIiPjxkYzpmb3JtYXQ+aW1hZ2Uvc3ZnK3htbDwvZGM6Zm9ybWF0PjxkYzp0eXBlIHJkZjpyZXNvdXJjZT0iaHR0cDovL3B1cmwub3JnL2RjL2RjbWl0eXBlL1N0aWxsSW1hZ2UiLz48ZGM6dGl0bGUvPjwvY2M6V29yaz48L3JkZjpSREY+PC9tZXRhZGF0YT48ZGVmcyBpZD0iZGVmczEwOTg4Ii8+JiN4YTs8ZmlsdGVyIGlkPSJmaWx0ZXJfMiI+JiN4YTsJPGZlR2F1c3NpYW5CbHVyIGlkPSJmZUdhdXNzaWFuQmx1cjYwOTIwIiBzdGREZXZpYXRpb249IjIiLz4mI3hhOzwvZmlsdGVyPiYjeGE7PHNvZGlwb2RpOm5hbWVkdmlldyBib3JkZXJjb2xvcj0iIzY2NjY2NiIgYm9yZGVyb3BhY2l0eT0iMSIgZml0LW1hcmdpbi1ib3R0b209IjAiIGZpdC1tYXJnaW4tbGVmdD0iMCIgZml0LW1hcmdpbi1yaWdodD0iMCIgZml0LW1hcmdpbi10b3A9IjAiIGdyaWR0b2xlcmFuY2U9IjEwIiBndWlkZXRvbGVyYW5jZT0iMTAiIGlkPSJuYW1lZHZpZXc2MTAxMyIgaW5rc2NhcGU6Y3VycmVudC1sYXllcj0ic3ZnNjEwMTEiIGlua3NjYXBlOmN4PSItMzMuMTQzMzAzIiBpbmtzY2FwZTpjeT0iMjQuNjk2NTQ0IiBpbmtzY2FwZTpwYWdlb3BhY2l0eT0iMCIgaW5rc2NhcGU6cGFnZXNoYWRvdz0iMiIgaW5rc2NhcGU6d2luZG93LWhlaWdodD0iMTAxNyIgaW5rc2NhcGU6d2luZG93LW1heGltaXplZD0iMSIgaW5rc2NhcGU6d2luZG93LXdpZHRoPSIxOTIwIiBpbmtzY2FwZTp3aW5kb3cteD0iLTgiIGlua3NjYXBlOndpbmRvdy15PSItOCIgaW5rc2NhcGU6em9vbT0iNS45MTg3NzA5IiBvYmplY3R0b2xlcmFuY2U9IjEwIiBwYWdlY29sb3I9IiNmZmZmZmYiIHNob3dncmlkPSJmYWxzZSI+JiN4YTsJPC9zb2RpcG9kaTpuYW1lZHZpZXc+JiN4YTsmI3hhOzxwYXRoIGlkPSJwYXRoNjA5MzMiIGlua3NjYXBlOmNvbm5lY3Rvci1jdXJ2YXR1cmU9IjAiIHN0eWxlPSJmaWxsOiM3YTdhN2EiIGQ9Ik0gMzcuMzksNDIuMTIgSCAzNi4wMSAyMi40MiAyMS43MSBjIDEuODgsNi42NSAtMC42NSw3LjYgLTExLjczLDcuNiB2IDMuNDggaCAxNC4xIDEwLjI5IDEzLjMgdiAtMy40OCBjIC0xMS4wOCwwIC0xMi4xNywtMC45NSAtMTAuMjgsLTcuNiB6Ii8+JiN4YTsmI3hhOzxwYXRoIGlkPSJwYXRoNjA5NDEiIGlua3NjYXBlOmNvbm5lY3Rvci1jdXJ2YXR1cmU9IjAiIHN0eWxlPSJmaWxsOiNhMGExYTIiIGQ9Ik0gNTQuMTYsMCBIIDMuMTMgQyAxLjQsMCAwLDEuNTUgMCwzLjI4IHYgMzUuNTkgYyAwLDEuNzIgMS40LDMuMjUgMy4xMywzLjI1IGggNTEuMDMgYyAxLjczLDAgMy40OCwtMS41MyAzLjQ4LC0zLjI1IFYgMy4yOCBDIDU3LjY0LDEuNTUgNTUuODksMCA1NC4xNiwwIFoiLz4mI3hhOyYjeGE7PHBhdGggaWQ9InBhdGg2MDk0OSIgaW5rc2NhcGU6Y29ubmVjdG9yLWN1cnZhdHVyZT0iMCIgc3R5bGU9ImZpbGw6I2ZmZmZmZjtmaWxsLW9wYWNpdHk6MC4yIiBkPSJNIDU0LjIsMCBDIDU0LjE5LDAgNTQuMTcsMCA1NC4xNiwwIEggMy4xMyBDIDEuNCwwIDAsMS41NSAwLDMuMjggdiAzNS41OSBjIDAsMS43MiAxLjQsMy4yNSAzLjEzLDMuMjUgaCAxLjIyIHoiLz4mI3hhOyYjeGE7PHJlY3QgaWQ9InJlY3Q2MDk1NyIgeD0iNC4zNjk5OTUxIiB5PSI0LjQ0MDAwMDEiIHN0eWxlPSJmaWxsOiM1OWI0ZDkiIHdpZHRoPSI0OC43Nzk5OTkiIGhlaWdodD0iMzMuMjUiLz4mI3hhOyYjeGE7JiN4YTsmI3hhOzxyZWN0IGlkPSJyZWN0NjA5NzMiIHg9IjkuOTc5OTk1NyIgeT0iNDkuNzIwMDAxIiBzdHlsZT0iZmlsbDojYTBhMWEyIiB3aWR0aD0iMzcuNjg5OTk5IiBoZWlnaHQ9IjMuNDgiLz4mI3hhOyYjeGE7PHBhdGggaWQ9InBhdGg2MDk4MSIgaW5rc2NhcGU6Y29ubmVjdG9yLWN1cnZhdHVyZT0iMCIgc3R5bGU9ImZpbGw6I2I4ZDQzMiIgZD0ibSAyOS40MiwyLjQyIGMgMCwwLjQ1IC0wLjM3LDAuODEgLTAuODIsMC44MSAtMC40NiwwIC0wLjgyLC0wLjM2IC0wLjgyLC0wLjgxIDAsLTAuNDYgMC4zNiwtMC44MiAwLjgyLC0wLjgyIDAuNDUsMCAwLjgyLDAuMzYgMC44MiwwLjgyIHoiLz4mI3hhOyYjeGE7PHBhdGggaWQ9InBhdGg2MDk4OSIgaW5rc2NhcGU6Y29ubmVjdG9yLWN1cnZhdHVyZT0iMCIgc3R5bGU9ImZpbGw6I2ZmZmZmZiIgZD0ibSAyOS40NSwyMC4wNSBjIC0wLjA2LDAgLTAuMTEsLTAuMDEgLTAuMTYsLTAuMDQgTCAxOS4xNCwxNC4xNSBjIC0wLjA5LC0wLjA1IC0wLjE1LC0wLjE2IC0wLjE1LC0wLjI2IDAsLTAuMTEgMC4wNiwtMC4yMiAwLjE1LC0wLjI3IEwgMjkuMjMsNy44IGMgMC4xLC0wLjA1IDAuMjEsLTAuMDUgMC4zLDAgbCAxMC4xNiw1Ljg2IGMgMC4wOSwwLjA1IDAuMTUsMC4xNiAwLjE1LDAuMjcgMCwwLjExIC0wLjA2LDAuMjEgLTAuMTUsMC4yNiBMIDI5LjYsMjAuMDEgYyAtMC4wNSwwLjAzIC0wLjEsMC4wNCAtMC4xNSwwLjA0IHoiLz4mI3hhOyYjeGE7PHBhdGggaWQ9InBhdGg2MDk5NyIgaW5rc2NhcGU6Y29ubmVjdG9yLWN1cnZhdHVyZT0iMCIgc3R5bGU9ImZpbGw6I2ZmZmZmZjtmaWxsLW9wYWNpdHk6MC43IiBkPSJtIDI3Ljk5LDM0LjI5IGMgLTAuMDYsMCAtMC4xMSwtMC4wMSAtMC4xNSwtMC4wNCBMIDE3LjcyLDI4LjQxIGMgLTAuMSwtMC4wNSAtMC4xNiwtMC4xNSAtMC4xNiwtMC4yNiBWIDE2LjQzIGMgMCwtMC4xMSAwLjA2LC0wLjIyIDAuMTYsLTAuMjcgMC4wOSwtMC4wNiAwLjIxLC0wLjA2IDAuMzEsMCBMIDI4LjE0LDIyIGMgMC4wOSwwLjA2IDAuMTUsMC4xNiAwLjE1LDAuMjcgdiAxMS43MiBjIDAsMC4xMSAtMC4wNiwwLjIxIC0wLjE1LDAuMjYgLTAuMDUsMC4wMyAtMC4xLDAuMDQgLTAuMTUsMC4wNCB6Ii8+JiN4YTsmI3hhOzxwYXRoIGlkPSJwYXRoNjEwMDUiIGlua3NjYXBlOmNvbm5lY3Rvci1jdXJ2YXR1cmU9IjAiIHN0eWxlPSJmaWxsOiNmZmZmZmY7ZmlsbC1vcGFjaXR5OjAuNCIgZD0iTSAzMC44NiwzNC4yOSBDIDMwLjgsMzQuMjkgMzAuNzUsMzQuMjggMzAuNywzNC4yNSAzMC42MSwzNC4yIDMwLjU1LDM0LjEgMzAuNTUsMzMuOTkgViAyMi4zNCBjIDAsLTAuMTEgMC4wNiwtMC4yMSAwLjE1LC0wLjI3IGwgMTAuMTIsLTUuODMgYyAwLjA5LC0wLjA2IDAuMjEsLTAuMDYgMC4zLDAgMC4xLDAuMDUgMC4xNiwwLjE1IDAuMTYsMC4yNiB2IDExLjY1IGMgMCwwLjExIC0wLjA2LDAuMjEgLTAuMTYsMC4yNiBsIC0xMC4xMSw1Ljg0IGMgLTAuMDQsMC4wMyAtMC4xLDAuMDQgLTAuMTUsMC4wNCB6Ii8+JiN4YTs8L3N2Zz4=;rounded=1;" parent="vbyWE2GeK1n_giPgyy7q-64" vertex="1">
          <mxGeometry y="90" width="58" height="53" as="geometry" />
        </mxCell>
        <mxCell id="vbyWE2GeK1n_giPgyy7q-60" value="S28TVCORP&#xa;10.6.0.9 &#xa;" style="shape=image;verticalLabelPosition=bottom;labelBackgroundColor=#ffffff;verticalAlign=top;aspect=fixed;imageAspect=0;image=data:image/svg+xml,PHN2ZyB4bWxuczpkYz0iaHR0cDovL3B1cmwub3JnL2RjL2VsZW1lbnRzLzEuMS8iIHhtbG5zOmNjPSJodHRwOi8vY3JlYXRpdmVjb21tb25zLm9yZy9ucyMiIHhtbG5zOnJkZj0iaHR0cDovL3d3dy53My5vcmcvMTk5OS8wMi8yMi1yZGYtc3ludGF4LW5zIyIgeG1sbnM6c3ZnPSJodHRwOi8vd3d3LnczLm9yZy8yMDAwL3N2ZyIgeG1sbnM9Imh0dHA6Ly93d3cudzMub3JnLzIwMDAvc3ZnIiB4bWxuczpzb2RpcG9kaT0iaHR0cDovL3NvZGlwb2RpLnNvdXJjZWZvcmdlLm5ldC9EVEQvc29kaXBvZGktMC5kdGQiIHhtbG5zOmlua3NjYXBlPSJodHRwOi8vd3d3Lmlua3NjYXBlLm9yZy9uYW1lc3BhY2VzL2lua3NjYXBlIiB2ZXJzaW9uPSIxLjEiIGlkPSJzdmc2MTAxMSIgaW5rc2NhcGU6dmVyc2lvbj0iMC45Mi4zICgyNDA1NTQ2LCAyMDE4LTAzLTExKSIgc29kaXBvZGk6ZG9jbmFtZT0iYXp1cmVfcG9ydGFsX3ZpcnR1YWxfbWFjaGluZXMuc3ZnIiB4PSIwcHgiIHk9IjBweCIgdmlld0JveD0iMCAwIDU3LjY0IDUzLjIwMDAwMiIgeG1sOnNwYWNlPSJwcmVzZXJ2ZSIgd2lkdGg9IjU3LjYzOTk5OSIgaGVpZ2h0PSI1My4yMDAwMDEiPjxtZXRhZGF0YSBpZD0ibWV0YWRhdGExMDk5MCI+PHJkZjpSREY+PGNjOldvcmsgcmRmOmFib3V0PSIiPjxkYzpmb3JtYXQ+aW1hZ2Uvc3ZnK3htbDwvZGM6Zm9ybWF0PjxkYzp0eXBlIHJkZjpyZXNvdXJjZT0iaHR0cDovL3B1cmwub3JnL2RjL2RjbWl0eXBlL1N0aWxsSW1hZ2UiLz48ZGM6dGl0bGUvPjwvY2M6V29yaz48L3JkZjpSREY+PC9tZXRhZGF0YT48ZGVmcyBpZD0iZGVmczEwOTg4Ii8+JiN4YTs8ZmlsdGVyIGlkPSJmaWx0ZXJfMiI+JiN4YTsJPGZlR2F1c3NpYW5CbHVyIGlkPSJmZUdhdXNzaWFuQmx1cjYwOTIwIiBzdGREZXZpYXRpb249IjIiLz4mI3hhOzwvZmlsdGVyPiYjeGE7PHNvZGlwb2RpOm5hbWVkdmlldyBib3JkZXJjb2xvcj0iIzY2NjY2NiIgYm9yZGVyb3BhY2l0eT0iMSIgZml0LW1hcmdpbi1ib3R0b209IjAiIGZpdC1tYXJnaW4tbGVmdD0iMCIgZml0LW1hcmdpbi1yaWdodD0iMCIgZml0LW1hcmdpbi10b3A9IjAiIGdyaWR0b2xlcmFuY2U9IjEwIiBndWlkZXRvbGVyYW5jZT0iMTAiIGlkPSJuYW1lZHZpZXc2MTAxMyIgaW5rc2NhcGU6Y3VycmVudC1sYXllcj0ic3ZnNjEwMTEiIGlua3NjYXBlOmN4PSItMzMuMTQzMzAzIiBpbmtzY2FwZTpjeT0iMjQuNjk2NTQ0IiBpbmtzY2FwZTpwYWdlb3BhY2l0eT0iMCIgaW5rc2NhcGU6cGFnZXNoYWRvdz0iMiIgaW5rc2NhcGU6d2luZG93LWhlaWdodD0iMTAxNyIgaW5rc2NhcGU6d2luZG93LW1heGltaXplZD0iMSIgaW5rc2NhcGU6d2luZG93LXdpZHRoPSIxOTIwIiBpbmtzY2FwZTp3aW5kb3cteD0iLTgiIGlua3NjYXBlOndpbmRvdy15PSItOCIgaW5rc2NhcGU6em9vbT0iNS45MTg3NzA5IiBvYmplY3R0b2xlcmFuY2U9IjEwIiBwYWdlY29sb3I9IiNmZmZmZmYiIHNob3dncmlkPSJmYWxzZSI+JiN4YTsJPC9zb2RpcG9kaTpuYW1lZHZpZXc+JiN4YTsmI3hhOzxwYXRoIGlkPSJwYXRoNjA5MzMiIGlua3NjYXBlOmNvbm5lY3Rvci1jdXJ2YXR1cmU9IjAiIHN0eWxlPSJmaWxsOiM3YTdhN2EiIGQ9Ik0gMzcuMzksNDIuMTIgSCAzNi4wMSAyMi40MiAyMS43MSBjIDEuODgsNi42NSAtMC42NSw3LjYgLTExLjczLDcuNiB2IDMuNDggaCAxNC4xIDEwLjI5IDEzLjMgdiAtMy40OCBjIC0xMS4wOCwwIC0xMi4xNywtMC45NSAtMTAuMjgsLTcuNiB6Ii8+JiN4YTsmI3hhOzxwYXRoIGlkPSJwYXRoNjA5NDEiIGlua3NjYXBlOmNvbm5lY3Rvci1jdXJ2YXR1cmU9IjAiIHN0eWxlPSJmaWxsOiNhMGExYTIiIGQ9Ik0gNTQuMTYsMCBIIDMuMTMgQyAxLjQsMCAwLDEuNTUgMCwzLjI4IHYgMzUuNTkgYyAwLDEuNzIgMS40LDMuMjUgMy4xMywzLjI1IGggNTEuMDMgYyAxLjczLDAgMy40OCwtMS41MyAzLjQ4LC0zLjI1IFYgMy4yOCBDIDU3LjY0LDEuNTUgNTUuODksMCA1NC4xNiwwIFoiLz4mI3hhOyYjeGE7PHBhdGggaWQ9InBhdGg2MDk0OSIgaW5rc2NhcGU6Y29ubmVjdG9yLWN1cnZhdHVyZT0iMCIgc3R5bGU9ImZpbGw6I2ZmZmZmZjtmaWxsLW9wYWNpdHk6MC4yIiBkPSJNIDU0LjIsMCBDIDU0LjE5LDAgNTQuMTcsMCA1NC4xNiwwIEggMy4xMyBDIDEuNCwwIDAsMS41NSAwLDMuMjggdiAzNS41OSBjIDAsMS43MiAxLjQsMy4yNSAzLjEzLDMuMjUgaCAxLjIyIHoiLz4mI3hhOyYjeGE7PHJlY3QgaWQ9InJlY3Q2MDk1NyIgeD0iNC4zNjk5OTUxIiB5PSI0LjQ0MDAwMDEiIHN0eWxlPSJmaWxsOiM1OWI0ZDkiIHdpZHRoPSI0OC43Nzk5OTkiIGhlaWdodD0iMzMuMjUiLz4mI3hhOyYjeGE7JiN4YTsmI3hhOzxyZWN0IGlkPSJyZWN0NjA5NzMiIHg9IjkuOTc5OTk1NyIgeT0iNDkuNzIwMDAxIiBzdHlsZT0iZmlsbDojYTBhMWEyIiB3aWR0aD0iMzcuNjg5OTk5IiBoZWlnaHQ9IjMuNDgiLz4mI3hhOyYjeGE7PHBhdGggaWQ9InBhdGg2MDk4MSIgaW5rc2NhcGU6Y29ubmVjdG9yLWN1cnZhdHVyZT0iMCIgc3R5bGU9ImZpbGw6I2I4ZDQzMiIgZD0ibSAyOS40MiwyLjQyIGMgMCwwLjQ1IC0wLjM3LDAuODEgLTAuODIsMC44MSAtMC40NiwwIC0wLjgyLC0wLjM2IC0wLjgyLC0wLjgxIDAsLTAuNDYgMC4zNiwtMC44MiAwLjgyLC0wLjgyIDAuNDUsMCAwLjgyLDAuMzYgMC44MiwwLjgyIHoiLz4mI3hhOyYjeGE7PHBhdGggaWQ9InBhdGg2MDk4OSIgaW5rc2NhcGU6Y29ubmVjdG9yLWN1cnZhdHVyZT0iMCIgc3R5bGU9ImZpbGw6I2ZmZmZmZiIgZD0ibSAyOS40NSwyMC4wNSBjIC0wLjA2LDAgLTAuMTEsLTAuMDEgLTAuMTYsLTAuMDQgTCAxOS4xNCwxNC4xNSBjIC0wLjA5LC0wLjA1IC0wLjE1LC0wLjE2IC0wLjE1LC0wLjI2IDAsLTAuMTEgMC4wNiwtMC4yMiAwLjE1LC0wLjI3IEwgMjkuMjMsNy44IGMgMC4xLC0wLjA1IDAuMjEsLTAuMDUgMC4zLDAgbCAxMC4xNiw1Ljg2IGMgMC4wOSwwLjA1IDAuMTUsMC4xNiAwLjE1LDAuMjcgMCwwLjExIC0wLjA2LDAuMjEgLTAuMTUsMC4yNiBMIDI5LjYsMjAuMDEgYyAtMC4wNSwwLjAzIC0wLjEsMC4wNCAtMC4xNSwwLjA0IHoiLz4mI3hhOyYjeGE7PHBhdGggaWQ9InBhdGg2MDk5NyIgaW5rc2NhcGU6Y29ubmVjdG9yLWN1cnZhdHVyZT0iMCIgc3R5bGU9ImZpbGw6I2ZmZmZmZjtmaWxsLW9wYWNpdHk6MC43IiBkPSJtIDI3Ljk5LDM0LjI5IGMgLTAuMDYsMCAtMC4xMSwtMC4wMSAtMC4xNSwtMC4wNCBMIDE3LjcyLDI4LjQxIGMgLTAuMSwtMC4wNSAtMC4xNiwtMC4xNSAtMC4xNiwtMC4yNiBWIDE2LjQzIGMgMCwtMC4xMSAwLjA2LC0wLjIyIDAuMTYsLTAuMjcgMC4wOSwtMC4wNiAwLjIxLC0wLjA2IDAuMzEsMCBMIDI4LjE0LDIyIGMgMC4wOSwwLjA2IDAuMTUsMC4xNiAwLjE1LDAuMjcgdiAxMS43MiBjIDAsMC4xMSAtMC4wNiwwLjIxIC0wLjE1LDAuMjYgLTAuMDUsMC4wMyAtMC4xLDAuMDQgLTAuMTUsMC4wNCB6Ii8+JiN4YTsmI3hhOzxwYXRoIGlkPSJwYXRoNjEwMDUiIGlua3NjYXBlOmNvbm5lY3Rvci1jdXJ2YXR1cmU9IjAiIHN0eWxlPSJmaWxsOiNmZmZmZmY7ZmlsbC1vcGFjaXR5OjAuNCIgZD0iTSAzMC44NiwzNC4yOSBDIDMwLjgsMzQuMjkgMzAuNzUsMzQuMjggMzAuNywzNC4yNSAzMC42MSwzNC4yIDMwLjU1LDM0LjEgMzAuNTUsMzMuOTkgViAyMi4zNCBjIDAsLTAuMTEgMC4wNiwtMC4yMSAwLjE1LC0wLjI3IGwgMTAuMTIsLTUuODMgYyAwLjA5LC0wLjA2IDAuMjEsLTAuMDYgMC4zLDAgMC4xLDAuMDUgMC4xNiwwLjE1IDAuMTYsMC4yNiB2IDExLjY1IGMgMCwwLjExIC0wLjA2LDAuMjEgLTAuMTYsMC4yNiBsIC0xMC4xMSw1Ljg0IGMgLTAuMDQsMC4wMyAtMC4xLDAuMDQgLTAuMTUsMC4wNCB6Ii8+JiN4YTs8L3N2Zz4=;rounded=1;" parent="vbyWE2GeK1n_giPgyy7q-64" vertex="1">
          <mxGeometry y="360" width="58" height="53" as="geometry" />
        </mxCell>
        <mxCell id="vbyWE2GeK1n_giPgyy7q-61" value="vHMC-IBM&#xa;10.6.1.48 " style="shape=image;verticalLabelPosition=bottom;labelBackgroundColor=#ffffff;verticalAlign=top;aspect=fixed;imageAspect=0;image=data:image/svg+xml,PHN2ZyB4bWxuczpkYz0iaHR0cDovL3B1cmwub3JnL2RjL2VsZW1lbnRzLzEuMS8iIHhtbG5zOmNjPSJodHRwOi8vY3JlYXRpdmVjb21tb25zLm9yZy9ucyMiIHhtbG5zOnJkZj0iaHR0cDovL3d3dy53My5vcmcvMTk5OS8wMi8yMi1yZGYtc3ludGF4LW5zIyIgeG1sbnM6c3ZnPSJodHRwOi8vd3d3LnczLm9yZy8yMDAwL3N2ZyIgeG1sbnM9Imh0dHA6Ly93d3cudzMub3JnLzIwMDAvc3ZnIiB4bWxuczpzb2RpcG9kaT0iaHR0cDovL3NvZGlwb2RpLnNvdXJjZWZvcmdlLm5ldC9EVEQvc29kaXBvZGktMC5kdGQiIHhtbG5zOmlua3NjYXBlPSJodHRwOi8vd3d3Lmlua3NjYXBlLm9yZy9uYW1lc3BhY2VzL2lua3NjYXBlIiB2ZXJzaW9uPSIxLjEiIGlkPSJzdmc2MTAxMSIgaW5rc2NhcGU6dmVyc2lvbj0iMC45Mi4zICgyNDA1NTQ2LCAyMDE4LTAzLTExKSIgc29kaXBvZGk6ZG9jbmFtZT0iYXp1cmVfcG9ydGFsX3ZpcnR1YWxfbWFjaGluZXMuc3ZnIiB4PSIwcHgiIHk9IjBweCIgdmlld0JveD0iMCAwIDU3LjY0IDUzLjIwMDAwMiIgeG1sOnNwYWNlPSJwcmVzZXJ2ZSIgd2lkdGg9IjU3LjYzOTk5OSIgaGVpZ2h0PSI1My4yMDAwMDEiPjxtZXRhZGF0YSBpZD0ibWV0YWRhdGExMDk5MCI+PHJkZjpSREY+PGNjOldvcmsgcmRmOmFib3V0PSIiPjxkYzpmb3JtYXQ+aW1hZ2Uvc3ZnK3htbDwvZGM6Zm9ybWF0PjxkYzp0eXBlIHJkZjpyZXNvdXJjZT0iaHR0cDovL3B1cmwub3JnL2RjL2RjbWl0eXBlL1N0aWxsSW1hZ2UiLz48ZGM6dGl0bGUvPjwvY2M6V29yaz48L3JkZjpSREY+PC9tZXRhZGF0YT48ZGVmcyBpZD0iZGVmczEwOTg4Ii8+JiN4YTs8ZmlsdGVyIGlkPSJmaWx0ZXJfMiI+JiN4YTsJPGZlR2F1c3NpYW5CbHVyIGlkPSJmZUdhdXNzaWFuQmx1cjYwOTIwIiBzdGREZXZpYXRpb249IjIiLz4mI3hhOzwvZmlsdGVyPiYjeGE7PHNvZGlwb2RpOm5hbWVkdmlldyBib3JkZXJjb2xvcj0iIzY2NjY2NiIgYm9yZGVyb3BhY2l0eT0iMSIgZml0LW1hcmdpbi1ib3R0b209IjAiIGZpdC1tYXJnaW4tbGVmdD0iMCIgZml0LW1hcmdpbi1yaWdodD0iMCIgZml0LW1hcmdpbi10b3A9IjAiIGdyaWR0b2xlcmFuY2U9IjEwIiBndWlkZXRvbGVyYW5jZT0iMTAiIGlkPSJuYW1lZHZpZXc2MTAxMyIgaW5rc2NhcGU6Y3VycmVudC1sYXllcj0ic3ZnNjEwMTEiIGlua3NjYXBlOmN4PSItMzMuMTQzMzAzIiBpbmtzY2FwZTpjeT0iMjQuNjk2NTQ0IiBpbmtzY2FwZTpwYWdlb3BhY2l0eT0iMCIgaW5rc2NhcGU6cGFnZXNoYWRvdz0iMiIgaW5rc2NhcGU6d2luZG93LWhlaWdodD0iMTAxNyIgaW5rc2NhcGU6d2luZG93LW1heGltaXplZD0iMSIgaW5rc2NhcGU6d2luZG93LXdpZHRoPSIxOTIwIiBpbmtzY2FwZTp3aW5kb3cteD0iLTgiIGlua3NjYXBlOndpbmRvdy15PSItOCIgaW5rc2NhcGU6em9vbT0iNS45MTg3NzA5IiBvYmplY3R0b2xlcmFuY2U9IjEwIiBwYWdlY29sb3I9IiNmZmZmZmYiIHNob3dncmlkPSJmYWxzZSI+JiN4YTsJPC9zb2RpcG9kaTpuYW1lZHZpZXc+JiN4YTsmI3hhOzxwYXRoIGlkPSJwYXRoNjA5MzMiIGlua3NjYXBlOmNvbm5lY3Rvci1jdXJ2YXR1cmU9IjAiIHN0eWxlPSJmaWxsOiM3YTdhN2EiIGQ9Ik0gMzcuMzksNDIuMTIgSCAzNi4wMSAyMi40MiAyMS43MSBjIDEuODgsNi42NSAtMC42NSw3LjYgLTExLjczLDcuNiB2IDMuNDggaCAxNC4xIDEwLjI5IDEzLjMgdiAtMy40OCBjIC0xMS4wOCwwIC0xMi4xNywtMC45NSAtMTAuMjgsLTcuNiB6Ii8+JiN4YTsmI3hhOzxwYXRoIGlkPSJwYXRoNjA5NDEiIGlua3NjYXBlOmNvbm5lY3Rvci1jdXJ2YXR1cmU9IjAiIHN0eWxlPSJmaWxsOiNhMGExYTIiIGQ9Ik0gNTQuMTYsMCBIIDMuMTMgQyAxLjQsMCAwLDEuNTUgMCwzLjI4IHYgMzUuNTkgYyAwLDEuNzIgMS40LDMuMjUgMy4xMywzLjI1IGggNTEuMDMgYyAxLjczLDAgMy40OCwtMS41MyAzLjQ4LC0zLjI1IFYgMy4yOCBDIDU3LjY0LDEuNTUgNTUuODksMCA1NC4xNiwwIFoiLz4mI3hhOyYjeGE7PHBhdGggaWQ9InBhdGg2MDk0OSIgaW5rc2NhcGU6Y29ubmVjdG9yLWN1cnZhdHVyZT0iMCIgc3R5bGU9ImZpbGw6I2ZmZmZmZjtmaWxsLW9wYWNpdHk6MC4yIiBkPSJNIDU0LjIsMCBDIDU0LjE5LDAgNTQuMTcsMCA1NC4xNiwwIEggMy4xMyBDIDEuNCwwIDAsMS41NSAwLDMuMjggdiAzNS41OSBjIDAsMS43MiAxLjQsMy4yNSAzLjEzLDMuMjUgaCAxLjIyIHoiLz4mI3hhOyYjeGE7PHJlY3QgaWQ9InJlY3Q2MDk1NyIgeD0iNC4zNjk5OTUxIiB5PSI0LjQ0MDAwMDEiIHN0eWxlPSJmaWxsOiM1OWI0ZDkiIHdpZHRoPSI0OC43Nzk5OTkiIGhlaWdodD0iMzMuMjUiLz4mI3hhOyYjeGE7JiN4YTsmI3hhOzxyZWN0IGlkPSJyZWN0NjA5NzMiIHg9IjkuOTc5OTk1NyIgeT0iNDkuNzIwMDAxIiBzdHlsZT0iZmlsbDojYTBhMWEyIiB3aWR0aD0iMzcuNjg5OTk5IiBoZWlnaHQ9IjMuNDgiLz4mI3hhOyYjeGE7PHBhdGggaWQ9InBhdGg2MDk4MSIgaW5rc2NhcGU6Y29ubmVjdG9yLWN1cnZhdHVyZT0iMCIgc3R5bGU9ImZpbGw6I2I4ZDQzMiIgZD0ibSAyOS40MiwyLjQyIGMgMCwwLjQ1IC0wLjM3LDAuODEgLTAuODIsMC44MSAtMC40NiwwIC0wLjgyLC0wLjM2IC0wLjgyLC0wLjgxIDAsLTAuNDYgMC4zNiwtMC44MiAwLjgyLC0wLjgyIDAuNDUsMCAwLjgyLDAuMzYgMC44MiwwLjgyIHoiLz4mI3hhOyYjeGE7PHBhdGggaWQ9InBhdGg2MDk4OSIgaW5rc2NhcGU6Y29ubmVjdG9yLWN1cnZhdHVyZT0iMCIgc3R5bGU9ImZpbGw6I2ZmZmZmZiIgZD0ibSAyOS40NSwyMC4wNSBjIC0wLjA2LDAgLTAuMTEsLTAuMDEgLTAuMTYsLTAuMDQgTCAxOS4xNCwxNC4xNSBjIC0wLjA5LC0wLjA1IC0wLjE1LC0wLjE2IC0wLjE1LC0wLjI2IDAsLTAuMTEgMC4wNiwtMC4yMiAwLjE1LC0wLjI3IEwgMjkuMjMsNy44IGMgMC4xLC0wLjA1IDAuMjEsLTAuMDUgMC4zLDAgbCAxMC4xNiw1Ljg2IGMgMC4wOSwwLjA1IDAuMTUsMC4xNiAwLjE1LDAuMjcgMCwwLjExIC0wLjA2LDAuMjEgLTAuMTUsMC4yNiBMIDI5LjYsMjAuMDEgYyAtMC4wNSwwLjAzIC0wLjEsMC4wNCAtMC4xNSwwLjA0IHoiLz4mI3hhOyYjeGE7PHBhdGggaWQ9InBhdGg2MDk5NyIgaW5rc2NhcGU6Y29ubmVjdG9yLWN1cnZhdHVyZT0iMCIgc3R5bGU9ImZpbGw6I2ZmZmZmZjtmaWxsLW9wYWNpdHk6MC43IiBkPSJtIDI3Ljk5LDM0LjI5IGMgLTAuMDYsMCAtMC4xMSwtMC4wMSAtMC4xNSwtMC4wNCBMIDE3LjcyLDI4LjQxIGMgLTAuMSwtMC4wNSAtMC4xNiwtMC4xNSAtMC4xNiwtMC4yNiBWIDE2LjQzIGMgMCwtMC4xMSAwLjA2LC0wLjIyIDAuMTYsLTAuMjcgMC4wOSwtMC4wNiAwLjIxLC0wLjA2IDAuMzEsMCBMIDI4LjE0LDIyIGMgMC4wOSwwLjA2IDAuMTUsMC4xNiAwLjE1LDAuMjcgdiAxMS43MiBjIDAsMC4xMSAtMC4wNiwwLjIxIC0wLjE1LDAuMjYgLTAuMDUsMC4wMyAtMC4xLDAuMDQgLTAuMTUsMC4wNCB6Ii8+JiN4YTsmI3hhOzxwYXRoIGlkPSJwYXRoNjEwMDUiIGlua3NjYXBlOmNvbm5lY3Rvci1jdXJ2YXR1cmU9IjAiIHN0eWxlPSJmaWxsOiNmZmZmZmY7ZmlsbC1vcGFjaXR5OjAuNCIgZD0iTSAzMC44NiwzNC4yOSBDIDMwLjgsMzQuMjkgMzAuNzUsMzQuMjggMzAuNywzNC4yNSAzMC42MSwzNC4yIDMwLjU1LDM0LjEgMzAuNTUsMzMuOTkgViAyMi4zNCBjIDAsLTAuMTEgMC4wNiwtMC4yMSAwLjE1LC0wLjI3IGwgMTAuMTIsLTUuODMgYyAwLjA5LC0wLjA2IDAuMjEsLTAuMDYgMC4zLDAgMC4xLDAuMDUgMC4xNiwwLjE1IDAuMTYsMC4yNiB2IDExLjY1IGMgMCwwLjExIC0wLjA2LDAuMjEgLTAuMTYsMC4yNiBsIC0xMC4xMSw1Ljg0IGMgLTAuMDQsMC4wMyAtMC4xLDAuMDQgLTAuMTUsMC4wNCB6Ii8+JiN4YTs8L3N2Zz4=;rounded=1;" parent="vbyWE2GeK1n_giPgyy7q-64" vertex="1">
          <mxGeometry y="450" width="58" height="53" as="geometry" />
        </mxCell>
        <mxCell id="vbyWE2GeK1n_giPgyy7q-66" style="edgeStyle=elbowEdgeStyle;shape=wire;rounded=1;orthogonalLoop=1;jettySize=auto;html=1;fontFamily=Helvetica;fontSize=11;fontColor=default;labelBackgroundColor=default;resizable=1;dashed=1;strokeColor=#006EAF;align=center;verticalAlign=middle;endArrow=none;endFill=0;fillColor=#1ba1e2;movable=1;rotatable=1;deletable=1;editable=1;locked=0;connectable=1;" parent="1" source="vbyWE2GeK1n_giPgyy7q-65" target="vbyWE2GeK1n_giPgyy7q-15" edge="1">
          <mxGeometry relative="1" as="geometry">
            <mxPoint x="-450" y="-840" as="targetPoint" />
          </mxGeometry>
        </mxCell>
        <mxCell id="vbyWE2GeK1n_giPgyy7q-67" value="&lt;span style=&quot;color: rgb(57, 62, 70); font-family: Arial, sans-serif; font-size: 12px; text-align: start; white-space-collapse: preserve; background-color: rgb(246, 246, 246);&quot;&gt;1/0/2&lt;/span&gt;" style="edgeLabel;html=1;align=center;verticalAlign=middle;resizable=0;points=[];fontFamily=Helvetica;fontSize=11;fontColor=default;labelBackgroundColor=default;fillColor=#1ba1e2;gradientColor=none;rounded=1;dashed=1;strokeColor=#006EAF;movable=0;rotatable=0;deletable=0;editable=0;locked=1;connectable=0;" parent="vbyWE2GeK1n_giPgyy7q-66" vertex="1" connectable="0">
          <mxGeometry x="-0.2699" y="-4" relative="1" as="geometry">
            <mxPoint x="-4" y="-40" as="offset" />
          </mxGeometry>
        </mxCell>
        <mxCell id="vbyWE2GeK1n_giPgyy7q-65" value="&lt;span style=&quot;font-weight: 700; text-align: start; text-wrap-mode: wrap; background-color: rgb(255, 255, 255);&quot;&gt;&lt;font face=&quot;Verdana&quot;&gt;S28VM4&lt;/font&gt;&lt;/span&gt;&lt;div&gt;&lt;span style=&quot;text-align: start; text-wrap-mode: wrap; background-color: rgb(255, 255, 255);&quot;&gt;&lt;font face=&quot;Verdana&quot;&gt;10.6.0.141&amp;nbsp;&lt;/font&gt;&lt;/span&gt;&lt;span style=&quot;color: rgb(51, 51, 51); font-family: Geneva, Arial, Helvetica, sans-serif; font-weight: 700; text-align: start; text-wrap-mode: wrap; background-color: rgb(255, 255, 255);&quot;&gt;&lt;/span&gt;&lt;/div&gt;" style="image;aspect=fixed;perimeter=ellipsePerimeter;html=1;align=center;shadow=0;dashed=0;spacingTop=3;image=img/lib/active_directory/windows_server_2.svg;labelPosition=center;verticalLabelPosition=top;verticalAlign=bottom;rounded=1;" parent="1" vertex="1">
          <mxGeometry x="-585" y="-673" width="71" height="88.75" as="geometry" />
        </mxCell>
        <mxCell id="UU47y6sLOYaZg2WNpb1--1" value="" style="group;rounded=1;" vertex="1" connectable="0" parent="1">
          <mxGeometry x="-587" y="-580" width="58.000000000000114" height="423" as="geometry" />
        </mxCell>
        <mxCell id="vbyWE2GeK1n_giPgyy7q-68" value="&#xa;S28BRDC2-16&#xa;10.6.0.104 " style="shape=image;verticalLabelPosition=bottom;labelBackgroundColor=#ffffff;verticalAlign=top;aspect=fixed;imageAspect=0;image=data:image/svg+xml,PHN2ZyB4bWxuczpkYz0iaHR0cDovL3B1cmwub3JnL2RjL2VsZW1lbnRzLzEuMS8iIHhtbG5zOmNjPSJodHRwOi8vY3JlYXRpdmVjb21tb25zLm9yZy9ucyMiIHhtbG5zOnJkZj0iaHR0cDovL3d3dy53My5vcmcvMTk5OS8wMi8yMi1yZGYtc3ludGF4LW5zIyIgeG1sbnM6c3ZnPSJodHRwOi8vd3d3LnczLm9yZy8yMDAwL3N2ZyIgeG1sbnM9Imh0dHA6Ly93d3cudzMub3JnLzIwMDAvc3ZnIiB4bWxuczpzb2RpcG9kaT0iaHR0cDovL3NvZGlwb2RpLnNvdXJjZWZvcmdlLm5ldC9EVEQvc29kaXBvZGktMC5kdGQiIHhtbG5zOmlua3NjYXBlPSJodHRwOi8vd3d3Lmlua3NjYXBlLm9yZy9uYW1lc3BhY2VzL2lua3NjYXBlIiB2ZXJzaW9uPSIxLjEiIGlkPSJzdmc2MTAxMSIgaW5rc2NhcGU6dmVyc2lvbj0iMC45Mi4zICgyNDA1NTQ2LCAyMDE4LTAzLTExKSIgc29kaXBvZGk6ZG9jbmFtZT0iYXp1cmVfcG9ydGFsX3ZpcnR1YWxfbWFjaGluZXMuc3ZnIiB4PSIwcHgiIHk9IjBweCIgdmlld0JveD0iMCAwIDU3LjY0IDUzLjIwMDAwMiIgeG1sOnNwYWNlPSJwcmVzZXJ2ZSIgd2lkdGg9IjU3LjYzOTk5OSIgaGVpZ2h0PSI1My4yMDAwMDEiPjxtZXRhZGF0YSBpZD0ibWV0YWRhdGExMDk5MCI+PHJkZjpSREY+PGNjOldvcmsgcmRmOmFib3V0PSIiPjxkYzpmb3JtYXQ+aW1hZ2Uvc3ZnK3htbDwvZGM6Zm9ybWF0PjxkYzp0eXBlIHJkZjpyZXNvdXJjZT0iaHR0cDovL3B1cmwub3JnL2RjL2RjbWl0eXBlL1N0aWxsSW1hZ2UiLz48ZGM6dGl0bGUvPjwvY2M6V29yaz48L3JkZjpSREY+PC9tZXRhZGF0YT48ZGVmcyBpZD0iZGVmczEwOTg4Ii8+JiN4YTs8ZmlsdGVyIGlkPSJmaWx0ZXJfMiI+JiN4YTsJPGZlR2F1c3NpYW5CbHVyIGlkPSJmZUdhdXNzaWFuQmx1cjYwOTIwIiBzdGREZXZpYXRpb249IjIiLz4mI3hhOzwvZmlsdGVyPiYjeGE7PHNvZGlwb2RpOm5hbWVkdmlldyBib3JkZXJjb2xvcj0iIzY2NjY2NiIgYm9yZGVyb3BhY2l0eT0iMSIgZml0LW1hcmdpbi1ib3R0b209IjAiIGZpdC1tYXJnaW4tbGVmdD0iMCIgZml0LW1hcmdpbi1yaWdodD0iMCIgZml0LW1hcmdpbi10b3A9IjAiIGdyaWR0b2xlcmFuY2U9IjEwIiBndWlkZXRvbGVyYW5jZT0iMTAiIGlkPSJuYW1lZHZpZXc2MTAxMyIgaW5rc2NhcGU6Y3VycmVudC1sYXllcj0ic3ZnNjEwMTEiIGlua3NjYXBlOmN4PSItMzMuMTQzMzAzIiBpbmtzY2FwZTpjeT0iMjQuNjk2NTQ0IiBpbmtzY2FwZTpwYWdlb3BhY2l0eT0iMCIgaW5rc2NhcGU6cGFnZXNoYWRvdz0iMiIgaW5rc2NhcGU6d2luZG93LWhlaWdodD0iMTAxNyIgaW5rc2NhcGU6d2luZG93LW1heGltaXplZD0iMSIgaW5rc2NhcGU6d2luZG93LXdpZHRoPSIxOTIwIiBpbmtzY2FwZTp3aW5kb3cteD0iLTgiIGlua3NjYXBlOndpbmRvdy15PSItOCIgaW5rc2NhcGU6em9vbT0iNS45MTg3NzA5IiBvYmplY3R0b2xlcmFuY2U9IjEwIiBwYWdlY29sb3I9IiNmZmZmZmYiIHNob3dncmlkPSJmYWxzZSI+JiN4YTsJPC9zb2RpcG9kaTpuYW1lZHZpZXc+JiN4YTsmI3hhOzxwYXRoIGlkPSJwYXRoNjA5MzMiIGlua3NjYXBlOmNvbm5lY3Rvci1jdXJ2YXR1cmU9IjAiIHN0eWxlPSJmaWxsOiM3YTdhN2EiIGQ9Ik0gMzcuMzksNDIuMTIgSCAzNi4wMSAyMi40MiAyMS43MSBjIDEuODgsNi42NSAtMC42NSw3LjYgLTExLjczLDcuNiB2IDMuNDggaCAxNC4xIDEwLjI5IDEzLjMgdiAtMy40OCBjIC0xMS4wOCwwIC0xMi4xNywtMC45NSAtMTAuMjgsLTcuNiB6Ii8+JiN4YTsmI3hhOzxwYXRoIGlkPSJwYXRoNjA5NDEiIGlua3NjYXBlOmNvbm5lY3Rvci1jdXJ2YXR1cmU9IjAiIHN0eWxlPSJmaWxsOiNhMGExYTIiIGQ9Ik0gNTQuMTYsMCBIIDMuMTMgQyAxLjQsMCAwLDEuNTUgMCwzLjI4IHYgMzUuNTkgYyAwLDEuNzIgMS40LDMuMjUgMy4xMywzLjI1IGggNTEuMDMgYyAxLjczLDAgMy40OCwtMS41MyAzLjQ4LC0zLjI1IFYgMy4yOCBDIDU3LjY0LDEuNTUgNTUuODksMCA1NC4xNiwwIFoiLz4mI3hhOyYjeGE7PHBhdGggaWQ9InBhdGg2MDk0OSIgaW5rc2NhcGU6Y29ubmVjdG9yLWN1cnZhdHVyZT0iMCIgc3R5bGU9ImZpbGw6I2ZmZmZmZjtmaWxsLW9wYWNpdHk6MC4yIiBkPSJNIDU0LjIsMCBDIDU0LjE5LDAgNTQuMTcsMCA1NC4xNiwwIEggMy4xMyBDIDEuNCwwIDAsMS41NSAwLDMuMjggdiAzNS41OSBjIDAsMS43MiAxLjQsMy4yNSAzLjEzLDMuMjUgaCAxLjIyIHoiLz4mI3hhOyYjeGE7PHJlY3QgaWQ9InJlY3Q2MDk1NyIgeD0iNC4zNjk5OTUxIiB5PSI0LjQ0MDAwMDEiIHN0eWxlPSJmaWxsOiM1OWI0ZDkiIHdpZHRoPSI0OC43Nzk5OTkiIGhlaWdodD0iMzMuMjUiLz4mI3hhOyYjeGE7JiN4YTsmI3hhOzxyZWN0IGlkPSJyZWN0NjA5NzMiIHg9IjkuOTc5OTk1NyIgeT0iNDkuNzIwMDAxIiBzdHlsZT0iZmlsbDojYTBhMWEyIiB3aWR0aD0iMzcuNjg5OTk5IiBoZWlnaHQ9IjMuNDgiLz4mI3hhOyYjeGE7PHBhdGggaWQ9InBhdGg2MDk4MSIgaW5rc2NhcGU6Y29ubmVjdG9yLWN1cnZhdHVyZT0iMCIgc3R5bGU9ImZpbGw6I2I4ZDQzMiIgZD0ibSAyOS40MiwyLjQyIGMgMCwwLjQ1IC0wLjM3LDAuODEgLTAuODIsMC44MSAtMC40NiwwIC0wLjgyLC0wLjM2IC0wLjgyLC0wLjgxIDAsLTAuNDYgMC4zNiwtMC44MiAwLjgyLC0wLjgyIDAuNDUsMCAwLjgyLDAuMzYgMC44MiwwLjgyIHoiLz4mI3hhOyYjeGE7PHBhdGggaWQ9InBhdGg2MDk4OSIgaW5rc2NhcGU6Y29ubmVjdG9yLWN1cnZhdHVyZT0iMCIgc3R5bGU9ImZpbGw6I2ZmZmZmZiIgZD0ibSAyOS40NSwyMC4wNSBjIC0wLjA2LDAgLTAuMTEsLTAuMDEgLTAuMTYsLTAuMDQgTCAxOS4xNCwxNC4xNSBjIC0wLjA5LC0wLjA1IC0wLjE1LC0wLjE2IC0wLjE1LC0wLjI2IDAsLTAuMTEgMC4wNiwtMC4yMiAwLjE1LC0wLjI3IEwgMjkuMjMsNy44IGMgMC4xLC0wLjA1IDAuMjEsLTAuMDUgMC4zLDAgbCAxMC4xNiw1Ljg2IGMgMC4wOSwwLjA1IDAuMTUsMC4xNiAwLjE1LDAuMjcgMCwwLjExIC0wLjA2LDAuMjEgLTAuMTUsMC4yNiBMIDI5LjYsMjAuMDEgYyAtMC4wNSwwLjAzIC0wLjEsMC4wNCAtMC4xNSwwLjA0IHoiLz4mI3hhOyYjeGE7PHBhdGggaWQ9InBhdGg2MDk5NyIgaW5rc2NhcGU6Y29ubmVjdG9yLWN1cnZhdHVyZT0iMCIgc3R5bGU9ImZpbGw6I2ZmZmZmZjtmaWxsLW9wYWNpdHk6MC43IiBkPSJtIDI3Ljk5LDM0LjI5IGMgLTAuMDYsMCAtMC4xMSwtMC4wMSAtMC4xNSwtMC4wNCBMIDE3LjcyLDI4LjQxIGMgLTAuMSwtMC4wNSAtMC4xNiwtMC4xNSAtMC4xNiwtMC4yNiBWIDE2LjQzIGMgMCwtMC4xMSAwLjA2LC0wLjIyIDAuMTYsLTAuMjcgMC4wOSwtMC4wNiAwLjIxLC0wLjA2IDAuMzEsMCBMIDI4LjE0LDIyIGMgMC4wOSwwLjA2IDAuMTUsMC4xNiAwLjE1LDAuMjcgdiAxMS43MiBjIDAsMC4xMSAtMC4wNiwwLjIxIC0wLjE1LDAuMjYgLTAuMDUsMC4wMyAtMC4xLDAuMDQgLTAuMTUsMC4wNCB6Ii8+JiN4YTsmI3hhOzxwYXRoIGlkPSJwYXRoNjEwMDUiIGlua3NjYXBlOmNvbm5lY3Rvci1jdXJ2YXR1cmU9IjAiIHN0eWxlPSJmaWxsOiNmZmZmZmY7ZmlsbC1vcGFjaXR5OjAuNCIgZD0iTSAzMC44NiwzNC4yOSBDIDMwLjgsMzQuMjkgMzAuNzUsMzQuMjggMzAuNywzNC4yNSAzMC42MSwzNC4yIDMwLjU1LDM0LjEgMzAuNTUsMzMuOTkgViAyMi4zNCBjIDAsLTAuMTEgMC4wNiwtMC4yMSAwLjE1LC0wLjI3IGwgMTAuMTIsLTUuODMgYyAwLjA5LC0wLjA2IDAuMjEsLTAuMDYgMC4zLDAgMC4xLDAuMDUgMC4xNiwwLjE1IDAuMTYsMC4yNiB2IDExLjY1IGMgMCwwLjExIC0wLjA2LDAuMjEgLTAuMTYsMC4yNiBsIC0xMC4xMSw1Ljg0IGMgLTAuMDQsMC4wMyAtMC4xLDAuMDQgLTAuMTUsMC4wNCB6Ii8+JiN4YTs8L3N2Zz4=;align=center;fontFamily=Helvetica;fontSize=11;fontColor=default;resizable=0;fillColor=none;gradientColor=none;rounded=1;" parent="UU47y6sLOYaZg2WNpb1--1" vertex="1">
          <mxGeometry x="1.1368683772161603e-13" width="58" height="53" as="geometry" />
        </mxCell>
        <mxCell id="vbyWE2GeK1n_giPgyy7q-69" value="S28SENIOR1&#xa;10.6.0.32 &#xa;&#xa;" style="shape=image;verticalLabelPosition=bottom;labelBackgroundColor=#ffffff;verticalAlign=top;aspect=fixed;imageAspect=0;image=data:image/svg+xml,PHN2ZyB4bWxuczpkYz0iaHR0cDovL3B1cmwub3JnL2RjL2VsZW1lbnRzLzEuMS8iIHhtbG5zOmNjPSJodHRwOi8vY3JlYXRpdmVjb21tb25zLm9yZy9ucyMiIHhtbG5zOnJkZj0iaHR0cDovL3d3dy53My5vcmcvMTk5OS8wMi8yMi1yZGYtc3ludGF4LW5zIyIgeG1sbnM6c3ZnPSJodHRwOi8vd3d3LnczLm9yZy8yMDAwL3N2ZyIgeG1sbnM9Imh0dHA6Ly93d3cudzMub3JnLzIwMDAvc3ZnIiB4bWxuczpzb2RpcG9kaT0iaHR0cDovL3NvZGlwb2RpLnNvdXJjZWZvcmdlLm5ldC9EVEQvc29kaXBvZGktMC5kdGQiIHhtbG5zOmlua3NjYXBlPSJodHRwOi8vd3d3Lmlua3NjYXBlLm9yZy9uYW1lc3BhY2VzL2lua3NjYXBlIiB2ZXJzaW9uPSIxLjEiIGlkPSJzdmc2MTAxMSIgaW5rc2NhcGU6dmVyc2lvbj0iMC45Mi4zICgyNDA1NTQ2LCAyMDE4LTAzLTExKSIgc29kaXBvZGk6ZG9jbmFtZT0iYXp1cmVfcG9ydGFsX3ZpcnR1YWxfbWFjaGluZXMuc3ZnIiB4PSIwcHgiIHk9IjBweCIgdmlld0JveD0iMCAwIDU3LjY0IDUzLjIwMDAwMiIgeG1sOnNwYWNlPSJwcmVzZXJ2ZSIgd2lkdGg9IjU3LjYzOTk5OSIgaGVpZ2h0PSI1My4yMDAwMDEiPjxtZXRhZGF0YSBpZD0ibWV0YWRhdGExMDk5MCI+PHJkZjpSREY+PGNjOldvcmsgcmRmOmFib3V0PSIiPjxkYzpmb3JtYXQ+aW1hZ2Uvc3ZnK3htbDwvZGM6Zm9ybWF0PjxkYzp0eXBlIHJkZjpyZXNvdXJjZT0iaHR0cDovL3B1cmwub3JnL2RjL2RjbWl0eXBlL1N0aWxsSW1hZ2UiLz48ZGM6dGl0bGUvPjwvY2M6V29yaz48L3JkZjpSREY+PC9tZXRhZGF0YT48ZGVmcyBpZD0iZGVmczEwOTg4Ii8+JiN4YTs8ZmlsdGVyIGlkPSJmaWx0ZXJfMiI+JiN4YTsJPGZlR2F1c3NpYW5CbHVyIGlkPSJmZUdhdXNzaWFuQmx1cjYwOTIwIiBzdGREZXZpYXRpb249IjIiLz4mI3hhOzwvZmlsdGVyPiYjeGE7PHNvZGlwb2RpOm5hbWVkdmlldyBib3JkZXJjb2xvcj0iIzY2NjY2NiIgYm9yZGVyb3BhY2l0eT0iMSIgZml0LW1hcmdpbi1ib3R0b209IjAiIGZpdC1tYXJnaW4tbGVmdD0iMCIgZml0LW1hcmdpbi1yaWdodD0iMCIgZml0LW1hcmdpbi10b3A9IjAiIGdyaWR0b2xlcmFuY2U9IjEwIiBndWlkZXRvbGVyYW5jZT0iMTAiIGlkPSJuYW1lZHZpZXc2MTAxMyIgaW5rc2NhcGU6Y3VycmVudC1sYXllcj0ic3ZnNjEwMTEiIGlua3NjYXBlOmN4PSItMzMuMTQzMzAzIiBpbmtzY2FwZTpjeT0iMjQuNjk2NTQ0IiBpbmtzY2FwZTpwYWdlb3BhY2l0eT0iMCIgaW5rc2NhcGU6cGFnZXNoYWRvdz0iMiIgaW5rc2NhcGU6d2luZG93LWhlaWdodD0iMTAxNyIgaW5rc2NhcGU6d2luZG93LW1heGltaXplZD0iMSIgaW5rc2NhcGU6d2luZG93LXdpZHRoPSIxOTIwIiBpbmtzY2FwZTp3aW5kb3cteD0iLTgiIGlua3NjYXBlOndpbmRvdy15PSItOCIgaW5rc2NhcGU6em9vbT0iNS45MTg3NzA5IiBvYmplY3R0b2xlcmFuY2U9IjEwIiBwYWdlY29sb3I9IiNmZmZmZmYiIHNob3dncmlkPSJmYWxzZSI+JiN4YTsJPC9zb2RpcG9kaTpuYW1lZHZpZXc+JiN4YTsmI3hhOzxwYXRoIGlkPSJwYXRoNjA5MzMiIGlua3NjYXBlOmNvbm5lY3Rvci1jdXJ2YXR1cmU9IjAiIHN0eWxlPSJmaWxsOiM3YTdhN2EiIGQ9Ik0gMzcuMzksNDIuMTIgSCAzNi4wMSAyMi40MiAyMS43MSBjIDEuODgsNi42NSAtMC42NSw3LjYgLTExLjczLDcuNiB2IDMuNDggaCAxNC4xIDEwLjI5IDEzLjMgdiAtMy40OCBjIC0xMS4wOCwwIC0xMi4xNywtMC45NSAtMTAuMjgsLTcuNiB6Ii8+JiN4YTsmI3hhOzxwYXRoIGlkPSJwYXRoNjA5NDEiIGlua3NjYXBlOmNvbm5lY3Rvci1jdXJ2YXR1cmU9IjAiIHN0eWxlPSJmaWxsOiNhMGExYTIiIGQ9Ik0gNTQuMTYsMCBIIDMuMTMgQyAxLjQsMCAwLDEuNTUgMCwzLjI4IHYgMzUuNTkgYyAwLDEuNzIgMS40LDMuMjUgMy4xMywzLjI1IGggNTEuMDMgYyAxLjczLDAgMy40OCwtMS41MyAzLjQ4LC0zLjI1IFYgMy4yOCBDIDU3LjY0LDEuNTUgNTUuODksMCA1NC4xNiwwIFoiLz4mI3hhOyYjeGE7PHBhdGggaWQ9InBhdGg2MDk0OSIgaW5rc2NhcGU6Y29ubmVjdG9yLWN1cnZhdHVyZT0iMCIgc3R5bGU9ImZpbGw6I2ZmZmZmZjtmaWxsLW9wYWNpdHk6MC4yIiBkPSJNIDU0LjIsMCBDIDU0LjE5LDAgNTQuMTcsMCA1NC4xNiwwIEggMy4xMyBDIDEuNCwwIDAsMS41NSAwLDMuMjggdiAzNS41OSBjIDAsMS43MiAxLjQsMy4yNSAzLjEzLDMuMjUgaCAxLjIyIHoiLz4mI3hhOyYjeGE7PHJlY3QgaWQ9InJlY3Q2MDk1NyIgeD0iNC4zNjk5OTUxIiB5PSI0LjQ0MDAwMDEiIHN0eWxlPSJmaWxsOiM1OWI0ZDkiIHdpZHRoPSI0OC43Nzk5OTkiIGhlaWdodD0iMzMuMjUiLz4mI3hhOyYjeGE7JiN4YTsmI3hhOzxyZWN0IGlkPSJyZWN0NjA5NzMiIHg9IjkuOTc5OTk1NyIgeT0iNDkuNzIwMDAxIiBzdHlsZT0iZmlsbDojYTBhMWEyIiB3aWR0aD0iMzcuNjg5OTk5IiBoZWlnaHQ9IjMuNDgiLz4mI3hhOyYjeGE7PHBhdGggaWQ9InBhdGg2MDk4MSIgaW5rc2NhcGU6Y29ubmVjdG9yLWN1cnZhdHVyZT0iMCIgc3R5bGU9ImZpbGw6I2I4ZDQzMiIgZD0ibSAyOS40MiwyLjQyIGMgMCwwLjQ1IC0wLjM3LDAuODEgLTAuODIsMC44MSAtMC40NiwwIC0wLjgyLC0wLjM2IC0wLjgyLC0wLjgxIDAsLTAuNDYgMC4zNiwtMC44MiAwLjgyLC0wLjgyIDAuNDUsMCAwLjgyLDAuMzYgMC44MiwwLjgyIHoiLz4mI3hhOyYjeGE7PHBhdGggaWQ9InBhdGg2MDk4OSIgaW5rc2NhcGU6Y29ubmVjdG9yLWN1cnZhdHVyZT0iMCIgc3R5bGU9ImZpbGw6I2ZmZmZmZiIgZD0ibSAyOS40NSwyMC4wNSBjIC0wLjA2LDAgLTAuMTEsLTAuMDEgLTAuMTYsLTAuMDQgTCAxOS4xNCwxNC4xNSBjIC0wLjA5LC0wLjA1IC0wLjE1LC0wLjE2IC0wLjE1LC0wLjI2IDAsLTAuMTEgMC4wNiwtMC4yMiAwLjE1LC0wLjI3IEwgMjkuMjMsNy44IGMgMC4xLC0wLjA1IDAuMjEsLTAuMDUgMC4zLDAgbCAxMC4xNiw1Ljg2IGMgMC4wOSwwLjA1IDAuMTUsMC4xNiAwLjE1LDAuMjcgMCwwLjExIC0wLjA2LDAuMjEgLTAuMTUsMC4yNiBMIDI5LjYsMjAuMDEgYyAtMC4wNSwwLjAzIC0wLjEsMC4wNCAtMC4xNSwwLjA0IHoiLz4mI3hhOyYjeGE7PHBhdGggaWQ9InBhdGg2MDk5NyIgaW5rc2NhcGU6Y29ubmVjdG9yLWN1cnZhdHVyZT0iMCIgc3R5bGU9ImZpbGw6I2ZmZmZmZjtmaWxsLW9wYWNpdHk6MC43IiBkPSJtIDI3Ljk5LDM0LjI5IGMgLTAuMDYsMCAtMC4xMSwtMC4wMSAtMC4xNSwtMC4wNCBMIDE3LjcyLDI4LjQxIGMgLTAuMSwtMC4wNSAtMC4xNiwtMC4xNSAtMC4xNiwtMC4yNiBWIDE2LjQzIGMgMCwtMC4xMSAwLjA2LC0wLjIyIDAuMTYsLTAuMjcgMC4wOSwtMC4wNiAwLjIxLC0wLjA2IDAuMzEsMCBMIDI4LjE0LDIyIGMgMC4wOSwwLjA2IDAuMTUsMC4xNiAwLjE1LDAuMjcgdiAxMS43MiBjIDAsMC4xMSAtMC4wNiwwLjIxIC0wLjE1LDAuMjYgLTAuMDUsMC4wMyAtMC4xLDAuMDQgLTAuMTUsMC4wNCB6Ii8+JiN4YTsmI3hhOzxwYXRoIGlkPSJwYXRoNjEwMDUiIGlua3NjYXBlOmNvbm5lY3Rvci1jdXJ2YXR1cmU9IjAiIHN0eWxlPSJmaWxsOiNmZmZmZmY7ZmlsbC1vcGFjaXR5OjAuNCIgZD0iTSAzMC44NiwzNC4yOSBDIDMwLjgsMzQuMjkgMzAuNzUsMzQuMjggMzAuNywzNC4yNSAzMC42MSwzNC4yIDMwLjU1LDM0LjEgMzAuNTUsMzMuOTkgViAyMi4zNCBjIDAsLTAuMTEgMC4wNiwtMC4yMSAwLjE1LC0wLjI3IGwgMTAuMTIsLTUuODMgYyAwLjA5LC0wLjA2IDAuMjEsLTAuMDYgMC4zLDAgMC4xLDAuMDUgMC4xNiwwLjE1IDAuMTYsMC4yNiB2IDExLjY1IGMgMCwwLjExIC0wLjA2LDAuMjEgLTAuMTYsMC4yNiBsIC0xMC4xMSw1Ljg0IGMgLTAuMDQsMC4wMyAtMC4xLDAuMDQgLTAuMTUsMC4wNCB6Ii8+JiN4YTs8L3N2Zz4=;align=center;fontFamily=Helvetica;fontSize=11;fontColor=default;resizable=0;fillColor=none;gradientColor=none;rounded=1;" parent="UU47y6sLOYaZg2WNpb1--1" vertex="1">
          <mxGeometry y="100" width="58" height="53" as="geometry" />
        </mxCell>
        <mxCell id="vbyWE2GeK1n_giPgyy7q-70" value="S28CRM&#xa;10.6.0.29 " style="shape=image;verticalLabelPosition=bottom;labelBackgroundColor=#ffffff;verticalAlign=top;aspect=fixed;imageAspect=0;image=data:image/svg+xml,PHN2ZyB4bWxuczpkYz0iaHR0cDovL3B1cmwub3JnL2RjL2VsZW1lbnRzLzEuMS8iIHhtbG5zOmNjPSJodHRwOi8vY3JlYXRpdmVjb21tb25zLm9yZy9ucyMiIHhtbG5zOnJkZj0iaHR0cDovL3d3dy53My5vcmcvMTk5OS8wMi8yMi1yZGYtc3ludGF4LW5zIyIgeG1sbnM6c3ZnPSJodHRwOi8vd3d3LnczLm9yZy8yMDAwL3N2ZyIgeG1sbnM9Imh0dHA6Ly93d3cudzMub3JnLzIwMDAvc3ZnIiB4bWxuczpzb2RpcG9kaT0iaHR0cDovL3NvZGlwb2RpLnNvdXJjZWZvcmdlLm5ldC9EVEQvc29kaXBvZGktMC5kdGQiIHhtbG5zOmlua3NjYXBlPSJodHRwOi8vd3d3Lmlua3NjYXBlLm9yZy9uYW1lc3BhY2VzL2lua3NjYXBlIiB2ZXJzaW9uPSIxLjEiIGlkPSJzdmc2MTAxMSIgaW5rc2NhcGU6dmVyc2lvbj0iMC45Mi4zICgyNDA1NTQ2LCAyMDE4LTAzLTExKSIgc29kaXBvZGk6ZG9jbmFtZT0iYXp1cmVfcG9ydGFsX3ZpcnR1YWxfbWFjaGluZXMuc3ZnIiB4PSIwcHgiIHk9IjBweCIgdmlld0JveD0iMCAwIDU3LjY0IDUzLjIwMDAwMiIgeG1sOnNwYWNlPSJwcmVzZXJ2ZSIgd2lkdGg9IjU3LjYzOTk5OSIgaGVpZ2h0PSI1My4yMDAwMDEiPjxtZXRhZGF0YSBpZD0ibWV0YWRhdGExMDk5MCI+PHJkZjpSREY+PGNjOldvcmsgcmRmOmFib3V0PSIiPjxkYzpmb3JtYXQ+aW1hZ2Uvc3ZnK3htbDwvZGM6Zm9ybWF0PjxkYzp0eXBlIHJkZjpyZXNvdXJjZT0iaHR0cDovL3B1cmwub3JnL2RjL2RjbWl0eXBlL1N0aWxsSW1hZ2UiLz48ZGM6dGl0bGUvPjwvY2M6V29yaz48L3JkZjpSREY+PC9tZXRhZGF0YT48ZGVmcyBpZD0iZGVmczEwOTg4Ii8+JiN4YTs8ZmlsdGVyIGlkPSJmaWx0ZXJfMiI+JiN4YTsJPGZlR2F1c3NpYW5CbHVyIGlkPSJmZUdhdXNzaWFuQmx1cjYwOTIwIiBzdGREZXZpYXRpb249IjIiLz4mI3hhOzwvZmlsdGVyPiYjeGE7PHNvZGlwb2RpOm5hbWVkdmlldyBib3JkZXJjb2xvcj0iIzY2NjY2NiIgYm9yZGVyb3BhY2l0eT0iMSIgZml0LW1hcmdpbi1ib3R0b209IjAiIGZpdC1tYXJnaW4tbGVmdD0iMCIgZml0LW1hcmdpbi1yaWdodD0iMCIgZml0LW1hcmdpbi10b3A9IjAiIGdyaWR0b2xlcmFuY2U9IjEwIiBndWlkZXRvbGVyYW5jZT0iMTAiIGlkPSJuYW1lZHZpZXc2MTAxMyIgaW5rc2NhcGU6Y3VycmVudC1sYXllcj0ic3ZnNjEwMTEiIGlua3NjYXBlOmN4PSItMzMuMTQzMzAzIiBpbmtzY2FwZTpjeT0iMjQuNjk2NTQ0IiBpbmtzY2FwZTpwYWdlb3BhY2l0eT0iMCIgaW5rc2NhcGU6cGFnZXNoYWRvdz0iMiIgaW5rc2NhcGU6d2luZG93LWhlaWdodD0iMTAxNyIgaW5rc2NhcGU6d2luZG93LW1heGltaXplZD0iMSIgaW5rc2NhcGU6d2luZG93LXdpZHRoPSIxOTIwIiBpbmtzY2FwZTp3aW5kb3cteD0iLTgiIGlua3NjYXBlOndpbmRvdy15PSItOCIgaW5rc2NhcGU6em9vbT0iNS45MTg3NzA5IiBvYmplY3R0b2xlcmFuY2U9IjEwIiBwYWdlY29sb3I9IiNmZmZmZmYiIHNob3dncmlkPSJmYWxzZSI+JiN4YTsJPC9zb2RpcG9kaTpuYW1lZHZpZXc+JiN4YTsmI3hhOzxwYXRoIGlkPSJwYXRoNjA5MzMiIGlua3NjYXBlOmNvbm5lY3Rvci1jdXJ2YXR1cmU9IjAiIHN0eWxlPSJmaWxsOiM3YTdhN2EiIGQ9Ik0gMzcuMzksNDIuMTIgSCAzNi4wMSAyMi40MiAyMS43MSBjIDEuODgsNi42NSAtMC42NSw3LjYgLTExLjczLDcuNiB2IDMuNDggaCAxNC4xIDEwLjI5IDEzLjMgdiAtMy40OCBjIC0xMS4wOCwwIC0xMi4xNywtMC45NSAtMTAuMjgsLTcuNiB6Ii8+JiN4YTsmI3hhOzxwYXRoIGlkPSJwYXRoNjA5NDEiIGlua3NjYXBlOmNvbm5lY3Rvci1jdXJ2YXR1cmU9IjAiIHN0eWxlPSJmaWxsOiNhMGExYTIiIGQ9Ik0gNTQuMTYsMCBIIDMuMTMgQyAxLjQsMCAwLDEuNTUgMCwzLjI4IHYgMzUuNTkgYyAwLDEuNzIgMS40LDMuMjUgMy4xMywzLjI1IGggNTEuMDMgYyAxLjczLDAgMy40OCwtMS41MyAzLjQ4LC0zLjI1IFYgMy4yOCBDIDU3LjY0LDEuNTUgNTUuODksMCA1NC4xNiwwIFoiLz4mI3hhOyYjeGE7PHBhdGggaWQ9InBhdGg2MDk0OSIgaW5rc2NhcGU6Y29ubmVjdG9yLWN1cnZhdHVyZT0iMCIgc3R5bGU9ImZpbGw6I2ZmZmZmZjtmaWxsLW9wYWNpdHk6MC4yIiBkPSJNIDU0LjIsMCBDIDU0LjE5LDAgNTQuMTcsMCA1NC4xNiwwIEggMy4xMyBDIDEuNCwwIDAsMS41NSAwLDMuMjggdiAzNS41OSBjIDAsMS43MiAxLjQsMy4yNSAzLjEzLDMuMjUgaCAxLjIyIHoiLz4mI3hhOyYjeGE7PHJlY3QgaWQ9InJlY3Q2MDk1NyIgeD0iNC4zNjk5OTUxIiB5PSI0LjQ0MDAwMDEiIHN0eWxlPSJmaWxsOiM1OWI0ZDkiIHdpZHRoPSI0OC43Nzk5OTkiIGhlaWdodD0iMzMuMjUiLz4mI3hhOyYjeGE7JiN4YTsmI3hhOzxyZWN0IGlkPSJyZWN0NjA5NzMiIHg9IjkuOTc5OTk1NyIgeT0iNDkuNzIwMDAxIiBzdHlsZT0iZmlsbDojYTBhMWEyIiB3aWR0aD0iMzcuNjg5OTk5IiBoZWlnaHQ9IjMuNDgiLz4mI3hhOyYjeGE7PHBhdGggaWQ9InBhdGg2MDk4MSIgaW5rc2NhcGU6Y29ubmVjdG9yLWN1cnZhdHVyZT0iMCIgc3R5bGU9ImZpbGw6I2I4ZDQzMiIgZD0ibSAyOS40MiwyLjQyIGMgMCwwLjQ1IC0wLjM3LDAuODEgLTAuODIsMC44MSAtMC40NiwwIC0wLjgyLC0wLjM2IC0wLjgyLC0wLjgxIDAsLTAuNDYgMC4zNiwtMC44MiAwLjgyLC0wLjgyIDAuNDUsMCAwLjgyLDAuMzYgMC44MiwwLjgyIHoiLz4mI3hhOyYjeGE7PHBhdGggaWQ9InBhdGg2MDk4OSIgaW5rc2NhcGU6Y29ubmVjdG9yLWN1cnZhdHVyZT0iMCIgc3R5bGU9ImZpbGw6I2ZmZmZmZiIgZD0ibSAyOS40NSwyMC4wNSBjIC0wLjA2LDAgLTAuMTEsLTAuMDEgLTAuMTYsLTAuMDQgTCAxOS4xNCwxNC4xNSBjIC0wLjA5LC0wLjA1IC0wLjE1LC0wLjE2IC0wLjE1LC0wLjI2IDAsLTAuMTEgMC4wNiwtMC4yMiAwLjE1LC0wLjI3IEwgMjkuMjMsNy44IGMgMC4xLC0wLjA1IDAuMjEsLTAuMDUgMC4zLDAgbCAxMC4xNiw1Ljg2IGMgMC4wOSwwLjA1IDAuMTUsMC4xNiAwLjE1LDAuMjcgMCwwLjExIC0wLjA2LDAuMjEgLTAuMTUsMC4yNiBMIDI5LjYsMjAuMDEgYyAtMC4wNSwwLjAzIC0wLjEsMC4wNCAtMC4xNSwwLjA0IHoiLz4mI3hhOyYjeGE7PHBhdGggaWQ9InBhdGg2MDk5NyIgaW5rc2NhcGU6Y29ubmVjdG9yLWN1cnZhdHVyZT0iMCIgc3R5bGU9ImZpbGw6I2ZmZmZmZjtmaWxsLW9wYWNpdHk6MC43IiBkPSJtIDI3Ljk5LDM0LjI5IGMgLTAuMDYsMCAtMC4xMSwtMC4wMSAtMC4xNSwtMC4wNCBMIDE3LjcyLDI4LjQxIGMgLTAuMSwtMC4wNSAtMC4xNiwtMC4xNSAtMC4xNiwtMC4yNiBWIDE2LjQzIGMgMCwtMC4xMSAwLjA2LC0wLjIyIDAuMTYsLTAuMjcgMC4wOSwtMC4wNiAwLjIxLC0wLjA2IDAuMzEsMCBMIDI4LjE0LDIyIGMgMC4wOSwwLjA2IDAuMTUsMC4xNiAwLjE1LDAuMjcgdiAxMS43MiBjIDAsMC4xMSAtMC4wNiwwLjIxIC0wLjE1LDAuMjYgLTAuMDUsMC4wMyAtMC4xLDAuMDQgLTAuMTUsMC4wNCB6Ii8+JiN4YTsmI3hhOzxwYXRoIGlkPSJwYXRoNjEwMDUiIGlua3NjYXBlOmNvbm5lY3Rvci1jdXJ2YXR1cmU9IjAiIHN0eWxlPSJmaWxsOiNmZmZmZmY7ZmlsbC1vcGFjaXR5OjAuNCIgZD0iTSAzMC44NiwzNC4yOSBDIDMwLjgsMzQuMjkgMzAuNzUsMzQuMjggMzAuNywzNC4yNSAzMC42MSwzNC4yIDMwLjU1LDM0LjEgMzAuNTUsMzMuOTkgViAyMi4zNCBjIDAsLTAuMTEgMC4wNiwtMC4yMSAwLjE1LC0wLjI3IGwgMTAuMTIsLTUuODMgYyAwLjA5LC0wLjA2IDAuMjEsLTAuMDYgMC4zLDAgMC4xLDAuMDUgMC4xNiwwLjE1IDAuMTYsMC4yNiB2IDExLjY1IGMgMCwwLjExIC0wLjA2LDAuMjEgLTAuMTYsMC4yNiBsIC0xMC4xMSw1Ljg0IGMgLTAuMDQsMC4wMyAtMC4xLDAuMDQgLTAuMTUsMC4wNCB6Ii8+JiN4YTs8L3N2Zz4=;align=center;fontFamily=Helvetica;fontSize=11;fontColor=default;resizable=0;fillColor=none;gradientColor=none;rounded=1;" parent="UU47y6sLOYaZg2WNpb1--1" vertex="1">
          <mxGeometry y="190" width="58" height="53" as="geometry" />
        </mxCell>
        <mxCell id="vbyWE2GeK1n_giPgyy7q-71" value="S28DEVOPS01&#xa;10.6.0.15 &#xa;&#xa;" style="shape=image;verticalLabelPosition=bottom;labelBackgroundColor=#ffffff;verticalAlign=top;aspect=fixed;imageAspect=0;image=data:image/svg+xml,PHN2ZyB4bWxuczpkYz0iaHR0cDovL3B1cmwub3JnL2RjL2VsZW1lbnRzLzEuMS8iIHhtbG5zOmNjPSJodHRwOi8vY3JlYXRpdmVjb21tb25zLm9yZy9ucyMiIHhtbG5zOnJkZj0iaHR0cDovL3d3dy53My5vcmcvMTk5OS8wMi8yMi1yZGYtc3ludGF4LW5zIyIgeG1sbnM6c3ZnPSJodHRwOi8vd3d3LnczLm9yZy8yMDAwL3N2ZyIgeG1sbnM9Imh0dHA6Ly93d3cudzMub3JnLzIwMDAvc3ZnIiB4bWxuczpzb2RpcG9kaT0iaHR0cDovL3NvZGlwb2RpLnNvdXJjZWZvcmdlLm5ldC9EVEQvc29kaXBvZGktMC5kdGQiIHhtbG5zOmlua3NjYXBlPSJodHRwOi8vd3d3Lmlua3NjYXBlLm9yZy9uYW1lc3BhY2VzL2lua3NjYXBlIiB2ZXJzaW9uPSIxLjEiIGlkPSJzdmc2MTAxMSIgaW5rc2NhcGU6dmVyc2lvbj0iMC45Mi4zICgyNDA1NTQ2LCAyMDE4LTAzLTExKSIgc29kaXBvZGk6ZG9jbmFtZT0iYXp1cmVfcG9ydGFsX3ZpcnR1YWxfbWFjaGluZXMuc3ZnIiB4PSIwcHgiIHk9IjBweCIgdmlld0JveD0iMCAwIDU3LjY0IDUzLjIwMDAwMiIgeG1sOnNwYWNlPSJwcmVzZXJ2ZSIgd2lkdGg9IjU3LjYzOTk5OSIgaGVpZ2h0PSI1My4yMDAwMDEiPjxtZXRhZGF0YSBpZD0ibWV0YWRhdGExMDk5MCI+PHJkZjpSREY+PGNjOldvcmsgcmRmOmFib3V0PSIiPjxkYzpmb3JtYXQ+aW1hZ2Uvc3ZnK3htbDwvZGM6Zm9ybWF0PjxkYzp0eXBlIHJkZjpyZXNvdXJjZT0iaHR0cDovL3B1cmwub3JnL2RjL2RjbWl0eXBlL1N0aWxsSW1hZ2UiLz48ZGM6dGl0bGUvPjwvY2M6V29yaz48L3JkZjpSREY+PC9tZXRhZGF0YT48ZGVmcyBpZD0iZGVmczEwOTg4Ii8+JiN4YTs8ZmlsdGVyIGlkPSJmaWx0ZXJfMiI+JiN4YTsJPGZlR2F1c3NpYW5CbHVyIGlkPSJmZUdhdXNzaWFuQmx1cjYwOTIwIiBzdGREZXZpYXRpb249IjIiLz4mI3hhOzwvZmlsdGVyPiYjeGE7PHNvZGlwb2RpOm5hbWVkdmlldyBib3JkZXJjb2xvcj0iIzY2NjY2NiIgYm9yZGVyb3BhY2l0eT0iMSIgZml0LW1hcmdpbi1ib3R0b209IjAiIGZpdC1tYXJnaW4tbGVmdD0iMCIgZml0LW1hcmdpbi1yaWdodD0iMCIgZml0LW1hcmdpbi10b3A9IjAiIGdyaWR0b2xlcmFuY2U9IjEwIiBndWlkZXRvbGVyYW5jZT0iMTAiIGlkPSJuYW1lZHZpZXc2MTAxMyIgaW5rc2NhcGU6Y3VycmVudC1sYXllcj0ic3ZnNjEwMTEiIGlua3NjYXBlOmN4PSItMzMuMTQzMzAzIiBpbmtzY2FwZTpjeT0iMjQuNjk2NTQ0IiBpbmtzY2FwZTpwYWdlb3BhY2l0eT0iMCIgaW5rc2NhcGU6cGFnZXNoYWRvdz0iMiIgaW5rc2NhcGU6d2luZG93LWhlaWdodD0iMTAxNyIgaW5rc2NhcGU6d2luZG93LW1heGltaXplZD0iMSIgaW5rc2NhcGU6d2luZG93LXdpZHRoPSIxOTIwIiBpbmtzY2FwZTp3aW5kb3cteD0iLTgiIGlua3NjYXBlOndpbmRvdy15PSItOCIgaW5rc2NhcGU6em9vbT0iNS45MTg3NzA5IiBvYmplY3R0b2xlcmFuY2U9IjEwIiBwYWdlY29sb3I9IiNmZmZmZmYiIHNob3dncmlkPSJmYWxzZSI+JiN4YTsJPC9zb2RpcG9kaTpuYW1lZHZpZXc+JiN4YTsmI3hhOzxwYXRoIGlkPSJwYXRoNjA5MzMiIGlua3NjYXBlOmNvbm5lY3Rvci1jdXJ2YXR1cmU9IjAiIHN0eWxlPSJmaWxsOiM3YTdhN2EiIGQ9Ik0gMzcuMzksNDIuMTIgSCAzNi4wMSAyMi40MiAyMS43MSBjIDEuODgsNi42NSAtMC42NSw3LjYgLTExLjczLDcuNiB2IDMuNDggaCAxNC4xIDEwLjI5IDEzLjMgdiAtMy40OCBjIC0xMS4wOCwwIC0xMi4xNywtMC45NSAtMTAuMjgsLTcuNiB6Ii8+JiN4YTsmI3hhOzxwYXRoIGlkPSJwYXRoNjA5NDEiIGlua3NjYXBlOmNvbm5lY3Rvci1jdXJ2YXR1cmU9IjAiIHN0eWxlPSJmaWxsOiNhMGExYTIiIGQ9Ik0gNTQuMTYsMCBIIDMuMTMgQyAxLjQsMCAwLDEuNTUgMCwzLjI4IHYgMzUuNTkgYyAwLDEuNzIgMS40LDMuMjUgMy4xMywzLjI1IGggNTEuMDMgYyAxLjczLDAgMy40OCwtMS41MyAzLjQ4LC0zLjI1IFYgMy4yOCBDIDU3LjY0LDEuNTUgNTUuODksMCA1NC4xNiwwIFoiLz4mI3hhOyYjeGE7PHBhdGggaWQ9InBhdGg2MDk0OSIgaW5rc2NhcGU6Y29ubmVjdG9yLWN1cnZhdHVyZT0iMCIgc3R5bGU9ImZpbGw6I2ZmZmZmZjtmaWxsLW9wYWNpdHk6MC4yIiBkPSJNIDU0LjIsMCBDIDU0LjE5LDAgNTQuMTcsMCA1NC4xNiwwIEggMy4xMyBDIDEuNCwwIDAsMS41NSAwLDMuMjggdiAzNS41OSBjIDAsMS43MiAxLjQsMy4yNSAzLjEzLDMuMjUgaCAxLjIyIHoiLz4mI3hhOyYjeGE7PHJlY3QgaWQ9InJlY3Q2MDk1NyIgeD0iNC4zNjk5OTUxIiB5PSI0LjQ0MDAwMDEiIHN0eWxlPSJmaWxsOiM1OWI0ZDkiIHdpZHRoPSI0OC43Nzk5OTkiIGhlaWdodD0iMzMuMjUiLz4mI3hhOyYjeGE7JiN4YTsmI3hhOzxyZWN0IGlkPSJyZWN0NjA5NzMiIHg9IjkuOTc5OTk1NyIgeT0iNDkuNzIwMDAxIiBzdHlsZT0iZmlsbDojYTBhMWEyIiB3aWR0aD0iMzcuNjg5OTk5IiBoZWlnaHQ9IjMuNDgiLz4mI3hhOyYjeGE7PHBhdGggaWQ9InBhdGg2MDk4MSIgaW5rc2NhcGU6Y29ubmVjdG9yLWN1cnZhdHVyZT0iMCIgc3R5bGU9ImZpbGw6I2I4ZDQzMiIgZD0ibSAyOS40MiwyLjQyIGMgMCwwLjQ1IC0wLjM3LDAuODEgLTAuODIsMC44MSAtMC40NiwwIC0wLjgyLC0wLjM2IC0wLjgyLC0wLjgxIDAsLTAuNDYgMC4zNiwtMC44MiAwLjgyLC0wLjgyIDAuNDUsMCAwLjgyLDAuMzYgMC44MiwwLjgyIHoiLz4mI3hhOyYjeGE7PHBhdGggaWQ9InBhdGg2MDk4OSIgaW5rc2NhcGU6Y29ubmVjdG9yLWN1cnZhdHVyZT0iMCIgc3R5bGU9ImZpbGw6I2ZmZmZmZiIgZD0ibSAyOS40NSwyMC4wNSBjIC0wLjA2LDAgLTAuMTEsLTAuMDEgLTAuMTYsLTAuMDQgTCAxOS4xNCwxNC4xNSBjIC0wLjA5LC0wLjA1IC0wLjE1LC0wLjE2IC0wLjE1LC0wLjI2IDAsLTAuMTEgMC4wNiwtMC4yMiAwLjE1LC0wLjI3IEwgMjkuMjMsNy44IGMgMC4xLC0wLjA1IDAuMjEsLTAuMDUgMC4zLDAgbCAxMC4xNiw1Ljg2IGMgMC4wOSwwLjA1IDAuMTUsMC4xNiAwLjE1LDAuMjcgMCwwLjExIC0wLjA2LDAuMjEgLTAuMTUsMC4yNiBMIDI5LjYsMjAuMDEgYyAtMC4wNSwwLjAzIC0wLjEsMC4wNCAtMC4xNSwwLjA0IHoiLz4mI3hhOyYjeGE7PHBhdGggaWQ9InBhdGg2MDk5NyIgaW5rc2NhcGU6Y29ubmVjdG9yLWN1cnZhdHVyZT0iMCIgc3R5bGU9ImZpbGw6I2ZmZmZmZjtmaWxsLW9wYWNpdHk6MC43IiBkPSJtIDI3Ljk5LDM0LjI5IGMgLTAuMDYsMCAtMC4xMSwtMC4wMSAtMC4xNSwtMC4wNCBMIDE3LjcyLDI4LjQxIGMgLTAuMSwtMC4wNSAtMC4xNiwtMC4xNSAtMC4xNiwtMC4yNiBWIDE2LjQzIGMgMCwtMC4xMSAwLjA2LC0wLjIyIDAuMTYsLTAuMjcgMC4wOSwtMC4wNiAwLjIxLC0wLjA2IDAuMzEsMCBMIDI4LjE0LDIyIGMgMC4wOSwwLjA2IDAuMTUsMC4xNiAwLjE1LDAuMjcgdiAxMS43MiBjIDAsMC4xMSAtMC4wNiwwLjIxIC0wLjE1LDAuMjYgLTAuMDUsMC4wMyAtMC4xLDAuMDQgLTAuMTUsMC4wNCB6Ii8+JiN4YTsmI3hhOzxwYXRoIGlkPSJwYXRoNjEwMDUiIGlua3NjYXBlOmNvbm5lY3Rvci1jdXJ2YXR1cmU9IjAiIHN0eWxlPSJmaWxsOiNmZmZmZmY7ZmlsbC1vcGFjaXR5OjAuNCIgZD0iTSAzMC44NiwzNC4yOSBDIDMwLjgsMzQuMjkgMzAuNzUsMzQuMjggMzAuNywzNC4yNSAzMC42MSwzNC4yIDMwLjU1LDM0LjEgMzAuNTUsMzMuOTkgViAyMi4zNCBjIDAsLTAuMTEgMC4wNiwtMC4yMSAwLjE1LC0wLjI3IGwgMTAuMTIsLTUuODMgYyAwLjA5LC0wLjA2IDAuMjEsLTAuMDYgMC4zLDAgMC4xLDAuMDUgMC4xNiwwLjE1IDAuMTYsMC4yNiB2IDExLjY1IGMgMCwwLjExIC0wLjA2LDAuMjEgLTAuMTYsMC4yNiBsIC0xMC4xMSw1Ljg0IGMgLTAuMDQsMC4wMyAtMC4xLDAuMDQgLTAuMTUsMC4wNCB6Ii8+JiN4YTs8L3N2Zz4=;align=center;fontFamily=Helvetica;fontSize=11;fontColor=default;resizable=0;fillColor=none;gradientColor=none;rounded=1;" parent="UU47y6sLOYaZg2WNpb1--1" vertex="1">
          <mxGeometry y="280" width="58" height="53" as="geometry" />
        </mxCell>
        <mxCell id="vbyWE2GeK1n_giPgyy7q-72" value="S28WK&#xa;10.6.0.129 &#xa;" style="shape=image;verticalLabelPosition=bottom;labelBackgroundColor=#ffffff;verticalAlign=top;aspect=fixed;imageAspect=0;image=data:image/svg+xml,PHN2ZyB4bWxuczpkYz0iaHR0cDovL3B1cmwub3JnL2RjL2VsZW1lbnRzLzEuMS8iIHhtbG5zOmNjPSJodHRwOi8vY3JlYXRpdmVjb21tb25zLm9yZy9ucyMiIHhtbG5zOnJkZj0iaHR0cDovL3d3dy53My5vcmcvMTk5OS8wMi8yMi1yZGYtc3ludGF4LW5zIyIgeG1sbnM6c3ZnPSJodHRwOi8vd3d3LnczLm9yZy8yMDAwL3N2ZyIgeG1sbnM9Imh0dHA6Ly93d3cudzMub3JnLzIwMDAvc3ZnIiB4bWxuczpzb2RpcG9kaT0iaHR0cDovL3NvZGlwb2RpLnNvdXJjZWZvcmdlLm5ldC9EVEQvc29kaXBvZGktMC5kdGQiIHhtbG5zOmlua3NjYXBlPSJodHRwOi8vd3d3Lmlua3NjYXBlLm9yZy9uYW1lc3BhY2VzL2lua3NjYXBlIiB2ZXJzaW9uPSIxLjEiIGlkPSJzdmc2MTAxMSIgaW5rc2NhcGU6dmVyc2lvbj0iMC45Mi4zICgyNDA1NTQ2LCAyMDE4LTAzLTExKSIgc29kaXBvZGk6ZG9jbmFtZT0iYXp1cmVfcG9ydGFsX3ZpcnR1YWxfbWFjaGluZXMuc3ZnIiB4PSIwcHgiIHk9IjBweCIgdmlld0JveD0iMCAwIDU3LjY0IDUzLjIwMDAwMiIgeG1sOnNwYWNlPSJwcmVzZXJ2ZSIgd2lkdGg9IjU3LjYzOTk5OSIgaGVpZ2h0PSI1My4yMDAwMDEiPjxtZXRhZGF0YSBpZD0ibWV0YWRhdGExMDk5MCI+PHJkZjpSREY+PGNjOldvcmsgcmRmOmFib3V0PSIiPjxkYzpmb3JtYXQ+aW1hZ2Uvc3ZnK3htbDwvZGM6Zm9ybWF0PjxkYzp0eXBlIHJkZjpyZXNvdXJjZT0iaHR0cDovL3B1cmwub3JnL2RjL2RjbWl0eXBlL1N0aWxsSW1hZ2UiLz48ZGM6dGl0bGUvPjwvY2M6V29yaz48L3JkZjpSREY+PC9tZXRhZGF0YT48ZGVmcyBpZD0iZGVmczEwOTg4Ii8+JiN4YTs8ZmlsdGVyIGlkPSJmaWx0ZXJfMiI+JiN4YTsJPGZlR2F1c3NpYW5CbHVyIGlkPSJmZUdhdXNzaWFuQmx1cjYwOTIwIiBzdGREZXZpYXRpb249IjIiLz4mI3hhOzwvZmlsdGVyPiYjeGE7PHNvZGlwb2RpOm5hbWVkdmlldyBib3JkZXJjb2xvcj0iIzY2NjY2NiIgYm9yZGVyb3BhY2l0eT0iMSIgZml0LW1hcmdpbi1ib3R0b209IjAiIGZpdC1tYXJnaW4tbGVmdD0iMCIgZml0LW1hcmdpbi1yaWdodD0iMCIgZml0LW1hcmdpbi10b3A9IjAiIGdyaWR0b2xlcmFuY2U9IjEwIiBndWlkZXRvbGVyYW5jZT0iMTAiIGlkPSJuYW1lZHZpZXc2MTAxMyIgaW5rc2NhcGU6Y3VycmVudC1sYXllcj0ic3ZnNjEwMTEiIGlua3NjYXBlOmN4PSItMzMuMTQzMzAzIiBpbmtzY2FwZTpjeT0iMjQuNjk2NTQ0IiBpbmtzY2FwZTpwYWdlb3BhY2l0eT0iMCIgaW5rc2NhcGU6cGFnZXNoYWRvdz0iMiIgaW5rc2NhcGU6d2luZG93LWhlaWdodD0iMTAxNyIgaW5rc2NhcGU6d2luZG93LW1heGltaXplZD0iMSIgaW5rc2NhcGU6d2luZG93LXdpZHRoPSIxOTIwIiBpbmtzY2FwZTp3aW5kb3cteD0iLTgiIGlua3NjYXBlOndpbmRvdy15PSItOCIgaW5rc2NhcGU6em9vbT0iNS45MTg3NzA5IiBvYmplY3R0b2xlcmFuY2U9IjEwIiBwYWdlY29sb3I9IiNmZmZmZmYiIHNob3dncmlkPSJmYWxzZSI+JiN4YTsJPC9zb2RpcG9kaTpuYW1lZHZpZXc+JiN4YTsmI3hhOzxwYXRoIGlkPSJwYXRoNjA5MzMiIGlua3NjYXBlOmNvbm5lY3Rvci1jdXJ2YXR1cmU9IjAiIHN0eWxlPSJmaWxsOiM3YTdhN2EiIGQ9Ik0gMzcuMzksNDIuMTIgSCAzNi4wMSAyMi40MiAyMS43MSBjIDEuODgsNi42NSAtMC42NSw3LjYgLTExLjczLDcuNiB2IDMuNDggaCAxNC4xIDEwLjI5IDEzLjMgdiAtMy40OCBjIC0xMS4wOCwwIC0xMi4xNywtMC45NSAtMTAuMjgsLTcuNiB6Ii8+JiN4YTsmI3hhOzxwYXRoIGlkPSJwYXRoNjA5NDEiIGlua3NjYXBlOmNvbm5lY3Rvci1jdXJ2YXR1cmU9IjAiIHN0eWxlPSJmaWxsOiNhMGExYTIiIGQ9Ik0gNTQuMTYsMCBIIDMuMTMgQyAxLjQsMCAwLDEuNTUgMCwzLjI4IHYgMzUuNTkgYyAwLDEuNzIgMS40LDMuMjUgMy4xMywzLjI1IGggNTEuMDMgYyAxLjczLDAgMy40OCwtMS41MyAzLjQ4LC0zLjI1IFYgMy4yOCBDIDU3LjY0LDEuNTUgNTUuODksMCA1NC4xNiwwIFoiLz4mI3hhOyYjeGE7PHBhdGggaWQ9InBhdGg2MDk0OSIgaW5rc2NhcGU6Y29ubmVjdG9yLWN1cnZhdHVyZT0iMCIgc3R5bGU9ImZpbGw6I2ZmZmZmZjtmaWxsLW9wYWNpdHk6MC4yIiBkPSJNIDU0LjIsMCBDIDU0LjE5LDAgNTQuMTcsMCA1NC4xNiwwIEggMy4xMyBDIDEuNCwwIDAsMS41NSAwLDMuMjggdiAzNS41OSBjIDAsMS43MiAxLjQsMy4yNSAzLjEzLDMuMjUgaCAxLjIyIHoiLz4mI3hhOyYjeGE7PHJlY3QgaWQ9InJlY3Q2MDk1NyIgeD0iNC4zNjk5OTUxIiB5PSI0LjQ0MDAwMDEiIHN0eWxlPSJmaWxsOiM1OWI0ZDkiIHdpZHRoPSI0OC43Nzk5OTkiIGhlaWdodD0iMzMuMjUiLz4mI3hhOyYjeGE7JiN4YTsmI3hhOzxyZWN0IGlkPSJyZWN0NjA5NzMiIHg9IjkuOTc5OTk1NyIgeT0iNDkuNzIwMDAxIiBzdHlsZT0iZmlsbDojYTBhMWEyIiB3aWR0aD0iMzcuNjg5OTk5IiBoZWlnaHQ9IjMuNDgiLz4mI3hhOyYjeGE7PHBhdGggaWQ9InBhdGg2MDk4MSIgaW5rc2NhcGU6Y29ubmVjdG9yLWN1cnZhdHVyZT0iMCIgc3R5bGU9ImZpbGw6I2I4ZDQzMiIgZD0ibSAyOS40MiwyLjQyIGMgMCwwLjQ1IC0wLjM3LDAuODEgLTAuODIsMC44MSAtMC40NiwwIC0wLjgyLC0wLjM2IC0wLjgyLC0wLjgxIDAsLTAuNDYgMC4zNiwtMC44MiAwLjgyLC0wLjgyIDAuNDUsMCAwLjgyLDAuMzYgMC44MiwwLjgyIHoiLz4mI3hhOyYjeGE7PHBhdGggaWQ9InBhdGg2MDk4OSIgaW5rc2NhcGU6Y29ubmVjdG9yLWN1cnZhdHVyZT0iMCIgc3R5bGU9ImZpbGw6I2ZmZmZmZiIgZD0ibSAyOS40NSwyMC4wNSBjIC0wLjA2LDAgLTAuMTEsLTAuMDEgLTAuMTYsLTAuMDQgTCAxOS4xNCwxNC4xNSBjIC0wLjA5LC0wLjA1IC0wLjE1LC0wLjE2IC0wLjE1LC0wLjI2IDAsLTAuMTEgMC4wNiwtMC4yMiAwLjE1LC0wLjI3IEwgMjkuMjMsNy44IGMgMC4xLC0wLjA1IDAuMjEsLTAuMDUgMC4zLDAgbCAxMC4xNiw1Ljg2IGMgMC4wOSwwLjA1IDAuMTUsMC4xNiAwLjE1LDAuMjcgMCwwLjExIC0wLjA2LDAuMjEgLTAuMTUsMC4yNiBMIDI5LjYsMjAuMDEgYyAtMC4wNSwwLjAzIC0wLjEsMC4wNCAtMC4xNSwwLjA0IHoiLz4mI3hhOyYjeGE7PHBhdGggaWQ9InBhdGg2MDk5NyIgaW5rc2NhcGU6Y29ubmVjdG9yLWN1cnZhdHVyZT0iMCIgc3R5bGU9ImZpbGw6I2ZmZmZmZjtmaWxsLW9wYWNpdHk6MC43IiBkPSJtIDI3Ljk5LDM0LjI5IGMgLTAuMDYsMCAtMC4xMSwtMC4wMSAtMC4xNSwtMC4wNCBMIDE3LjcyLDI4LjQxIGMgLTAuMSwtMC4wNSAtMC4xNiwtMC4xNSAtMC4xNiwtMC4yNiBWIDE2LjQzIGMgMCwtMC4xMSAwLjA2LC0wLjIyIDAuMTYsLTAuMjcgMC4wOSwtMC4wNiAwLjIxLC0wLjA2IDAuMzEsMCBMIDI4LjE0LDIyIGMgMC4wOSwwLjA2IDAuMTUsMC4xNiAwLjE1LDAuMjcgdiAxMS43MiBjIDAsMC4xMSAtMC4wNiwwLjIxIC0wLjE1LDAuMjYgLTAuMDUsMC4wMyAtMC4xLDAuMDQgLTAuMTUsMC4wNCB6Ii8+JiN4YTsmI3hhOzxwYXRoIGlkPSJwYXRoNjEwMDUiIGlua3NjYXBlOmNvbm5lY3Rvci1jdXJ2YXR1cmU9IjAiIHN0eWxlPSJmaWxsOiNmZmZmZmY7ZmlsbC1vcGFjaXR5OjAuNCIgZD0iTSAzMC44NiwzNC4yOSBDIDMwLjgsMzQuMjkgMzAuNzUsMzQuMjggMzAuNywzNC4yNSAzMC42MSwzNC4yIDMwLjU1LDM0LjEgMzAuNTUsMzMuOTkgViAyMi4zNCBjIDAsLTAuMTEgMC4wNiwtMC4yMSAwLjE1LC0wLjI3IGwgMTAuMTIsLTUuODMgYyAwLjA5LC0wLjA2IDAuMjEsLTAuMDYgMC4zLDAgMC4xLDAuMDUgMC4xNiwwLjE1IDAuMTYsMC4yNiB2IDExLjY1IGMgMCwwLjExIC0wLjA2LDAuMjEgLTAuMTYsMC4yNiBsIC0xMC4xMSw1Ljg0IGMgLTAuMDQsMC4wMyAtMC4xLDAuMDQgLTAuMTUsMC4wNCB6Ii8+JiN4YTs8L3N2Zz4=;align=center;fontFamily=Helvetica;fontSize=11;fontColor=default;resizable=0;fillColor=none;gradientColor=none;rounded=1;" parent="UU47y6sLOYaZg2WNpb1--1" vertex="1">
          <mxGeometry y="370" width="58" height="53" as="geometry" />
        </mxCell>
        <mxCell id="UU47y6sLOYaZg2WNpb1--5" style="edgeStyle=elbowEdgeStyle;shape=wire;rounded=1;orthogonalLoop=1;jettySize=auto;html=1;fontFamily=Helvetica;fontSize=11;fontColor=default;labelBackgroundColor=default;resizable=0;dashed=1;fillColor=#1ba1e2;strokeColor=none;" edge="1" parent="1" source="UU47y6sLOYaZg2WNpb1--2" target="vbyWE2GeK1n_giPgyy7q-15">
          <mxGeometry relative="1" as="geometry">
            <mxPoint x="-410" y="-840" as="targetPoint" />
          </mxGeometry>
        </mxCell>
        <mxCell id="UU47y6sLOYaZg2WNpb1--6" value="1/0/19" style="edgeLabel;html=1;align=center;verticalAlign=middle;resizable=0;points=[];rounded=1;fontFamily=Helvetica;fontSize=11;fontColor=default;labelBackgroundColor=default;fillColor=none;gradientColor=none;" vertex="1" connectable="0" parent="UU47y6sLOYaZg2WNpb1--5">
          <mxGeometry x="-0.2731" y="-1" relative="1" as="geometry">
            <mxPoint y="-95" as="offset" />
          </mxGeometry>
        </mxCell>
        <mxCell id="UU47y6sLOYaZg2WNpb1--2" value="&lt;div&gt;&lt;font&gt;S28VM1&lt;br&gt;&lt;span style=&quot;font-family: Arial, sans-serif; text-align: start; text-wrap-mode: wrap; background-color: rgb(255, 255, 255); color: rgb(57, 62, 70);&quot;&gt;10.6.0.35&amp;nbsp;&lt;/span&gt;&lt;/font&gt;&lt;/div&gt;" style="image;aspect=fixed;perimeter=ellipsePerimeter;html=1;align=center;shadow=0;dashed=0;spacingTop=3;image=img/lib/active_directory/windows_server_2.svg;labelPosition=center;verticalLabelPosition=top;verticalAlign=bottom;rounded=1;" vertex="1" parent="1">
          <mxGeometry x="-390" y="-673" width="71" height="88.75" as="geometry" />
        </mxCell>
      </root>
    </mxGraphModel>
  </diagram>
</mxfile>
